<svg width="693" height="516" viewBox="0 0 693 516" xmlns="http://www.w3.org/2000/svg"><title>free-flat-social-icons</title><g fill="none" fill-rule="evenodd"><path fill="#4E4C59" d="M229 394h235v122H229z"/><g fill="#FFF"><path d="M418 470h2.178v4.563l3.788-4.563h2.961l-4.006 4.817L427 482h-2.57l-3.033-5.324-1.22 1.436V482H418v-12zm0 0M401 470h.615l7.077 7.014V470H411v12h-.63l-7.062-7.014V482H401v-12zm0 0M392.393 480.08h-5.8L385.57 482H383l6.493-12L396 482h-2.57l-1.037-1.92zM391 478l-1.5-3-1.5 3h3zm0 0M371 470h10v2.366h-3.846V482h-2.308v-9.634h-3.845V470H371zm0 0M358 475.5c0 1.92-.081 3.84-.081 5.76.081 1.44-.645 2.64-1.936 3.36-3.309 1.92-6.698 3.92-10.087 5.84-1.21.72-2.582.72-3.873 0-3.308-1.92-6.697-3.92-10.086-5.84-1.21-.72-1.937-1.84-1.937-3.28v-11.68c0-1.44.646-2.56 1.937-3.28 3.389-2 6.697-3.92 10.086-5.84 1.291-.72 2.582-.72 3.793 0 3.47 1.92 6.858 3.84 10.167 5.84 1.29.72 1.936 1.84 1.936 3.28.081 2 0 3.92 0 5.84H358zm-18.548-5.224c-.395.399-.79.797-1.186 1.116.158.16.158.32.395.479-.554.558-1.107 1.036-1.661 1.515.316.4.554.638.87.957.316.24.554.559.87.798l1.503-1.515c1.028.957 1.978 1.914 2.927 2.871-1.187 1.516-2.769 2.632-4.193 3.908.633.559 1.108 1.117 1.582 1.595 1.266-1.435 2.373-2.95 3.797-4.227 1.582 1.276 2.69 2.871 3.876 4.227l1.582-1.595c-.632-.558-1.424-1.196-2.135-1.834a25.256 25.256 0 0 1-2.057-2.074c1.028-.957 1.977-1.914 2.926-2.792.238.24.554.479.791.798.317.24.554.558.791.797.317.24.554.559.87.798 0-1.515-.158-2.951-.79-4.307l.316-.319-1.187-1.196-.316.319c-.554-.558-1.107-1.117-1.503-1.595l-1.74 1.755c.475.478.95 1.037 1.503 1.595-1.028.957-1.978 1.914-3.006 2.871-.87-.957-1.82-1.914-2.768-2.871.553-.558 1.028-1.117 1.582-1.595-.633-.638-1.187-1.197-1.82-1.755-.395.478-.949 1.037-1.423 1.595-.159-.16-.317-.239-.396-.32zm0 0M308 470h2.178v4.563l3.788-4.563h2.961l-4.005 4.817L317 482h-2.57l-3.033-5.324-1.22 1.436V482H308v-12zm0 0M292 470h.615l7.077 7.014V470H302v12h-.63l-7.062-7.014V482H292v-12zm0 0M285 482h-2v-12h2v12zm0 0M267 470h10v2.366h-3.846V482h-2.308v-9.634H267V470zm0 0"/></g><path d="M314.8 433.485v-.904c.134-.735.302-1.103.505-1.103.95.07 1.426.236 1.426.5v.207c-.203.258-.304.626-.304 1.102 0 .304.54.571 1.617.801h.209c.777 0 1.316-.735 1.617-2.205.07-.419.105-.89.105-1.412-.087-.672-.763-1.608-2.026-2.808-1.397-.626-2.244-1.398-2.54-2.317-.086 0-.223-.803-.408-2.411V422.134c.47-2.268 1.046-3.574 1.73-3.919.192-.143.551-.215 1.079-.215h.226c1.716.344 2.733 1.02 3.052 2.024.342.838.513 1.777.513 2.816.064.12.096.244.096.37 0 .104-.02.21-.061.32l-.105.283-.339.052-.504-.026c-.545 0-.818-.468-.818-1.404 0-1.642-.539-2.58-1.617-2.816h-.209c-.811.287-1.246 1.034-1.304 2.24-.006.585-.043.878-.113.878l-.035.275.035.13c0 .964.304 1.734.913 2.308 2.099 1.148 3.18 1.986 3.243 2.515.65.55.989 1.556 1.018 3.014v.5c-.15 1.532-.557 2.704-1.218 3.513-.684.672-1.46 1.008-2.33 1.008-1.183 0-2.232-.502-3.148-1.507zm-26-12.713c0-.515.189-.772.564-.772h1.504c.123.11.217.561.281 1.352h-.096c0 .067.032.1.096.1.06 1.289.089 2.257.089 2.904v1.062c0 .149-.03.279-.089.39a.849.849 0 0 1 .089.39c0 .066-.03.163-.089.29 0 .066.03.163.089.29a8.455 8.455 0 0 0-.089 1.062v.39c0 .194.03.29.089.29l-.089.482v.1c0 .967.03 1.772.089 2.413v1.842c.375 0 .563.097.563.29v1.162c0 .127-.062.191-.185.191h-.282c-.064 0-.096-.03-.096-.091l-.185.091h-1.03c-.101 0-.228-.127-.378-.382 0-.066.033-.1.097-.1a.727.727 0 0 1-.097-.29l-.096-1.551c.064-.354.096-.611.096-.772 0-.066-.032-.1-.096-.1l.096-.48v-1.933c0-.377.033-.894.097-1.552 0-.066-.032-.1-.097-.1l.097-.48c0-.305-.032-.628-.097-.971.065-.338.097-.658.097-.963l-.097-.199c0-.06.033-.091.097-.091a21.968 21.968 0 0 1-.097-1.651v-.871a.745.745 0 0 0-.096-.382.791.791 0 0 0 .096-.39v-.1c-.445-.06-.694-.09-.748-.09v-.39a.791.791 0 0 0-.096-.39zm34 9.628l.043-.116v-.379l-.034-.445a.529.529 0 0 0 .034-.23 7.25 7.25 0 0 1 .979-3.653c.513-.385.934-.577 1.263-.577h.1l.076.008.117-.008c1.54 0 2.583.607 3.13 1.822.195 1.698.293 2.63.293 2.795-.407 3.204-.798 4.806-1.172 4.806-.351.214-.906.407-1.665.577h-.619c-1.255 0-2.017-.627-2.285-1.88-.078-.159-.15-.557-.217-1.195v-.198a.736.736 0 0 0-.009-.132l.009-.156v-.866a.378.378 0 0 0-.042-.173zm-28 1.297c0 .646.466 1.08 1.395 1.303.649 0 1.184-.166 1.606-.497V430.3c-.483-.2-.875-.3-1.174-.3h-.22c-.87 0-1.404.566-1.606 1.697zm29-1.217c.178 1.621.437 2.432.78 2.432.248.059.505.088.77.088.802 0 1.252-.995 1.351-2.984v-.096l.058-.328.042-.416a.571.571 0 0 1-.042-.272c-.016-.208-.002-.365.042-.472-.171-1.621-.655-2.432-1.45-2.432-.83 0-1.34 1.072-1.534 3.216v.328c0 .624-.005.936-.016.936zm-44.588-8.992l-.411-.869c.175-.534 1.025-.94 2.551-1.218.262.005.495.008.7.008l.218-.008c.116.062.25.065.402.008.227.057.399.054.515-.008.193.034.367.05.525.05.145 0 .276-.014.393-.042h.096c.157.057.294.054.41-.008a43.062 43.062 0 0 1 1.268-.094c.67-.006 1.004-.108 1.004-.307h.306c.408.233.612.398.612.494v.4c0 .682-.102 1.145-.306 1.39l-.716-.094h-.743a1.549 1.549 0 0 0-.48-.017l-.333.017h-.306c-.576 0-1.427.031-2.551.094a17.062 17.062 0 0 0-.096 1.49v.205c.058.12.052.18-.018.18l.018.119v2.48c.017.136.084.204.2.204h.202c.093.057.198.051.314-.017a.388.388 0 0 1 .201.017c.827 0 1.573-.199 2.237-.597.303 0 .475.628.516 1.884-.402.312-1.261.517-2.578.613a1.203 1.203 0 0 1-.21.017c-.11 0-.236-.011-.375-.034h-.507v2.488c.046.086.043.148-.009.188l.009.11c-.07.728-.105 1.358-.105 1.892.035.08.03.131-.018.154l.018.145c-.28 2.119-.722 3.178-1.328 3.178-.95 0-1.424-.258-1.424-.775l.104-.017c.338 0 .676-1.625 1.014-4.875 0-.068.006-.159.017-.272l-.017-.324v-2.19c0-.063-.006-.094-.018-.094.082-.068.088-.102.018-.102.07-.778.105-1.34.105-1.687v-2.787c0-.148.003-.281.009-.4a7.752 7.752 0 0 1-.01-.392v-.597l-.506-.102a5.194 5.194 0 0 1-.917.102zm50.589 9.454l.017-.365-.017-.526c.07-.515.104-1.044.104-1.588l-.07-.042c.11-.034.134-.05.07-.05.319-1.557.858-2.545 1.618-2.964.37-.271 1.049-.407 2.034-.407h.4c1.218 0 2.064.693 2.54 2.08v.195c0 .532-.372.798-1.114.798-.185 0-.423-.365-.713-1.095l-.808-.492a3.263 3.263 0 0 0-.713-.102c-1.084.311-1.626 1.137-1.626 2.478 0 .068.005.159.017.272l-.017.323v.891c0 .147.005.28.017.399l-.017.195c.602 1.585 1.313 2.377 2.13 2.377 0 .068.133.034.4-.102a.427.427 0 0 0 .148.026c.307 0 .632-.37.974-1.112.162-.238.345-.357.548-.357.087 0 .176.02.27.06l.112-.043.087.043h.105c.33.175.498.308.504.399v.093c-.742 1.415-1.418 2.207-2.026 2.377-.209.198-.65.297-1.322.297h-.504c-.916 0-1.797-.66-2.644-1.978a16.658 16.658 0 0 1-.504-2.08zm-28-6.379v-.494c.075-.142.177-.31.304-.502.592.284 1.403.55 2.435.8.133-.817.235-1.78.304-2.888 0-.727-.168-1.323-.504-1.789.383-.46.89-.69 1.522-.69.336 0 .539.398.608 1.193 0 .471-.07 1.894-.208 4.268h.713c.968-.397 1.475-.596 1.522-.596h.2v.502c0 .148.034.279.104.392-.232.506-.681.872-1.348 1.1-.232.13-.629.195-1.191.195h-.2c-.203 1.284-.305 2.74-.305 4.37.18 1.358.52 2.321 1.018 2.89.608.55.913.88.913.987 0 .341-.305.54-.913.597-.116.068-.31.102-.583.102-.423-.011-.939-.474-1.548-1.389-.272-.818-.443-1.812-.513-2.982.023-.119.035-.252.035-.4l-.035-.494.305-3.783-.574-.085c-1.374-.386-2.061-.82-2.061-1.304zm36 .815l.107-.378c1.07 0 1.714.29 1.934.87.06 0 .091.096.091.288v1.043l.025.295c-.077.356-.086.482-.025.378l-.09.476v1.249c0 .23-.034.517-.1.862.011.082.017.276.017.583l-.017.082c0 .898.193 1.374.579 1.429.27 0 .43.26.479.78 0 .443-.386.665-1.157.665h-.38c-.711-.285-1.066-.922-1.066-1.913v-.477h.099c0-.065-.033-.098-.1-.098l.017-.476a.578.578 0 0 0-.016-.288l.016-.566.083-.583a.732.732 0 0 0-.1-.386c0-.066-.01-.236-.033-.51l.034-.451c.066-.789.099-1.202.099-1.24-.265-.504-.397-.887-.397-1.15 0-.213-.033-.375-.1-.484zm-45 6.65c.169-1.465.53-2.356 1.082-2.673.44-.328 1.031-.493 1.775-.493.468 0 .93.066 1.387.196.062-.595.101-.943.118-1.044l-.025-.442v-.467c-.119-.328-.38-.535-.786-.62-.102-.067-.3-.101-.592-.101-.626 0-1.054.43-1.285 1.29 0 .198-.164.297-.49.297h-.491c-.248-.028-.38-.161-.397-.399.248-1.715 1.268-2.572 3.06-2.572h.296c1.28.153 2.035 1.044 2.266 2.674-.13 1.97-.195 3.322-.195 4.058.214 1.188.561 1.805 1.04 1.85l.237.23v.203c-.35.657-.71.985-1.082.985-.333 0-.792-.263-1.378-.79-.468.465-1.127.697-1.979.697h-.093c-1.211 0-2-.629-2.367-1.885-.05-.3-.084-.63-.101-.993zm46-8.908c0-.747.38-1.12 1.138-1.12h.195c.44 0 .659.426.659 1.278l.008.042c-.065.027-.068.04-.008.04 0 .427-.347.64-1.04.64h-.188c-.51 0-.764-.293-.764-.88zm4 8.909c.169-1.466.53-2.357 1.082-2.674.44-.328 1.031-.493 1.775-.493.468 0 .93.066 1.387.196.062-.595.101-.943.118-1.044l-.025-.442v-.467c-.119-.328-.38-.535-.786-.62-.102-.067-.3-.101-.592-.101-.626 0-1.054.43-1.285 1.29 0 .198-.164.297-.49.297h-.491c-.248-.028-.38-.161-.397-.399.248-1.715 1.268-2.572 3.06-2.572h.296c1.28.153 2.035 1.044 2.266 2.674-.13 1.97-.195 3.322-.195 4.058.214 1.188.561 1.805 1.04 1.85l.237.23v.203c-.35.657-.71.985-1.082.985-.333 0-.792-.263-1.378-.79-.468.465-1.127.697-1.979.697h-.093c-1.211 0-2-.629-2.367-1.885-.05-.3-.084-.63-.101-.993zm1-.332c0 .646.465 1.08 1.394 1.303.649 0 1.184-.166 1.606-.497V430.3c-.483-.2-.875-.3-1.174-.3h-.22c-.87 0-1.404.566-1.606 1.697zm7-10.925c0-.515.188-.772.563-.772h1.504c.123.11.217.561.281 1.352h-.096c0 .067.032.1.096.1.06 1.289.089 2.257.089 2.904v1.062c0 .149-.03.279-.089.39a.849.849 0 0 1 .089.39c0 .066-.03.163-.089.29 0 .066.03.163.089.29a8.455 8.455 0 0 0-.089 1.062v.39c0 .194.03.29.089.29l-.089.482v.1c0 .967.03 1.772.089 2.413v1.842c.375 0 .563.097.563.29v1.162c0 .127-.062.191-.185.191h-.282c-.064 0-.096-.03-.096-.091l-.185.091h-1.03c-.101 0-.228-.127-.378-.382 0-.066.033-.1.097-.1a.727.727 0 0 1-.097-.29l-.096-1.551c.064-.354.096-.611.096-.772 0-.066-.032-.1-.096-.1l.096-.48v-1.933c0-.377.033-.894.097-1.552 0-.066-.032-.1-.097-.1l.097-.48c0-.305-.032-.628-.097-.971.065-.338.097-.658.097-.963l-.097-.199c0-.06.033-.091.097-.091a21.968 21.968 0 0 1-.097-1.651v-.871a.745.745 0 0 0-.096-.382.791.791 0 0 0 .096-.39v-.1c-.445-.06-.694-.09-.748-.09v-.39a.791.791 0 0 0-.096-.39zm10-.49c.095-.855.29-1.282.586-1.282.61.18.914.312.914.396.11.523.164 1.144.164 1.863v.986c0 .067.01.135.029.202l-.029.093v1.281c-.047.253-.043.38.014.38l-.014.404v1.576c0 1.287.057 2.498.172 3.633l-.015.1.015.102v1.475l.078.59-.078.194.164 1.475-.014.118.014.075v1.964c-.2 0-.45.031-.75.093l-.414-.11c-.11.068-.193.073-.25.017-.224-.32-.365-1.005-.422-2.056l.086-.885c-.11-3.675-.164-5.872-.164-6.591.052-.81.078-1.236.078-1.281-.052-.236-.078-.596-.078-1.08 0-.067.002-.168.007-.303a8.901 8.901 0 0 1-.007-.387l.078-.388a.873.873 0 0 1-.078-.295c-.048-.202-.046-.303.007-.303l-.007-.287V420.67a.844.844 0 0 0-.086-.388zm3 10.66l.017-.365-.017-.526c.07-.515.104-1.044.104-1.588l-.07-.042c.11-.034.134-.05.07-.05.319-1.557.858-2.545 1.618-2.964.37-.271 1.049-.407 2.034-.407h.4c1.218 0 2.064.693 2.54 2.08v.195c0 .532-.372.798-1.114.798-.185 0-.423-.365-.713-1.095l-.808-.492a3.263 3.263 0 0 0-.713-.102c-1.084.311-1.626 1.137-1.626 2.478 0 .068.005.159.017.272l-.017.323v.891c0 .147.005.28.017.399l-.017.195c.602 1.585 1.313 2.377 2.13 2.377 0 .068.133.034.4-.102a.427.427 0 0 0 .148.026c.307 0 .632-.37.974-1.112.162-.238.345-.357.548-.357.087 0 .176.02.27.06l.112-.043.087.043h.105c.33.175.498.308.504.399v.093c-.742 1.415-1.418 2.207-2.026 2.377-.209.198-.65.297-1.322.297h-.504c-.916 0-1.797-.66-2.644-1.978a16.658 16.658 0 0 1-.504-2.08zm8-.542l.042-.116v-.379l-.034-.445a.529.529 0 0 0 .034-.23 7.25 7.25 0 0 1 .979-3.653c.513-.385.934-.577 1.263-.577h.1l.076.008.117-.008c1.54 0 2.583.607 3.13 1.822.195 1.698.293 2.63.293 2.795-.407 3.204-.798 4.806-1.172 4.806-.351.214-.906.407-1.665.577h-.619c-1.255 0-2.017-.627-2.285-1.88-.078-.159-.15-.557-.217-1.195v-.198a.736.736 0 0 0-.009-.132l.009-.156v-.866a.378.378 0 0 0-.042-.173zm1 .08c.177 1.621.436 2.432.779 2.432.248.059.505.088.77.088.802 0 1.252-.995 1.351-2.984v-.096l.058-.328.042-.416a.571.571 0 0 1-.042-.272c-.016-.208-.002-.365.042-.472-.171-1.621-.655-2.432-1.45-2.432-.83 0-1.34 1.072-1.534 3.216v.328c0 .624-.005.936-.016.936zm6 4.044v-.304c.386-.192.733-1.642 1.042-4.351-.071-.093-.107-.367-.107-.821 0-.066-.006-.156-.018-.271l.018-.386v-2.012h-.73c0-.213-.033-.372-.098-.476 0-.575.312-.862.935-.862.143-.027.273-.041.392-.041.202 0 .383.036.544.107.207.487.311.944.311 1.37.677-.831 1.473-1.247 2.388-1.247h.107c.885 0 1.473.32 1.764.96a7.922 7.922 0 0 1 .623 3.063l-.009.057.01.132v1.346c0 .263.005.613.017 1.051.012.104.006.219-.018.345 0 .985.277 1.478.829 1.478v.09c-.226.706-.398 1.06-.517 1.06h-.73c-.582 0-.998-.513-1.248-1.536l.01-.501.097-.55-.009-.115a.197.197 0 0 1 .01-.172l-.108-.961v-1.15c0-.514.01-1.121.027-1.822-.243-.827-.564-1.24-.962-1.24-.831.071-1.455.517-1.87 1.338l-.206.674v1.05c0 .066.006.13.018.19l-.018.098c0 2.846-.38 4.474-1.14 4.885h-.107c-.831-.11-1.247-.268-1.247-.476zm9-3.052l.188-.099h.383c.697.126 1.045.447 1.045.963 0 .959.351 1.439 1.053 1.439.811 0 1.445-.609 1.902-1.826l.017-.18-.017-.198c-.468-.9-1.358-1.349-2.67-1.349h-.056c-.915 0-1.372-.672-1.372-2.015a8.108 8.108 0 0 1 .572-2.302c.125-.16.285-.346.481-.56l.907-.345h.106c1.763 0 2.759.397 2.987 1.192.126.253.188.606.188 1.061v.477h-.098a1.25 1.25 0 0 1-.139.008c-.636 0-1.066-.323-1.29-.97-.037-.17-.195-.329-.473-.477h-.67c-.696.055-1.044.535-1.044 1.44v.575c.141.499.68.787 1.616.863 1.225.428 1.924.94 2.098 1.538.109.143.204.527.286 1.152-.033.877-.324 1.578-.874 2.105-.13.236-.538.518-1.224.847-.245.126-.593.189-1.045.189l-1.33-.074c-.953-.329-1.43-.968-1.43-1.916l-.032-.066.033-.131v-.379zm11.555 3.106c.514-.597.77-1.467.77-2.611l.034-.042c.044-.033.033-.05-.033-.05.06-.812.09-1.318.09-1.517v-.041a3.976 3.976 0 0 1-.016-.39v-1.351c0-.144.006-.249.017-.315.055-.11.05-.166-.017-.166.011-.774.047-1.16.108-1.16l-.008-.2v-2.703c0-.309.03-.632.09-.97a3.565 3.565 0 0 1-.09-.87v-.97a.59.59 0 0 0-.067-.398l-.09-.514c-.106-.166-.313-.28-.623-.34a.827.827 0 0 1-.09-.39v-.1c0-.193.29-.353.87-.48h.87c.426.166.683 1.1.771 2.802v1.26c0 .144.006.274.017.39.016.183.025.329.025.44 0 .165-.02.248-.058.248l.016.274-.1.68c0 .066.028.163.084.29v.688c.033 0 .425-.133 1.177-.398h1.061c.885 0 1.595.614 2.13 1.84l.1 1.161v2.032c-.038 2.11-.492 3.335-1.36 3.672-.005.15-.519.246-1.541.29-.244 0-.857-.193-1.84-.58-.288.901-.708 1.352-1.261 1.352-.669-.398-1.014-.686-1.036-.863zm2.379-2.545c.166.404.332.62.497.647l.191.149c.453.326.97.49 1.55.49.58 0 .871-.614.871-1.841.066 0 .1-.42.1-1.26v-.29a.349.349 0 0 0-.034-.158l.034-.133v-.19c0-1.548-.29-2.322-.871-2.322-.387 0-.641-.006-.763-.017l-.19.034a1.183 1.183 0 0 1-.299.058c0 .06-.293.196-.879.406-.127.669-.19 1.862-.19 3.581v.58c.055.178.05.266-.017.266zm5.82 7.669c.26-.453.42-.68.48-.68h.291c.464.32.82.481 1.07.481h.19c.851 0 1.465-1.385 1.84-4.154-1.293 0-2.1-.743-2.42-2.23-.514-1.675-.837-3.092-.97-4.253-.05 0-.21-.774-.48-2.321v-.68c.021-.127.085-.191.19-.191h.489c.58 0 .87.58.87 1.741.194.697.418 1.727.672 3.093.542 2.067 1.025 3.1 1.45 3.1l.49.091v-.09c.193-1.758.332-2.994.415-3.707.044-.237.066-.39.066-.456.492-2.448.879-3.672 1.16-3.672l.58-.29c.841.149 1.261.372 1.261.67v.1c-.763 0-1.473 2.805-2.13 8.415-.747 3.472-1.333 5.4-1.758 5.787-.266.37-1 .603-2.206.697l-.87-.49-.68-.48zm0 0" fill="#FBED91"/><g><path d="M0 269c0-16.569 13.45-30 30.043-30s30.044 13.431 30.044 30c0 16.569-13.451 30-30.044 30C13.451 299 0 285.569 0 269zm0 0" fill="#0DADEA"/><path d="M13.404 258.128l12.29-1.691v11.872H13.404v-10.181zm12.29 11.7v11.737l-12.288-1.688v-10.049h12.287zm1.359-13.578L43.404 254v14.309H27.053V256.25zm16.351 13.578V284l-16.351-2.248v-11.924h16.351zm0 0" fill="#FFF"/><path d="M60.087 269c0 16.569-13.451 30-30.044 30a29.934 29.934 0 0 1-16.639-5.017l34.425-49.164c7.434 5.462 12.258 14.259 12.258 24.181zm0 0" fill-opacity=".08" fill="#000"/><path d="M79.114 269c0-16.569 13.451-30 30.044-30 16.592 0 30.043 13.431 30.043 30 0 16.569-13.451 30-30.043 30-16.593 0-30.044-13.431-30.044-30zm0 0" fill="#333"/><path d="M117.202 268.476c.04 4.538 3.91 6.048 3.956 6.069-.035.105-.62 2.152-2.042 4.266-1.23 1.828-2.502 3.647-4.51 3.685-1.975.038-2.61-1.191-4.866-1.191s-2.962 1.153-4.829 1.23c-1.938.072-3.414-1.975-4.652-3.797-2.533-3.723-4.467-10.524-1.867-15.115 1.288-2.28 3.594-3.723 6.096-3.761 1.904-.036 3.701 1.305 4.863 1.305 1.165 0 3.348-1.612 5.644-1.376.96.041 3.658.395 5.39 2.973-.139.09-3.22 1.913-3.183 5.712zm-3.71-11.15c-1.03 1.268-2.72 2.255-4.373 2.124-.224-1.723.611-3.518 1.565-4.642 1.063-1.267 2.86-2.21 4.34-2.272.19 1.758-.504 3.52-1.533 4.79zm0 0" fill="#FFF"/><path d="M139.2 269c0 16.569-13.45 30-30.042 30a29.934 29.934 0 0 1-16.64-5.017l34.425-49.164c7.434 5.462 12.258 14.259 12.258 24.181zm0 0" fill-opacity=".08" fill="#000"/><path d="M158.228 269c0-16.569 13.451-30 30.044-30 16.592 0 30.043 13.431 30.043 30 0 16.569-13.45 30-30.043 30s-30.044-13.431-30.044-30zm0 0" fill="#FFF"/><path d="M193.622 270.638L206 259v20.576zM172 259l12.377 11.637-12.377 8.94zm17 15.984l2.955-2.777L206 281h-34l14.045-8.793zM204.98 259L189 271.455 173.02 259zm0 0" fill="#333"/><path d="M218.315 269c0 16.569-13.45 30-30.043 30a29.934 29.934 0 0 1-16.64-5.017l34.425-49.164c7.434 5.462 12.258 14.259 12.258 24.181zm0 0" fill-opacity=".08" fill="#000"/><g><path d="M237.342 269c0-16.569 13.451-30 30.044-30 16.592 0 30.043 13.431 30.043 30 0 16.569-13.45 30-30.043 30s-30.044-13.431-30.044-30zm0 0" fill="#80A34C"/><path d="M278.852 258.519c-1.08-.618-2.804.376-3.851 2.22l-1.896 3.342c-.693 1.389-.598 3.044.279 4.319l.055.08c.879 1.28 2.057 2.456 2.447 2.88.229.246.404.55.5.902.32 1.16-.349 2.363-1.494 2.688a2.15 2.15 0 0 1-2.653-1.513 2.197 2.197 0 0 1-.062-.866c.061-.48-.09-1.26-.77-2.026-.677-.766-2.064.68-2.512 2.169l-.02.067c-.45 1.488-.732 2.787-.648 2.912.05.074.096.156.14.234a2.48 2.48 0 0 1-1.004 3.326 2.412 2.412 0 0 1-3.282-1.016 2.474 2.474 0 0 1 1.165-3.403c.09-.04.347-.666.57-1.405l.402-1.338a4.42 4.42 0 0 0 .064-.234l1.197-4.331-1.28 2.663c-.153-.506-.404-.524-.953-.125-.332.24-.88.713-1.148.908-.503.364-.923 1.072-1.146 1.505a2.147 2.147 0 0 1-.55.681 2.12 2.12 0 0 1-3.007-.317 2.185 2.185 0 0 1 .313-3.046c.269-.221.575-.365.891-.435.54-.119 2.371-1.252 3.475-2.052.198-.144.364-.28.499-.405l2.948-2.267-2.568 1.405s-.26-.027-.581.007c-.94.106-1.907.24-2.09.476a1.896 1.896 0 0 1-3.055-.065 1.953 1.953 0 0 1 .434-2.704 1.886 1.886 0 0 1 1.168-.364c.687.022 2.498.387 4.005.119l.388-.07c1.513-.271 3.324-1.605 4.046-2.979l1.578-2.808c.872-1.55.807-3.249-.144-3.793l-1.722-.986c-.868-.498-2.29-.499-3.16-.002l-11.853 6.769c-.87.496-1.581 1.73-1.581 2.74v13.233c0 1.012.713 2.247 1.58 2.74l11.86 6.772c.87.499 2.292.499 3.16-.002l11.82-6.767c.869-.498 1.58-1.732 1.58-2.743v-13.233c0-1.01-.711-2.245-1.58-2.742.001.002-.875-.504-1.955-1.12zm0 0" fill="#FFF"/><path d="M297.43 269c0 16.569-13.452 30-30.044 30a29.934 29.934 0 0 1-16.639-5.017l34.425-49.164c7.433 5.462 12.257 14.259 12.257 24.181zm0 0" fill-opacity=".08" fill="#000"/></g><g><path d="M316.457 269c0-16.569 13.45-30 30.043-30 16.592 0 30.043 13.431 30.043 30 0 16.569-13.45 30-30.043 30-16.592 0-30.043-13.431-30.043-30zm0 0" fill="#0868AC"/><path d="M343.22 256.77c-1.278 2.166-1.437 4.834-.7 7.211.704 2.292 2.184 4.313 4.05 5.793l.121.095c.176.134.354.267.537.393.084.058.17.115.257.171.04.027.08.055.12.08.131.084.263.165.397.244.026.016.053.03.079.045.108.063.218.125.328.185l.15.078c.086.044.172.09.26.132.17.085.342.165.517.242.037.017.076.032.114.048.14.06.28.116.423.171a11.386 11.386 0 0 0 .57.202 12.22 12.22 0 0 0 .73.218c4.266 1.11 8.263-.312 10.327-3.295 0 0-2.29 7.662-12.208 6.013-.192-.032-.375-.104-.56-.162l-.174-.056c-.13-.044-.26-.088-.387-.135l-.18-.067a13.255 13.255 0 0 1-.423-.171c-.037-.016-.076-.03-.113-.047a12.628 12.628 0 0 1-.514-.24c-.121-.06-.203-.103-.284-.146-.042-.022-.084-.042-.126-.066a14.8 14.8 0 0 1-.352-.197 10.914 10.914 0 0 1-.455-.278c-.04-.024-.077-.051-.117-.077-.082-.054-.164-.106-.245-.163-.2-.138-.378-.27-.554-.406l-.116-.09c-.175-.14-.348-.281-.515-.428a12.89 12.89 0 0 1-.462-.43l-.114-.113a11.685 11.685 0 0 1-.43-.448c-.383-.333-.702-.826-.99-1.24a12.28 12.28 0 0 1-.849-1.422c-1.498-2.934-1.603-6.647.318-9.42m-6.172.588c-2.338 4.537-1.287 10.06 1.639 14.065a19.625 19.625 0 0 0 .427.563 17.12 17.12 0 0 0 1.177 1.344l.123.123a13.78 13.78 0 0 0 .437.427c.143.135.288.268.436.398a23.898 23.898 0 0 0 .61.51 18.426 18.426 0 0 0 .866.653c.042.029.083.06.126.089.128.089.26.175.39.26.05.033.098.068.149.1.18.114.363.228.549.337l.142.08c.14.08.28.16.422.237.077.043.156.082.234.123.117.06.234.122.352.18l.132.063c.15.073.302.143.455.212l.107.048c.178.078.358.153.54.225l.14.055a17.741 17.741 0 0 0 1.29.444c.195.058.388.12.588.165 5.27 1.203 10.833.123 13.967-3.974 0 0-3.731 10.096-16.577 7.746-.202-.038-.396-.109-.592-.168l-.138-.041a17.59 17.59 0 0 1-1.83-.682l-.1-.044c-.156-.07-.312-.143-.466-.217l-.12-.059c-.169-.083-.266-.135-.364-.186-.076-.04-.153-.078-.228-.118a18.393 18.393 0 0 1-.412-.232c-.05-.03-.101-.057-.151-.086-.186-.11-.369-.223-.55-.337l-.151-.102c-.118-.076-.235-.153-.35-.232l-.168-.12a17.995 17.995 0 0 1-.533-.391 18.323 18.323 0 0 1-.322-.252l-.16-.128c-.13-.108-.259-.217-.386-.327l-.074-.064c-.15-.132-.291-.261-.43-.393l-.128-.121a17.606 17.606 0 0 1-2.014-2.306l-.055-.074c-.121-.168-.23-.326-.335-.484-.033-.049-.064-.099-.096-.149a15.393 15.393 0 0 1-.225-.352l-.11-.183c-.066-.11-.13-.222-.194-.333-.036-.064-.071-.125-.106-.19l-.059-.105c-.033-.06-.063-.123-.095-.184-.05-.096-.1-.192-.148-.29-2.03-4.07-2.36-9.054.296-12.884m16.027-6.811c-1.566 2.84-.075 6.326 2.326 8.154a7.969 7.969 0 0 0 2.122 1.15c.205.072.438.148.65.2 2.682.654 4.869.202 6.17-1.677-.395.57-1.88 4.452-7.357 3.39-.12-.022-.236-.065-.353-.102-.037-.01-.072-.023-.109-.034-.083-.028-.164-.055-.246-.086-1.982-.729-3.68-2.267-4.508-4.227-.786-1.847-.675-3.924.458-5.596" fill="#FFF"/><path d="M376.543 269c0 16.569-13.45 30-30.043 30a29.934 29.934 0 0 1-16.639-5.017l34.425-49.164c7.433 5.462 12.257 14.259 12.257 24.181zm0 0" fill-opacity=".08" fill="#000"/></g><g><path d="M395.57 269c0-16.569 13.452-30 30.044-30 16.593 0 30.044 13.431 30.044 30 0 16.569-13.451 30-30.044 30-16.592 0-30.043-13.431-30.043-30zm0 0" fill="#1EBBEE"/><path d="M438.812 263.544c4.583-10.563-4.911-9.015-5.44-8.91a23.84 23.84 0 0 0-5.589 1.86 13.342 13.342 0 0 0-.764-.023c-6.406 0-11.768 4.55-13.14 10.65 3.376-3.858 5.738-5.414 7.154-6.037-.226.206-.447.413-.665.623l-.214.21c-.143.14-.286.281-.426.423-.083.084-.164.17-.246.254-.124.129-.247.257-.369.387l-.254.275a33.957 33.957 0 0 0-1.439 1.668 39.601 39.601 0 0 0-.51.642c-.084.108-.168.215-.25.323-.078.102-.154.204-.23.306-.086.115-.173.23-.257.345l-.176.245a42.621 42.621 0 0 0-2.913 4.645c-1.214 2.24-1.805 3.806-1.83 3.9-3.835 13.957 8.132 8.063 9.801 7.183a13.229 13.229 0 0 0 5.964 1.414c5.862 0 10.85-3.81 12.706-9.131h-7.084c-1.048 1.803-3.066 3.024-5.384 3.024-3.397 0-6.15-2.62-6.15-5.853h19.282a14.11 14.11 0 0 0 .111-1.768 13.86 13.86 0 0 0-1.688-6.655zm-.337-.583a13.587 13.587 0 0 0-6.584-5.565c1.247-.614 4.337-1.911 6.09-.706 1.162.798 2.093 2.051.494 6.27zm-24.191 11.75a13.717 13.717 0 0 0 5.87 7.305c-1.35.757-4.936 2.461-6.844.469-.945-.987-1.113-3.392.974-7.775zm12.885-12.155c3.3 0 5.985 2.515 6.093 5.657h-12.185c.108-3.142 2.793-5.657 6.092-5.657zm0 0" fill="#FFF"/><path d="M455.658 269c0 16.569-13.451 30-30.044 30a29.934 29.934 0 0 1-16.639-5.017l34.425-49.164c7.434 5.462 12.258 14.259 12.258 24.181zm0 0" fill-opacity=".08" fill="#000"/></g><g><path d="M474.685 269c0-16.569 13.45-30 30.043-30s30.044 13.431 30.044 30c0 16.569-13.451 30-30.044 30-16.592 0-30.043-13.431-30.043-30zm0 0" fill="#FFF"/><path d="M499.59 269.567c0-3.074 2.432-5.574 5.42-5.574s5.419 2.5 5.419 5.574c0 3.072-2.431 5.572-5.42 5.572-2.987 0-5.418-2.5-5.418-5.572zm0 0" fill="#125F98"/><path d="M504.926 276.557a6.8 6.8 0 0 1-4.39-1.624 7.108 7.108 0 0 1-2.158-3.235l-5.975-10.645c-2.145 3.393-2.906 7.44-2.143 11.419.778 4.053 3.044 7.551 6.38 9.852a14.709 14.709 0 0 0 5.725 2.376l4.928-8.57a6.721 6.721 0 0 1-2.367.427zm0 0" fill="#44A643"/><path d="M498.216 255.572a15.255 15.255 0 0 0-5.011 4.121l5.045 8.987c.327-2.61 2.084-4.918 4.686-5.76a6.614 6.614 0 0 1 1.938-.32h13.683c-3.73-7.717-12.836-10.864-20.34-7.028zm0 0" fill="#D11F24"/><path d="M515.137 280.832c2.803-2.66 4.505-6.281 4.793-10.195a15.97 15.97 0 0 0-.935-6.644h-9.867c1.66 1.352 2.634 3.417 2.624 5.606a7.27 7.27 0 0 1-1.484 4.368l-6.29 10.938c.324.022.65.032.972.032 3.781 0 7.4-1.458 10.187-4.105zm0 0" fill="#F4CB08"/><path d="M534.772 269c0 16.569-13.451 30-30.044 30a29.934 29.934 0 0 1-16.639-5.017l34.425-49.164c7.434 5.462 12.258 14.259 12.258 24.181zm0 0" fill-opacity=".08" fill="#000"/></g><g><path d="M553.8 269c0-16.569 13.45-30 30.042-30 16.593 0 30.044 13.431 30.044 30 0 16.569-13.451 30-30.044 30-16.592 0-30.043-13.431-30.043-30zm0 0" fill="#A4C639"/><path d="M574.297 262.437c0-3.227 1.813-6.056 4.534-7.636l-1.509-2.77a.7.7 0 0 1 .266-.944.675.675 0 0 1 .927.27l1.546 2.84a10.04 10.04 0 0 1 3.781-.73c1.344 0 2.622.26 3.782.73l1.546-2.84a.675.675 0 0 1 .927-.27.7.7 0 0 1 .265.944l-1.508 2.77a9.318 9.318 0 0 1 3.197 3.054 8.526 8.526 0 0 1 1.337 4.689v.082h-19.091v-.082a2.44 2.44 0 0 1 0-.107zm19.09 14.845c0 1.297-1.032 2.35-2.307 2.35h-1.154v4.805c0 1.415-1.127 2.563-2.517 2.563s-2.518-1.148-2.518-2.563v-4.806h-2.098v4.806c0 1.415-1.127 2.563-2.517 2.563s-2.517-1.148-2.517-2.563v-4.806h-1.154c-1.275 0-2.308-1.052-2.308-2.35v-14.285h19.09v14.286zM573.878 265v9.078c0 1.415-1.127 2.563-2.517 2.563s-2.518-1.148-2.518-2.563V265c0-1.415 1.128-2.563 2.518-2.563s2.517 1.148 2.517 2.563zm5.98-6.941a.423.423 0 0 0-.42-.428.423.423 0 0 0-.42.428c0 .235.188.427.42.427.232 0 .42-.192.42-.427zM598.841 265v9.078c0 1.415-1.127 2.563-2.517 2.563s-2.518-1.148-2.518-2.563V265c0-1.415 1.128-2.563 2.518-2.563s2.517 1.148 2.517 2.563zm-10.174-6.941a.423.423 0 0 0-.42-.428.423.423 0 0 0-.42.428c0 .235.188.427.42.427.232 0 .42-.192.42-.427zm0 0" fill="#FFF"/><path d="M613.886 269c0 16.569-13.451 30-30.044 30a29.934 29.934 0 0 1-16.638-5.017l34.424-49.164c7.434 5.462 12.258 14.259 12.258 24.181zm0 0" fill-opacity=".08" fill="#000"/></g><g><path d="M632.913 269c0-16.569 13.451-30 30.044-30C679.549 239 693 252.431 693 269c0 16.569-13.45 30-30.043 30s-30.044-13.431-30.044-30zm0 0" fill="#1F60AA"/><path d="M661.412 251.822c.13-.258.204-.552.204-.864 0-1.036-.808-1.876-1.805-1.876-.996 0-1.805.84-1.805 1.876 0 .58.254 1.1.653 1.444-7.267 2.18-12.58 9.147-12.58 17.403 0 10.004 7.799 18.113 17.42 18.113 9.622 0 17.422-8.109 17.422-18.113 0-10.003-7.8-18.113-17.421-18.113-.707 0-1.403.045-2.088.13zm-.502-.88a1.09 1.09 0 0 1-1.099 1.082 1.09 1.09 0 0 1-1.098-1.082 1.09 1.09 0 0 1 1.098-1.082 1.09 1.09 0 0 1 1.099 1.082zm-11.536 18.863c0-8.11 6.324-14.686 14.126-14.686 7.8 0 14.125 6.575 14.125 14.686s-6.324 14.687-14.125 14.687c-7.802 0-14.126-6.576-14.126-14.687zm0 0" fill="#FFF"/><path d="M666.826 267.961c-.039-.07-.082-.147-.128-.224l4.464-6.708-6.001 5.261a3.635 3.635 0 0 0-1.134-.362l-1.722-4.112-.415 4.448a3.771 3.771 0 0 0-1.004.723l-1.716-.768 1.102 1.568c-.259.446-.434.95-.504 1.489l-3.913 1.772 4.237.426c.062.138.132.271.21.4l-4.464 6.708 5.99-5.267c.406.21.854.345 1.327.39l1.696 4.049.419-4.491c.318-.177.61-.4.865-.66l1.748.781-1.13-1.606a4 4 0 0 0 .496-1.596l3.935-1.782-4.358-.439zm-3.326-1.582c.447 0 .873.093 1.262.26l-2.347 2.058-1.818 2.732a3.52 3.52 0 0 1-.393-1.624c0-1.892 1.475-3.426 3.296-3.426zm-1.275 6.587l2.396-2.107 1.781-2.677c.251.483.394 1.036.394 1.623 0 1.893-1.476 3.427-3.296 3.427-.452 0-.883-.095-1.275-.266zm0 0" fill="#FFF"/><path d="M693 269c0 16.569-13.45 30-30.043 30a29.934 29.934 0 0 1-16.64-5.017l34.425-49.164C688.176 250.281 693 259.078 693 269zm0 0" fill-opacity=".08" fill="#000"/></g><g><path d="M0 190c0-16.569 13.45-30 30.043-30s30.044 13.431 30.044 30c0 16.569-13.451 30-30.044 30C13.451 220 0 206.569 0 190zm0 0" fill="#FD6007"/><path d="M17 185.719v9.566C17 200.1 20.933 204 25.78 204h9.45c4.85 0 8.77-3.9 8.77-8.715v-6.18c0-.963-.776-1.744-1.746-1.744h-1.482c-.958 0-1.713-.718-1.777-1.621-.01-4.838-3.94-8.74-8.79-8.74H25.78c-4.847 0-8.777 3.902-8.78 8.719zm14.217-1.355c.957 0 1.738.823 1.738 1.84 0 1.015-.78 1.841-1.738 1.841H26.1c-.957 0-1.737-.826-1.737-1.84 0-1.018.78-1.841 1.737-1.841h5.116zm5.005 8.59c.904 0 1.642.818 1.642 1.833 0 1.016-.738 1.85-1.642 1.85H25.995c-.904 0-1.631-.834-1.631-1.85 0-1.015.727-1.832 1.63-1.832h10.228zm0 0" fill="#FFF"/><path d="M60.087 190c0 16.569-13.451 30-30.044 30a29.934 29.934 0 0 1-16.639-5.017l34.425-49.164c7.434 5.462 12.258 14.259 12.258 24.181zm0 0" fill-opacity=".08" fill="#000"/><path d="M79.114 190c0-16.569 13.451-30 30.044-30 16.592 0 30.043 13.431 30.043 30 0 16.569-13.451 30-30.043 30-16.593 0-30.044-13.431-30.044-30zm0 0" fill="#0B6DBB"/><path d="M100.027 181.013l-.873 4.447h17.767l-.555 2.872H98.587l-.86 4.446h17.765l-.99 5.07-7.16 2.416-6.206-2.416.424-2.2h-4.364l-1.038 5.338 10.263 4 11.832-4 1.57-8.028.318-1.61 2.017-10.335h-22.131zm0 0" fill="#FFF"/><path d="M139.2 190c0 16.569-13.45 30-30.042 30a29.934 29.934 0 0 1-16.64-5.017l34.425-49.164c7.434 5.462 12.258 14.259 12.258 24.181zm0 0" fill-opacity=".08" fill="#000"/><path d="M158.228 190c0-16.569 13.451-30 30.044-30 16.592 0 30.043 13.431 30.043 30 0 16.569-13.45 30-30.043 30s-30.044-13.431-30.044-30zm0 0" fill="#E24628"/><path d="M177.865 204l10.619 3 10.646-3.004L201.5 177h-26l2.365 27zm6.03-18.17l.297 3.392h11.863l-.894 10.166-6.662 1.88-6.682-1.88-.456-5.2h3.268l.232 2.643 3.624.994 3.634-.998.377-4.294h-11.28l-.879-10.013h16.305l-.292 3.31h-12.455zm0 0" fill="#FFF"/><path d="M218.315 190c0 16.569-13.45 30-30.043 30a29.934 29.934 0 0 1-16.64-5.017l34.425-49.164c7.434 5.462 12.258 14.259 12.258 24.181zm0 0" fill-opacity=".08" fill="#000"/><g><path d="M237.342 190c0-16.569 13.451-30 30.044-30 16.592 0 30.043 13.431 30.043 30 0 16.569-13.45 30-30.043 30s-30.044-13.431-30.044-30zm0 0" fill="#FFF"/><path d="M267 177h-8.666a4.347 4.347 0 0 0-4.334 4.334v17.332a4.346 4.346 0 0 0 4.334 4.334h17.334a4.344 4.344 0 0 0 4.332-4.334v-17.332a4.345 4.345 0 0 0-4.332-4.334H267zm8.668 24.7H267V190h-11.7v-8.666a3.037 3.037 0 0 1 3.034-3.034H267V190h11.7v8.666a3.036 3.036 0 0 1-3.032 3.034zm0 0" fill="#333"/><path d="M297.43 190c0 16.569-13.452 30-30.044 30a29.934 29.934 0 0 1-16.639-5.017l34.425-49.164c7.433 5.462 12.257 14.259 12.257 24.181zm0 0" fill-opacity=".08" fill="#000"/></g><g><path d="M316.457 190c0-16.569 13.45-30 30.043-30 16.592 0 30.043 13.431 30.043 30 0 16.569-13.45 30-30.043 30-16.592 0-30.043-13.431-30.043-30zm0 0" fill="#993E9F"/><path d="M332.582 195.734l6.197-5.821v13.325a15.43 15.43 0 0 1-6.197-7.504zm20.1-9.511l-11.421-10.707c1.69-.66 3.448-1.016 5.237-1.016 2.15 0 4.224.474 6.184 1.39v10.333zm-7.342-4.68l-13.295 12.483c-.35-1.34-.545-2.692-.545-4.026 0-5.846 3.127-11.106 8.163-13.78l5.677 5.323zm-4.986 15.194h19.614c-2.497 5.323-7.75 8.763-13.47 8.763-2.13 0-4.194-.461-6.144-1.371v-7.392zM361.5 190c0 1.739-.296 3.453-.856 5.104h-6.382v-18.323c4.464 2.805 7.238 7.834 7.238 13.22zm0 0" fill="#FFF"/><path d="M376.543 190c0 16.569-13.45 30-30.043 30a29.934 29.934 0 0 1-16.639-5.017l34.425-49.164c7.433 5.462 12.257 14.259 12.257 24.181zm0 0" fill-opacity=".08" fill="#000"/></g><g><path d="M395.57 190c0-16.569 13.452-30 30.044-30 16.593 0 30.044 13.431 30.044 30 0 16.569-13.451 30-30.044 30-16.592 0-30.043-13.431-30.043-30zm0 0" fill="#E00024"/><path d="M436.988 200.38c-3.645-.015-5.588-1.81-6.938-4.973l-.386-.863-3.328-7.64c-1.104-2.704-3.843-4.53-6.933-4.53-4.181 0-7.574 3.415-7.574 7.628 0 4.212 3.393 7.628 7.574 7.628 2.917 0 5.453-1.66 6.72-4.095l1.345 3.125a10.377 10.377 0 0 1-8.065 3.84c-5.76 0-10.428-4.697-10.428-10.498 0-5.799 4.669-10.502 10.428-10.502 4.346 0 7.856 2.337 9.639 6.478.135.321 1.885 4.442 3.412 7.95.945 2.17 1.752 3.61 4.366 3.699 2.57.089 4.333-1.486 4.333-3.476 0-1.945-1.345-2.412-3.615-3.172-4.08-1.353-6.186-2.713-6.186-5.97 0-3.178 2.147-5.297 5.636-5.297 2.273 0 3.914 1.018 5.05 3.049l-2.23 1.147c-.84-1.185-1.767-1.652-2.945-1.652-1.638 0-2.807 1.147-2.807 2.672 0 2.166 1.924 2.493 4.614 3.381 3.622 1.188 5.305 2.544 5.305 5.93 0 3.557-3.03 6.146-6.987 6.14zm0 0" fill="#FFF"/><path d="M455.658 190c0 16.569-13.451 30-30.044 30a29.934 29.934 0 0 1-16.639-5.017l34.425-49.164c7.434 5.462 12.258 14.259 12.258 24.181zm0 0" fill-opacity=".08" fill="#000"/></g><g><path d="M474.685 190c0-16.569 13.45-30 30.043-30s30.044 13.431 30.044 30c0 16.569-13.451 30-30.044 30-16.592 0-30.043-13.431-30.043-30zm0 0" fill="#FFF"/><path d="M524.728 189.59c0-2.615-2.047-4.743-4.563-4.743a4.442 4.442 0 0 0-2.978 1.154c-3.098-2.09-7.108-3.31-11.4-3.484l2.267-7.687 6.597 1.535c0 .019-.003.037-.003.055 0 2.162 1.692 3.92 3.771 3.92 2.08 0 3.77-1.758 3.77-3.92 0-2.161-1.69-3.92-3.77-3.92-1.563 0-2.906.993-3.477 2.404l-7.222-1.68a.715.715 0 0 0-.843.509l-2.586 8.768c-4.525.075-8.774 1.31-12.022 3.5a4.442 4.442 0 0 0-2.978-1.154c-2.516 0-4.563 2.128-4.563 4.744 0 1.716.88 3.221 2.197 4.055a9.049 9.049 0 0 0-.103 1.35c0 3.4 1.903 6.575 5.358 8.937 3.362 2.3 7.818 3.567 12.548 3.567s9.186-1.267 12.549-3.567c3.455-2.363 5.357-5.537 5.357-8.936a9.03 9.03 0 0 0-.102-1.351c1.316-.834 2.196-2.34 2.196-4.055zm-6.31-15.598c1.289 0 2.336 1.09 2.336 2.428 0 1.34-1.047 2.429-2.335 2.429s-2.336-1.09-2.336-2.429c0-1.339 1.048-2.428 2.336-2.428zm-32.255 15.599c0-1.793 1.403-3.252 3.128-3.252.653 0 1.26.21 1.761.567-1.836 1.509-3.112 3.28-3.753 5.19a3.298 3.298 0 0 1-1.136-2.505zm18.565 16.417c-9.082 0-16.47-4.94-16.47-11.012a7.614 7.614 0 0 1 .342-2.237c.55-1.78 1.747-3.403 3.417-4.757.37-.301.765-.588 1.18-.86 2.974-1.951 7.045-3.156 11.531-3.156 4.486 0 8.558 1.205 11.53 3.156.416.272.81.56 1.181.86 1.67 1.353 2.867 2.978 3.418 4.758a7.602 7.602 0 0 1 .342 2.236c0 6.072-7.389 11.012-16.47 11.012zm17.43-13.912c-.642-1.91-1.917-3.681-3.754-5.19a3.028 3.028 0 0 1 1.761-.567c1.725 0 3.128 1.459 3.128 3.252a3.298 3.298 0 0 1-1.136 2.505zm-11.963 7.672c-1.36 1.16-3.046 1.676-5.467 1.676-2.42 0-4.107-.517-5.467-1.676a.734.734 0 0 0-1.06.11.805.805 0 0 0 .105 1.102c1.626 1.385 3.666 2.03 6.422 2.03s4.797-.645 6.422-2.03a.805.805 0 0 0 .105-1.103.734.734 0 0 0-1.06-.109zm0 0" fill="#333"/><path d="M501.456 192.763c0-1.559-1.215-2.822-2.713-2.822-1.5 0-2.715 1.263-2.715 2.822 0 1.558 1.216 2.821 2.715 2.821 1.498 0 2.713-1.263 2.713-2.821zm0 0M510.842 189.941c-1.499 0-2.714 1.263-2.714 2.822 0 1.558 1.215 2.821 2.714 2.821 1.5 0 2.714-1.263 2.714-2.821 0-1.559-1.215-2.822-2.714-2.822zm0 0" fill="#FC3A06"/><path d="M534.772 190c0 16.569-13.451 30-30.044 30a29.934 29.934 0 0 1-16.639-5.017l34.425-49.164c7.434 5.462 12.258 14.259 12.258 24.181zm0 0" fill-opacity=".08" fill="#000"/></g><g><path d="M553.8 190c0-16.569 13.45-30 30.042-30 16.593 0 30.044 13.431 30.044 30 0 16.569-13.451 30-30.044 30-16.592 0-30.043-13.431-30.043-30zm0 0" fill="#FD6312"/><path d="M566.04 191.667c-.075 0-.136.064-.145.154l-.267 2.174.267 2.137c.01.09.07.153.146.153.073 0 .133-.063.145-.152l.316-2.138-.316-2.175c-.011-.09-.072-.153-.145-.153zm2.147-1.346c-.077 0-.141.067-.152.158l-.358 3.516.358 3.437c.01.093.074.16.152.16.076 0 .139-.066.151-.159l.408-3.438-.407-3.516c-.013-.093-.075-.158-.152-.158zm2.075-.837c-.113 0-.205.097-.214.227l-.322 4.285.322 4.146c.008.129.1.226.214.226.111 0 .203-.098.213-.226l.365-4.146-.365-4.286c-.01-.129-.102-.226-.213-.226zm2.061.278c-.131 0-.236.111-.245.259l-.302 3.975.302 4.18c.01.148.114.26.245.26.13 0 .235-.112.245-.26l.344-4.18-.344-3.977c-.01-.147-.115-.257-.245-.257zm2.063-2.526c-.147 0-.269.13-.276.294l-.285 6.468.285 4.18a.307.307 0 0 0 .294.292c.147 0 .295-.13.295-.293v.001l.304-4.18-.332-6.468c-.009-.164-.14-.294-.285-.294zm2.062-1.51c-.166 0-.3.143-.308.326l-.266 7.947.267 4.154c.007.181.141.325.307.325.163 0 .299-.144.306-.327l.301-4.152-.3-7.947c-.009-.184-.144-.327-.307-.327zm2.074-1.021c-.202 0-.364.173-.37.394l-.229 8.9.23 4.086a.415.415 0 0 0 .404.392c.2 0 .404-.173.404-.393l.223-4.084-.276-8.9a.402.402 0 0 0-.386-.395zm2.075.478c-.237 0-.427.202-.432.462l-.192 8.357.192 4.02c.005.257.2.46.437.46a.449.449 0 0 0 .436-.462v.003l.211-4.02-.219-8.359c-.005-.259-.196-.461-.433-.461zm2.12-2.555c-.268 0-.49.238-.493.53l-.202 10.846.202 3.936a.536.536 0 0 0 .518.525.535.535 0 0 0 .518-.53v.005l.195-3.936-.232-10.848c-.004-.29-.237-.528-.505-.528zm14.859 6.241c-.614 0-1.2.134-1.733.374-.357-4.34-3.743-7.743-7.874-7.743-1.01 0-1.991.214-2.862.575-.338.14-.426.286-.426.566v15.282c0 .295.211.54.479.569l12.417.008c2.475 0 4.48-2.156 4.48-4.815 0-2.66-2.007-4.816-4.481-4.816zm0 0" fill="#FFF"/><path d="M613.886 190c0 16.569-13.451 30-30.044 30a29.934 29.934 0 0 1-16.638-5.017l34.424-49.164c7.434 5.462 12.258 14.259 12.258 24.181zm0 0" fill-opacity=".08" fill="#000"/></g><g><path d="M632.913 190c0-16.569 13.451-30 30.044-30C679.549 160 693 173.431 693 190c0 16.569-13.45 30-30.043 30s-30.044-13.431-30.044-30zm0 0" fill="#6A026E"/><path d="M678.98 182.027l-1.455 2.231h-2.524c-.327.073-.615.155-.808.196-.858.241-8.693 6.58-9.209 8.134-.114.536.011 5.735.125 6.515.516.119 4.244.014 4.928.133l-.083 1.607c-.67-.053-5.406-.042-8.109-.042-1.373 0-5.788.157-7.143.116l.256-1.531c.743-.057 3.822.14 4.497-.607.337-.372.231-5.318.117-6.154-.285-.893-7.152-9.866-8.946-11.329H646v-2.23h15.575v2.23h-4.68c2.096 3.182 5.101 7.04 6.383 8.892l6.283-5.93h-3.734l-.527-2.23zm-2.879 16.31l1.347.173 1.208.063-.336 2.354-1.145-.09-1.063-.095zm.362-1.58l-.057-10.157c.481.098 4.187.464 4.594.479l-2.44 9.854zm0 0" fill="#FFF"/><path d="M693 190c0 16.569-13.45 30-30.043 30a29.934 29.934 0 0 1-16.64-5.017l34.425-49.164C688.176 171.281 693 180.078 693 190zm0 0" fill-opacity=".08" fill="#000"/></g></g><g><path d="M0 110c0-16.569 13.45-30 30.043-30s30.044 13.431 30.044 30c0 16.569-13.451 30-30.044 30C13.451 140 0 126.569 0 110zm0 0" fill="#444"/><path d="M39.145 126.615l5.915-16.727c.916-2.59 1.766-6.088 1.662-8.905A18.824 18.824 0 0 1 49.007 110c0 7.163-3.986 13.398-9.862 16.615zm-9.102-35.551c4.947 0 9.452 1.893 12.828 4.992-1.654-.044-3.306.938-3.374 3.187-.14 4.548 5.446 5.516 2.436 14.663l-2.49 7.566-6.779-19.941c-.105-.309.018-.484.397-.484h1.917c.1 0 .181-.085.181-.19v-1.133c0-.104-.081-.193-.18-.189-3.63.159-7.239.16-10.825 0-.1-.004-.18.085-.18.19v1.133c0 .104.08.189.18.189h1.927c.429 0 .549.143.65.418l2.786 7.608-4.19 12.634-6.888-20.259c-.086-.253.018-.401.263-.401h2.196c.1 0 .181-.085.181-.189v-1.134c0-.104-.082-.194-.181-.188-2.304.122-4.617.146-6.77.168 3.38-5.2 9.246-8.64 15.915-8.64zm-5.515 37.057l5.843-16.718 6.022 16.444a18.942 18.942 0 0 1-6.35 1.09c-1.918 0-3.77-.286-5.515-.816zm5.515 3.901c-12.178 0-22.054-9.861-22.054-22.022 0-12.16 9.876-22.022 22.054-22.022 12.178 0 22.055 9.861 22.055 22.022 0 12.16-9.877 22.022-22.055 22.022zm-17.26-29.875l9.146 24.971c-6.413-3.037-10.85-9.56-10.85-17.118 0-2.801.61-5.46 1.705-7.853zm17.26 28.566c11.454 0 20.743-9.276 20.743-20.713 0-11.438-9.289-20.713-20.743-20.713C18.59 89.287 9.3 98.562 9.3 110c0 11.437 9.29 20.713 20.743 20.713zm0 0" fill="#FFF"/><path d="M60.087 110c0 16.569-13.451 30-30.044 30a29.934 29.934 0 0 1-16.639-5.017L47.83 85.819c7.434 5.462 12.258 14.259 12.258 24.181zm0 0" fill-opacity=".08" fill="#000"/><path d="M79.114 110c0-16.569 13.451-30 30.044-30 16.592 0 30.043 13.431 30.043 30 0 16.569-13.451 30-30.043 30-16.593 0-30.044-13.431-30.044-30zm0 0" fill="#E18F00"/><path d="M116.421 122.27h-5.118c0-3.325-1.295-6.454-3.641-8.796a12.354 12.354 0 0 0-8.787-3.642v-5.088c9.672 0 17.546 7.862 17.546 17.526zm-10.464-3.513a3.528 3.528 0 0 1-3.543 3.52 3.528 3.528 0 0 1-3.539-3.52 3.541 3.541 0 0 1 7.082 0zm19.492 3.51h-5.11c0-11.828-9.632-21.455-21.464-21.455v-5.09c14.651 0 26.574 11.913 26.574 26.546zm0 0" fill="#FFF"/><path d="M139.2 110c0 16.569-13.45 30-30.042 30a29.934 29.934 0 0 1-16.64-5.017l34.425-49.164c7.434 5.462 12.258 14.259 12.258 24.181zm0 0" fill-opacity=".08" fill="#000"/><path d="M157.114 109.5c0-16.569 13.451-30 30.044-30 16.592 0 30.043 13.431 30.043 30 0 16.569-13.451 30-30.043 30-16.593 0-30.044-13.431-30.044-30zm0 0" fill="#D34836"/><path d="M216.267 102.594h-7.104v7.883h-3.35v-7.883H198v-3.28h7.814V91.5h3.349v7.813h5.965a29.77 29.77 0 0 1 1.14 3.281zm0 0" fill="#FFF"/><path d="M165.368 128.915c.84-1.41 2.142-2.797 4.072-3.937 4.354-2.664 10.218-3.016 13.39-3.217-.982-1.257-2.115-2.589-2.115-4.775 0-1.181.352-1.885.705-2.714-.78.075-1.535.15-2.24.15-7.425 0-11.628-5.528-11.628-10.982 0-3.217 1.485-6.79 4.48-9.377 4.002-3.284 8.759-3.845 12.534-3.845h14.421l-4.48 2.516h-4.329c1.611 1.33 4.958 4.127 4.958 9.45 0 5.177-2.944 7.614-5.864 9.926-.93.905-1.963 1.885-1.963 3.418 0 1.533 1.032 2.388 1.812 3.016l2.517 1.96c3.096 2.564 5.89 4.951 5.89 9.777 0 3.182-1.488 6.376-4.385 8.827a30.292 30.292 0 0 1-4.789.392c2.943-1.289 4.467-3.647 4.467-6.48 0-3.569-2.29-5.454-7.626-9.248-.554-.05-.906-.05-1.61-.05-.63 0-4.405.125-7.35 1.105-1.535.553-6.015 2.237-6.015 7.213 0 .54.058 1.065.17 1.57-7.38-5.466-4.182-4.695-5.022-4.695zM188.97 105.4c0-5.051-2.995-12.875-8.809-12.875-1.812 0-3.775.91-4.907 2.31-1.183 1.468-1.536 3.353-1.536 5.162 0 4.7 2.719 12.465 8.759 12.465 1.737 0 3.624-.854 4.757-1.96 1.61-1.608 1.736-3.845 1.736-5.102zm0 0" fill="#FFF"/><path d="M217.267 109.68c0 16.57-13.45 30-30.043 30a29.934 29.934 0 0 1-16.639-5.017L205.01 85.5c7.433 5.461 12.257 14.258 12.257 24.18zm0 0" fill-opacity=".08" fill="#000"/><g><path d="M237.342 109.5c0-16.569 13.451-30 30.044-30 16.592 0 30.043 13.431 30.043 30 0 16.569-13.45 30-30.043 30s-30.044-13.431-30.044-30zm0 0" fill="#FF0084"/><path d="M259.875 103.5a6.504 6.504 0 0 0-6.51 6.5c0 3.59 2.915 6.5 6.51 6.5 3.595 0 6.51-2.91 6.51-6.5s-2.915-6.5-6.51-6.5zm0 0M269.389 110c0-3.59 2.914-6.5 6.51-6.5 3.594 0 6.509 2.91 6.509 6.5s-2.915 6.5-6.51 6.5a6.505 6.505 0 0 1-6.51-6.5zm2.001 0a4.5 4.5 0 1 0 9 0 4.5 4.5 0 0 0-9 0zm0 0" fill="#FFF"/><path d="M297.2 109.68c0 16.57-13.45 30-30.042 30a29.934 29.934 0 0 1-16.64-5.017L284.944 85.5c7.434 5.461 12.258 14.258 12.258 24.18zm0 0" fill-opacity=".08" fill="#000"/></g><g><path d="M316.457 109.5c0-16.569 13.45-30 30.043-30 16.592 0 30.043 13.431 30.043 30 0 16.569-13.45 30-30.043 30-16.592 0-30.043-13.431-30.043-30zm0 0" fill="#007BB6"/><path d="M338.843 103.21h-6.8v20.427h6.8V103.21zm0 0M339.29 96.89c-.044-2.002-1.476-3.527-3.802-3.527s-3.846 1.525-3.846 3.528c0 1.961 1.475 3.53 3.758 3.53h.043c2.37 0 3.847-1.569 3.847-3.53zm0 0M363.361 111.925c0-6.275-3.354-9.195-7.828-9.195-3.61 0-5.225 1.983-6.128 3.374v-2.894h-6.8c.09 1.917 0 20.427 0 20.427h6.8V112.23c0-.61.044-1.22.224-1.656.491-1.22 1.61-2.483 3.488-2.483 2.462 0 3.445 1.873 3.445 4.618v10.929h6.799v-11.712zm0 0" fill="#FFF"/><path d="M376.543 109.5c0 16.569-13.45 30-30.043 30a29.934 29.934 0 0 1-16.639-5.017l34.425-49.164c7.433 5.462 12.257 14.259 12.257 24.181zm0 0" fill-opacity=".08" fill="#000"/></g><g><path d="M395.57 110c0-16.569 13.452-30 30.044-30 16.593 0 30.044 13.431 30.044 30 0 16.569-13.451 30-30.044 30-16.592 0-30.043-13.431-30.043-30zm0 0" fill="#12A5F4"/><path d="M441.21 110.58c0 .704-.052 1.396-.143 2.076a9.216 9.216 0 0 1 1.572 5.169c0 5.067-4.053 9.175-9.056 9.175a8.962 8.962 0 0 1-4.785-1.383c-.896.164-1.817.257-2.763.257-8.382 0-15.174-6.847-15.174-15.294 0-.82.064-1.624.188-2.41a9.218 9.218 0 0 1-1.458-4.995c0-5.068 4.051-9.175 9.055-9.175 1.825 0 3.52.548 4.945 1.489a14.897 14.897 0 0 1 2.444-.202c8.38 0 15.175 6.848 15.175 15.294zm-22.908 8.991c2.069 1.977 4.328 3.065 9.154 2.809 4.831-.257 9.159-4.598 7.464-8.686-1.693-4.088-6.396-4.534-10.787-5.62-4.39-1.087-1.986-4.911 1.569-4.854 3.45.056 5.206 3.767 6.77 3.576 1.57-.193 2.905-2.585.44-4.725-2.132-1.853-4.827-2.874-8.967-2.491-3.248.3-6.334 2.428-6.71 6.577-.376 4.153 4.454 6.26 8.279 6.836 2.679.4 6.334 1.723 4.139 4.277-2.016 2.347-5.833.895-6.836.257-1.004-.64-2.134-2.94-4.015-2.811-1.883.128-2.811 2.646-.5 4.855zm0 0" fill="#FFF"/><path d="M455.658 110c0 16.569-13.451 30-30.044 30a29.934 29.934 0 0 1-16.639-5.017L443.4 85.819c7.434 5.462 12.258 14.259 12.258 24.181zm0 0" fill-opacity=".08" fill="#000"/></g><g><path d="M474.685 110c0-16.569 13.45-30 30.043-30s30.044 13.431 30.044 30c0 16.569-13.451 30-30.044 30-16.592 0-30.043-13.431-30.043-30zm0 0" fill="#3D9AE8"/><path d="M515.139 118.511v1.686l-10.435 6.759-10.203-6.805v-1.589l3.052 1.806.34.2.313-.24 6.592-5.05 6.59 5.05.316.241.34-.204 3.095-1.854zm0 0" fill="#FFF"/><path d="M511.906 95.044l10.339 6.597-6.786 5.646 6.786 5.808-7.106 4.257-3.395 2.035-6.946-5.324-6.948 5.324-3.35-1.981-7.288-4.311 7.326-5.566-7.326-5.565 10.638-6.92 6.948 5.952zm2.948 12.018l-10.035-5.757-10.154 6.126 10.063 6.331zm0 0" fill="#FFF"/><path d="M534.772 110c0 16.569-13.451 30-30.044 30a29.934 29.934 0 0 1-16.639-5.017l34.425-49.164c7.434 5.462 12.258 14.259 12.258 24.181zm0 0" fill-opacity=".08" fill="#000"/></g><g><path d="M553.8 110c0-16.569 13.45-30 30.042-30 16.593 0 30.044 13.431 30.044 30 0 16.569-13.451 30-30.044 30-16.592 0-30.043-13.431-30.043-30zm0 0" fill="#4E83B7"/><path d="M574.623 107.861h2.794v8.37c.22 6.843 3.988 8.27 8.381 8.74 2.554-.126 5.683-1.07 7.264-2.324v-4.743c-2.035 1.974-7.495 3.91-8.475-1.674l-.093-8.462 8.568.093v-5.672h-8.568l.187-7.16-3.446.092c.237 6.108-3.014 6.926-6.612 7.16v5.58zm0 0" fill="#FFF"/><path d="M613.886 110c0 16.569-13.451 30-30.044 30a29.934 29.934 0 0 1-16.638-5.017l34.424-49.164c7.434 5.462 12.258 14.259 12.258 24.181zm0 0" fill-opacity=".08" fill="#000"/></g><g><path d="M632.913 110c0-16.569 13.451-30 30.044-30C679.549 80 693 93.431 693 110c0 16.569-13.45 30-30.043 30s-30.044-13.431-30.044-30zm0 0" fill="#31723E"/><path d="M661.55 117.463l-3.658-2.503.573-.849 3.084 2.105v-5.982h3.279v3.827l3.011-1.587.513.94-3.524 1.862v2.753l5.644-2.823.451.91-6.095 3.048v5.883h13.235l-14.936-35.754-14.937 35.754h13.36v-7.584zm0 0" fill="#FFF"/><path d="M693 110c0 16.569-13.45 30-30.043 30a29.934 29.934 0 0 1-16.64-5.017l34.425-49.164C688.176 91.281 693 100.078 693 110zm0 0" fill-opacity=".08" fill="#000"/></g></g><g><path d="M0 30C0 13.431 13.45 0 30.043 0s30.044 13.431 30.044 30c0 16.569-13.451 30-30.044 30C13.451 60 0 46.569 0 30zm0 0" fill="#4099FF"/><path d="M29.3 23.888l.063 1.038-1.05-.127c-3.819-.487-7.155-2.14-9.988-4.915l-1.385-1.377-.357 1.017c-.755 2.267-.273 4.66 1.301 6.27.84.89.65 1.018-.797.488-.504-.17-.944-.297-.986-.233-.147.148.356 2.076.755 2.839.546 1.059 1.658 2.097 2.875 2.711l1.028.488-1.217.02c-1.175 0-1.217.022-1.091.467.42 1.377 2.077 2.839 3.924 3.474l1.301.445-1.133.678a11.815 11.815 0 0 1-5.624 1.568c-.944.02-1.72.106-1.72.17 0 .211 2.56 1.397 4.05 1.863 4.469 1.377 9.778.784 13.765-1.567 2.833-1.674 5.666-5 6.988-8.22.713-1.716 1.427-4.851 1.427-6.356 0-.974.063-1.101 1.238-2.266.692-.678 1.343-1.42 1.469-1.632.21-.402.189-.402-.882-.042-1.783.636-2.035.55-1.154-.402.65-.678 1.427-1.907 1.427-2.267 0-.064-.315.042-.671.233-.378.212-1.217.53-1.847.72l-1.133.36-1.028-.699c-.567-.381-1.364-.805-1.784-.932-1.07-.297-2.707-.254-3.672.085-2.623.953-4.281 3.41-4.092 6.101zm0 0" fill="#FFF"/><path d="M60.087 30c0 16.569-13.451 30-30.044 30a29.934 29.934 0 0 1-16.639-5.017L47.83 5.819C55.263 11.281 60.087 20.078 60.087 30zm0 0" fill-opacity=".08" fill="#000"/><path d="M79.114 30c0-16.569 13.451-30 30.044-30C125.75 0 139.2 13.431 139.2 30c0 16.569-13.451 30-30.043 30-16.593 0-30.044-13.431-30.044-30zm0 0" fill="#3B5998"/><path d="M111.67 46.32V29.998h4.505l.597-5.624h-5.102l.007-2.816c0-1.466.14-2.253 2.247-2.253h2.816V13.68h-4.506c-5.412 0-7.317 2.729-7.317 7.317v3.377h-3.374V30h3.374v16.32h6.753zm0 0" fill="#FFF"/><path d="M139.2 30c0 16.569-13.45 30-30.042 30a29.934 29.934 0 0 1-16.64-5.017l34.425-49.164c7.434 5.462 12.258 14.259 12.258 24.181zm0 0" fill-opacity=".08" fill="#000"/><path d="M158.228 30c0-16.569 13.451-30 30.044-30 16.592 0 30.043 13.431 30.043 30 0 16.569-13.45 30-30.043 30s-30.044-13.431-30.044-30zm0 0" fill="#EA4C89"/><path d="M198.118 18.848a14.595 14.595 0 0 0-9.677-3.65c-1.191 0-2.347.145-3.453.41.22.295 2.972 3.941 5.478 8.536 5.529-2.07 7.616-5.242 7.652-5.296zm7.482 10.983a17.164 17.164 0 0 1-1.35 6.669 17.277 17.277 0 0 1-3.676 5.446 17.628 17.628 0 0 1-2.539 2.092 17.335 17.335 0 0 1-2.915 1.58 17.233 17.233 0 0 1-13.359 0c-1.017-.432-2-.963-2.916-1.58a17.293 17.293 0 0 1-4.632-4.628 17.12 17.12 0 0 1-2.584-6.13 17.344 17.344 0 0 1 0-6.9 17.037 17.037 0 0 1 2.584-6.131 17.3 17.3 0 0 1 2.095-2.536 17.234 17.234 0 0 1 5.453-3.672 16.992 16.992 0 0 1 3.224-.998 17.291 17.291 0 0 1 10.135.998c1.017.431 1.999.963 2.915 1.583a17.541 17.541 0 0 1 2.54 2.089c.774.777 1.48 1.627 2.092 2.536a16.979 16.979 0 0 1 2.583 6.132c.232 1.127.35 2.288.35 3.45zm-14.569 2.36c-.032.012-.065.02-.097.033-8.646 3.01-11.47 9.075-11.5 9.141a14.636 14.636 0 0 0 9.007 3.098c2.029 0 3.962-.413 5.72-1.16-.216-1.279-1.068-5.76-3.13-11.111zm-2.187-4.91c-7.546 2.255-14.786 2.093-15.046 2.083-.004.157-.011.31-.011.467 0 3.759 1.42 7.186 3.754 9.777-.005-.007 4.005-7.112 11.913-9.665.191-.064.386-.12.579-.176a49.459 49.459 0 0 0-1.19-2.487zm7.785 14.685a14.636 14.636 0 0 0 6.28-9.816c-.302-.097-4.402-1.393-9.132-.636 1.922 5.274 2.703 9.57 2.852 10.452zm-14.44-25.37c-4.087 1.926-7.137 5.686-8.088 10.218.386.003 6.493.08 13.528-1.787-2.536-4.5-5.246-8.172-5.44-8.432zm9.405 9.729a46.144 46.144 0 0 1 1.29 2.88c5.034-.633 9.993.431 10.205.475a14.546 14.546 0 0 0-3.332-9.145c-.027.04-2.378 3.43-8.163 5.79zm0 0" fill="#FFF"/><path d="M218.315 30c0 16.569-13.45 30-30.043 30a29.934 29.934 0 0 1-16.64-5.017l34.425-49.164c7.434 5.462 12.258 14.259 12.258 24.181zm0 0" fill-opacity=".08" fill="#000"/><g><path d="M237.342 30c0-16.569 13.451-30 30.044-30 16.592 0 30.043 13.431 30.043 30 0 16.569-13.45 30-30.043 30s-30.044-13.431-30.044-30zm0 0" fill="#333"/><path d="M255.522 31.936c1.412 2.515 4.134 4.08 8.725 4.513-.655.488-1.442 1.414-1.55 2.485-.825.523-2.482.696-3.77.297-1.805-.56-2.497-4.067-5.2-3.567-.585.108-.469.487.037.808.824.524 1.6 1.178 2.198 2.572.46 1.07 1.425 2.982 4.48 2.982 1.211 0 2.06-.143 2.06-.143s.024 2.731.024 3.793c0 1.224-1.684 1.57-1.684 2.159 0 .233.557.255 1.005.255.885 0 2.727-.725 2.727-1.998 0-1.011.017-4.411.017-5.006 0-1.3.71-1.712.71-1.712s.088 6.941-.17 7.872c-.302 1.094-.848.939-.848 1.427 0 .726 2.217.178 2.952-1.416.568-1.24.32-8.05.32-8.05l.606-.012s.034 3.117.014 4.542c-.022 1.476-.123 3.342.77 4.222.586.579 2.488 1.594 2.488.666 0-.54-1.042-.983-1.042-2.442V39.47c.832 0 .707 2.208.707 2.208l.06 4.102s-.182 1.494 1.648 2.12c.646.222 2.028.282 2.093-.09.065-.373-1.664-.928-1.68-2.085-.01-.706.032-1.118.032-4.186 0-3.068-.42-4.202-1.883-5.106 4.515-.455 7.31-1.551 8.671-4.487.107.003.555-1.371.497-1.37.305-1.109.47-2.42.503-3.972-.008-4.21-2.061-5.699-2.456-6.398.582-3.187-.097-4.637-.412-5.135-1.163-.406-4.047 1.045-5.623 2.067-2.569-.737-7.998-.666-10.034.19-3.757-2.64-5.744-2.235-5.744-2.235s-1.285 2.26-.34 5.565c-1.236 1.546-2.157 2.64-2.157 5.54 0 1.633.196 3.095.638 4.372-.054 0 .593 1.367.611 1.367zm0 0" fill="#FFF"/><path d="M297.43 30c0 16.569-13.452 30-30.044 30a29.934 29.934 0 0 1-16.639-5.017l34.425-49.164c7.433 5.462 12.257 14.259 12.257 24.181zm0 0" fill-opacity=".08" fill="#000"/></g><g><path d="M316.457 30c0-16.569 13.45-30 30.043-30 16.592 0 30.043 13.431 30.043 30 0 16.569-13.45 30-30.043 30-16.592 0-30.043-13.431-30.043-30zm0 0" fill="#CD332D"/><path d="M338.404 44.884V34.599h2.037v-1.747h-6.045v1.747h2.037v10.285zm21.623-14.456c1.442 1.434 1.457 8.514 1.457 8.555 0 0-.012 7.116-1.457 8.555C358.592 48.97 346.494 49 346.494 49s-12.096-.03-13.535-1.462c-1.44-1.434-1.443-8.502-1.443-8.555 0-.041.004-7.12 1.443-8.555 1.44-1.432 13.535-1.45 13.535-1.45s12.098.018 13.533 1.45zm-15.572 13.48v.976h1.747v-8.878h-1.747v6.744c-.167.192-.345.35-.543.475-.196.124-.36.187-.488.187-.163 0-.283-.046-.36-.141-.07-.094-.107-.245-.107-.456v-6.809h-1.747v7.422c0 .53.104.924.306 1.19.207.266.507.395.913.395a2.1 2.1 0 0 0 1.016-.282c.351-.187.684-.461 1.01-.823zm6.488 1.088c.518 0 .916-.165 1.188-.501.275-.336.412-.817.412-1.445v-4.926c0-.727-.145-1.28-.44-1.66-.29-.376-.71-.565-1.266-.565-.27 0-.539.07-.806.21a2.71 2.71 0 0 0-.749.617v-3.874h-1.766v12.032h1.766v-.68c.228.272.48.471.747.6.267.13.571.192.914.192zm4.318-2.666v-1.672h3.343v-2.263c0-.842-.214-1.487-.644-1.935-.429-.449-1.045-.674-1.845-.674-.784 0-1.42.242-1.913.727-.495.483-.744 1.114-.744 1.882v3.986c0 .856.228 1.527.677 2.013.45.49 1.067.732 1.85.732.87 0 1.525-.228 1.96-.686.44-.463.659-1.148.659-2.059v-.456h-1.798v.405c0 .523-.061.86-.175 1.013-.116.153-.318.23-.608.23-.278 0-.474-.09-.592-.27-.113-.181-.17-.505-.17-.973zm-4.702-4.791c.123.155.184.383.184.682v4.584c0 .286-.053.487-.153.611-.1.127-.257.19-.47.19a.98.98 0 0 1-.422-.096 1.473 1.473 0 0 1-.416-.314v-5.53c.12-.123.24-.214.361-.272a.83.83 0 0 1 .37-.086c.236 0 .418.077.546.23zm4.882.045c.122-.166.322-.244.6-.244.265 0 .463.078.58.244.122.156.185.424.185.796v.896h-1.545v-.896c0-.372.059-.64.18-.796zm0 0M335.518 12h2.231l1.44 5.298h.139L340.696 12h2.253l-2.578 7.755v5.5h-2.216v-5.252zm10.521 3.23c.814 0 1.483.236 2.004.71.518.473.779 1.083.779 1.828v5.051c0 .836-.255 1.491-.763 1.968-.514.476-1.214.714-2.11.714-.859 0-1.549-.246-2.067-.736-.513-.492-.774-1.153-.774-1.984v-5.068c0-.759.265-1.362.796-1.81.53-.449 1.243-.674 2.135-.674zm-.094 8.577c.267 0 .477-.075.635-.223.157-.152.236-.358.236-.618v-5.327a.639.639 0 0 0-.241-.519c-.161-.131-.371-.196-.63-.196-.241 0-.435.065-.586.196a.661.661 0 0 0-.226.519v5.327c0 .267.073.473.212.622.14.147.34.22.6.22zm8.12 1.448v-1.08c-.36.397-.738.703-1.132.91-.392.207-.772.311-1.141.311-.459 0-.798-.146-1.03-.437-.229-.291-.344-.727-.344-1.31v-8.173h1.964v7.497c0 .231.045.399.128.502.08.104.215.156.4.156.143 0 .327-.07.549-.206.22-.137.423-.312.606-.527v-7.422h1.968v9.779zm0 0" fill="#FFF"/><path d="M376.543 30c0 16.569-13.45 30-30.043 30a29.934 29.934 0 0 1-16.639-5.017l34.425-49.164c7.433 5.462 12.257 14.259 12.257 24.181zm0 0" fill-opacity=".08" fill="#000"/></g><g><path d="M395.57 30c0-16.569 13.452-30 30.044-30 16.593 0 30.044 13.431 30.044 30 0 16.569-13.451 30-30.044 30-16.592 0-30.043-13.431-30.043-30zm0 0" fill="#4EBBFF"/><path d="M413.909 23.996c.94 1.11 4.528 14.509 5.726 16.98 1.045 2.168 3.93 5.034 7.092 2.987 3.16-2.046 13.67-11.007 15.552-21.588 1.88-10.579-12.648-8.363-14.187.854 3.846-2.306 5.9.936 3.931 4.608-1.964 3.668-3.76 6.06-4.7 6.06-.938 0-1.66-2.455-2.734-6.745-1.112-4.435-1.105-12.424-5.725-11.518-4.357.853-10.083 7.681-10.083 7.681l1.368 1.79s2.82-2.219 3.76-1.109zm0 0" fill="#FFF"/><path d="M455.658 30c0 16.569-13.451 30-30.044 30a29.934 29.934 0 0 1-16.639-5.017L443.4 5.819c7.434 5.462 12.258 14.259 12.258 24.181zm0 0" fill-opacity=".08" fill="#000"/></g><g><path d="M474.685 30c0-16.569 13.45-30 30.043-30s30.044 13.431 30.044 30c0 16.569-13.451 30-30.044 30-16.592 0-30.043-13.431-30.043-30zm0 0" fill="#E18F00"/><path d="M494.84 35.094c-.137.018-.274.036-.411.047a1.022 1.022 0 0 1-.172.02c-.03 0-.061.006-.092.009-.034.004-.068.01-.103.011-.115.006-.228.03-.344.03l-.32.04c-.053.006-.106.014-.16.022-.08.01-.16.02-.24.032l-.363.059c-.072.01-.145.018-.217.03-.053.007-.105.018-.158.028-.014.003-.027.023-.023.035l.037.097c.327.749.742 1.446 1.245 2.09.198.255.41.498.626.738.282.314.567.626.848.941.322.361.63.734.913 1.127.144.201.316.375.509.53.155.126.322.235.495.336.472.274.943.55 1.413.826.384.225.767.453 1.151.679a4.21 4.21 0 0 0 1.27.499 24.619 24.619 0 0 0 2.182.365l.252.03c.107.012.214.024.32.034.12.012.238.021.357.032.206.019.414.032.621.036a6.58 6.58 0 0 0 1.001-.051c.156-.02.312-.045.468-.067.243-.035.488-.061.734-.07l.265-.012c.208-.01.413-.042.616-.087.206-.045.408-.109.608-.177.436-.149.88-.275 1.331-.369a7.17 7.17 0 0 0 .704-.178 4.382 4.382 0 0 0 1.006-.451c.294-.183.593-.355.897-.521.11-.06.222-.122.332-.185.41-.24.788-.521 1.127-.853l.314-.305c.308-.3.618-.599.94-.883.18-.158.336-.338.475-.532.164-.228.299-.473.411-.73.192-.436.383-.87.573-1.307.165-.38.329-.76.477-1.147.23-.602.426-1.215.583-1.84.093-.368.17-.74.236-1.114.01-.06.02-.12.028-.181.006-.052-.005-.065-.054-.064a53.86 53.86 0 0 0-.415.01c-.027 0-.053.004-.08.005-.054.004-.107.009-.161.01-.12.003-.238.009-.357.018-.126.01-.253.013-.38.028-.056.006-.114.01-.171.018-.095.013-.19.02-.286.03-.034.005-.068.013-.102.02-.039.038-.043.05-.047.06-.114.28-.25.552-.4.816a95.41 95.41 0 0 1-1.591 2.695 4.99 4.99 0 0 1-.424.588 6.97 6.97 0 0 1-.628.657c-.401.37-.82.718-1.256 1.047-.456.346-.927.671-1.406.985-.543.356-1.088.709-1.632 1.062a2.533 2.533 0 0 1-.863.372c-.14.031-.28.048-.422.054a.178.178 0 0 0-.115.043c-.11.094-.237.155-.375.198-.084.026-.17.046-.257.063-.105.021-.211.04-.316.062-.132.028-.264.055-.394.09a1.658 1.658 0 0 1-.41.052l-.669.005a8.481 8.481 0 0 1-1.762-.191 3.67 3.67 0 0 1-.487-.14c-.248-.093-.494-.19-.739-.292a10.895 10.895 0 0 1-1.408-.71 5.459 5.459 0 0 1-.386-.252 2.626 2.626 0 0 1-.374-.323 2.937 2.937 0 0 0-.397-.351c-.108-.08-.216-.16-.327-.236a5.597 5.597 0 0 1-.716-.596c-.29-.281-.56-.58-.817-.891-.277-.334-.537-.681-.796-1.03-.362-.487-.685-1-.963-1.54-.01-.02-.022-.039-.032-.057-.163.003-.255.01-.347.022zm-.701-8.326c.12-.44.264-.873.44-1.295.254-.608.573-1.18.973-1.705.153-.201.311-.4.477-.591a9.108 9.108 0 0 1 1.366-1.3c.54-.413 1.093-.81 1.663-1.181a17.033 17.033 0 0 1 1.746-1.006c.286-.141.577-.271.877-.38a6.731 6.731 0 0 1 1.855-.389c.246-.013.492-.013.738 0 .126.008.252.021.378.036.138.015.275.035.412.053l.422.06.4.055c.14.02.282.036.423.056.125.017.252.03.378.034.147.005.292.015.438.029.134.012.266.033.393.081.417.16.833.317 1.244.49.227.095.452.193.672.304.206.104.403.222.587.363l.24.18c.755.567 1.5 1.15 2.237 1.74.115.09.22.192.316.301.028.032.056.063.083.096.19.231.39.454.588.68.208.236.41.477.598.73.009.012.02.023.03.034.071.003.14.002.209-.009.057-.009.114-.014.172-.016.026 0 .054-.001.08-.006.068-.012.137-.015.207-.016.038-.001.077-.002.115-.007.1-.015.2-.013.299-.016l.253-.01.173-.011c.073-.004.146-.004.219-.012a2.55 2.55 0 0 1 .183-.013c.031 0 .062-.005.092-.01.019-.002.034-.026.028-.043a5.164 5.164 0 0 0-.053-.14c-.12-.299-.254-.591-.39-.883-.135-.293-.272-.584-.403-.878-.12-.27-.242-.54-.373-.804-.233-.471-.48-.935-.761-1.38-.144-.226-.283-.457-.423-.686a4.295 4.295 0 0 0-.246-.361 2.664 2.664 0 0 0-.63-.603l-.113-.079a11.117 11.117 0 0 0-1.173-.708 7.086 7.086 0 0 0-1.37-.54c-.51-.141-1.024-.271-1.54-.394l-1.323-.314c-.434-.102-.869-.2-1.312-.25a5.099 5.099 0 0 0-.437-.036 13.936 13.936 0 0 0-1.498.056c-.195.018-.39.037-.585.058a16.178 16.178 0 0 0-1.016.139 3.879 3.879 0 0 0-.768.202 9.856 9.856 0 0 1-.173.063 1.247 1.247 0 0 1-.407.07H501c-.088.003-.177.004-.265.01-.19.016-.369.072-.53.176l-.078.05c-.12.072-.245.127-.385.148-.049.007-.097.02-.146.033-.22.055-.429.143-.63.25-.133.069-.26.147-.387.227-.719.452-1.436.906-2.156 1.356a2.626 2.626 0 0 0-.682.613c-.085.109-.178.211-.277.308-.16.155-.32.309-.494.45-.11.09-.211.19-.305.296a9.346 9.346 0 0 0-.467.57 9.699 9.699 0 0 0-1.095 1.875c-.182.406-.346.819-.51 1.232-.172.435-.34.872-.525 1.302a7.648 7.648 0 0 0-.484 1.592c-.005.026-.006.053-.008.08-.002.018.018.035.038.033.208-.036.381-.07.556-.095l.422-.06.24-.03.182-.027.228-.035.376-.054c.14-.02.28-.043.42-.065.031-.004.061-.01.09-.033l.012-.04zm10.784 12.087c.178.013.353-.005.527-.042a3.22 3.22 0 0 0 .505-.158l.965-.38c.443-.175.876-.373 1.295-.6a8.973 8.973 0 0 0 2.442-1.921 5.9 5.9 0 0 0 .4-.491 3.38 3.38 0 0 0 .415-.767 4.54 4.54 0 0 1 .146-.337c.08-.167.163-.33.245-.495l.17-.34c.015-.03 0-.053-.036-.05a1.22 1.22 0 0 0-.103.012c-.106.016-.211.036-.32.038-.1.001-.199.013-.298.021l-.366.042-.275.033-.114.013c-.03.003-.062.003-.092.008-.057.011-.114.012-.172.016-.122.008-.245.014-.367.028-.16.019-.32.044-.478.076-.113.023-.227.038-.34.055-.111.015-.222.028-.332.04-.088.011-.176.02-.264.029-.099.01-.199.017-.298.03a8.929 8.929 0 0 1-.412.043l-.31.027c-.068.006-.137.016-.206.019-.02 0-.038.004-.057.006l-.138.015-.114.012c-.03.003-.061.008-.092.009l-.496.008c-.034 0-.07-.001-.104.002l-.447.043c-.122.016-.22.028-.32.039-.107.01-.214.017-.32.03-.13.016-.26.03-.39.043l-.252.027-.183.02-.252.027c-.1.01-.198.027-.297.035-.127.01-.253.018-.38.024-.134.005-.27 0-.403.023a1.2 1.2 0 0 0-.262.032c-.178.036-.359.044-.538.058-.138.011-.275.025-.412.044a3.116 3.116 0 0 1-.252.027c-.123.007-.244.03-.368.032-.015 0-.03.004-.045.006a3.968 3.968 0 0 1-.103.01l-.391.03c-.02 0-.038.006-.057.008l-.069.007c-.107.01-.214.018-.32.031-.123.016-.244.034-.367.042l-.045.006-.138.015-.08.008-.137.015-.08.009-.31.035c-.102.01-.206.017-.309.03-.126.016-.252.028-.377.044l-.24.028c-.088.01-.175.024-.263.035l-.434.052c-.053.013-.065.038-.056.053.013.019.025.038.04.057.148.2.296.4.447.6.141.186.291.366.451.538.244.262.508.501.807.7.1.067.191.142.278.224.052.05.106.1.164.145.207.16.42.31.646.442l.32.184c.297.169.6.325.89.509.097.062.204.105.315.138.174.05.346.104.52.156.323.096.648.188.981.25.261.05.523.086.79.086.161 0 .323-.005.466-.007a4.03 4.03 0 0 1 .456.009zm.361-26.063c.027 0 .054 0 .136-.018 0 0 .541.018.56.02.088.012.176.022.263.035.163.026.326.056.491.067.096.007.191.016.287.024l.437.035.46.031a19.497 19.497 0 0 1 .7.063c.157.016.314.031.47.054.327.048.65.114.972.191.358.086.713.185 1.068.287.44.126.876.26 1.306.414 1.085.391 2.116.89 3.087 1.513.55.353 1.075.74 1.56 1.18a4.182 4.182 0 0 1 .793.952c.092.151.184.301.279.45.15.237.31.466.484.687.147.187.286.38.42.577.512.762.913 1.579 1.22 2.442.144.401.262.81.37 1.222l.162.61c.005.02.01.037.098.08.165-.033.33-.068.497-.098.071-.014.142-.032.215-.037.033-.002.06.006.148.096.059.06.13.095.27.107.14-.001.278-.003.416-.006.065-.002.13-.007.196-.009l.288-.004c.061-.002.123-.005.184-.009l.196-.01c.176-.01.353-.02.552-.033.06-.012.122-.014.252-.021.103-.02.207-.02.31-.022a1.56 1.56 0 0 1 .185.007c.066.006.128.026.201.134.05.05.082.11.107.176.018.046.035.093.055.138.022.05.052.094.093.131.023.021.05.035.174.04.108 0 .216.002.406.035.093.09.166.191.208.372 0 0-.031.321-.03.35a.299.299 0 0 1-.046.151l-.242.47a6.176 6.176 0 0 0-.102.207.342.342 0 0 0-.03.201c.01.069.013.138.008.207a.458.458 0 0 1-.039.155.618.618 0 0 1-.139.196l-.1.096a.288.288 0 0 0-.09.205c0 .015 0 .03-.032.13-.014.019-.03.036-.088.107-.033.049-.036.1-.004.15.02.033.043.064.064.096a.245.245 0 0 0 .201.116.275.275 0 0 1 .185.083c.072.07.139.144.197.225.033.047.06.098.08.152a.205.205 0 0 1-.014.198c-.03.048-.06.098-.083.15a4.807 4.807 0 0 0-.197.565c-.013.045-.014.09.014.215.01.062.005.122-.037.174-.027.033-.03.069.001.163a.186.186 0 0 1-.01.123.262.262 0 0 1-.096.114.813.813 0 0 1-.276.117c-.054-.018-.11-.034-.165-.051-.094-.029-.19-.021-.291.077.024.014.05.019.157.03.065.024.129.05.241.107a.19.19 0 0 1 .083.133c.005.046.014.091.017.137.004.067.025.127.092.231.033.04.035.085.022.131a2.768 2.768 0 0 1-.058.174.354.354 0 0 1-.135.182c-.068.044-.093.11-.098.279a.29.29 0 0 1-.032.12c-.021.042-.053.066-.215.072a.518.518 0 0 0-.136.02.141.141 0 0 0-.094.08 1.148 1.148 0 0 0-.049.14.116.116 0 0 1-.094.076c-.114.018-.228.033-.342.05l-.273.037c-.088.012-.176.021-.263.032a4.074 4.074 0 0 0-.137.02.339.339 0 0 0-.239.164.502.502 0 0 0-.068.182.706.706 0 0 1-.066.184c-.035.072-.096.106-.254.118h-.289l-.438.002c-.03 0-.061.002-.149.076-.024.17-.044.342-.073.512-.051.295-.103.59-.162.882-.105.53-.214 1.06-.323 1.589-.112.54-.226 1.08-.34 1.62-.078.375-.161.75-.255 1.121a3.59 3.59 0 0 1-.905 1.631.178.178 0 0 0-.046.103c-.003.035-.008.069-.01.103a1.275 1.275 0 0 1-.066.303 1.853 1.853 0 0 1-.2.413c-.075.116-.153.23-.231.344-.116.167-.23.335-.338.508a7.16 7.16 0 0 1-.402.576 9.516 9.516 0 0 1-.998 1.099c-.356.339-.733.654-1.12.958a10.065 10.065 0 0 1-2.295 1.355c-.814.345-1.646.642-2.492.897-.333.1-.67.17-1.014.21-.126.015-.252.031-.378.05-.213.03-.425.064-.638.093a.422.422 0 0 1-.215-.017.703.703 0 0 0-.26-.04c-.094 0-.184.017-.274.039-.105.024-.208.054-.313.076a8.02 8.02 0 0 1-.957.145c-.096.008-.192.015-.365.042l-1.565-.017c-.146-.01-.292-.018-.437-.029-.13-.009-.26-.018-.39-.03a36.505 36.505 0 0 1-.55-.06c-.154-.017-.306-.034-.459-.055-.232-.033-.463-.07-.695-.105a27.618 27.618 0 0 1-3.002-.661 14.06 14.06 0 0 1-1.883-.713 21.395 21.395 0 0 1-1.884-.995 17.508 17.508 0 0 1-2.281-1.596 24.243 24.243 0 0 1-1.118-.979 37.01 37.01 0 0 1-1.97-1.97 16.087 16.087 0 0 1-1.4-1.723 1.347 1.347 0 0 1-.115-.199 49.187 49.187 0 0 0-.32-.675c-.214-.437-.43-.874-.623-1.32-.003-.007-.01-.012-.13-.011l-.69.129c-.18.034-.361.07-.542.106-.177.034-.354.068-.53.104-.117.024-.235.046-.344.094-.06.026-.12.027-.241-.044-.009-.065-.015-.13-.025-.194a1.148 1.148 0 0 0-.077-.262c-.039-.062-.089-.115-.248-.196-.109-.006-.215.015-.32.034a7.173 7.173 0 0 1-.387.06c-.08.01-.16.02-.24.033a1.93 1.93 0 0 1-.31.021c-.14 0-.274-.027-.498-.121a.131.131 0 0 1-.066-.09l-.025-.147c-.005-.03-.023-.047-.05-.15.024-.003.043-.015.068-.106.028-.102.028-.102.005-.225a.462.462 0 0 1-.002-.239.904.904 0 0 0 .028-.273.311.311 0 0 1 .025-.146.3.3 0 0 0 .023-.135c-.002-.046-.002-.093-.008-.138a1.452 1.452 0 0 1-.003-.355c.013-.134.018-.268.028-.402.008-.114.005-.23.004-.345a.57.57 0 0 0-.01-.114 1.306 1.306 0 0 1-.003-.446.705.705 0 0 0 .016-.16c0-.053 0-.107-.002-.16-.001-.048.014-.091.085-.197.08-.107.159-.216.25-.315a.375.375 0 0 0 .1-.274c-.002-.092-.001-.184-.008-.276a4.28 4.28 0 0 1-.01-.31c-.001-.1-.004-.2-.002-.299.003-.135-.019-.267-.036-.4-.016-.114-.038-.227-.033-.343a.386.386 0 0 0-.014-.113c-.027-.107-.023-.213.04-.382.03-.083.023-.165-.028-.288a.222.222 0 0 1-.009-.179l.059-.174a.185.185 0 0 1 .085-.105.643.643 0 0 1 .223-.089c.095-.016.19-.031.285-.044.152-.019.303-.05.453-.081.229-.05.456-.104.683-.163a13.35 13.35 0 0 1 1.102-.238c.167-.028.333-.059.614-.1.016-.003.027-.014.047-.097l.117-.68a34.812 34.812 0 0 1 .72-3.195c.118-.424.243-.847.39-1.263a12.02 12.02 0 0 1 .972-2.106c.298-.507.634-.988 1.014-1.438.302-.359.635-.689.987-.999.544-.48 1.11-.933 1.7-1.359a20.79 20.79 0 0 0 1.661-1.315 3.266 3.266 0 0 1 1.063-.631c.145-.053.287-.111.429-.17.316-.13.624-.278.932-.426a9.179 9.179 0 0 1 1.442-.546c.66-.19 1.332-.308 2.012-.39l.457-.06.411-.055.423-.054c.206-.027.411-.056.617-.082.183-.023.366-.045.55-.066l.297-.03c.104-.011.207-.022.31-.03.15-.013.299-.027.449-.035.226-.013.453-.021.68-.032zm-1.238 8.527a7.442 7.442 0 0 0-1.098.258c-.363.115-.718.25-1.066.405-.47.21-.937.425-1.405.638a.703.703 0 0 0-.09.05c-.466.302-.905.637-1.317 1.007-.49.44-.938.918-1.352 1.43a7.478 7.478 0 0 0-.761 1.135c-.016.031-.001.051.035.049.182-.029.329-.056.476-.082l.465-.08.341-.056c.11-.018.22-.039.33-.055.178-.027.356-.051.535-.077.06-.008.122-.017.182-.027l.387-.059.376-.055.387-.059c.133-.019.266-.035.4-.053l.193-.028.228-.035c.102-.014.205-.028.308-.04.083-.012.167-.02.251-.03l.252-.03.205-.027.228-.034.24-.031.386-.06.183-.024c.084-.01.168-.019.251-.03.13-.018.26-.032.39-.044.091-.009.183-.02.275-.024l.421-.062c.057-.009.114-.018.171-.025.08-.009.16-.022.24-.03.118-.013.236-.032.354-.042l.057-.008.263-.034c.065-.009.13-.017.194-.023.1-.011.2-.019.298-.031.133-.017.267-.03.4-.043.096-.008.192-.021.288-.025.08-.01.125-.014.171-.018.027-.003.055-.001.08-.007.073-.014.146-.015.219-.018.023-.001.046-.002.069-.006.068-.012.137-.014.206-.016.066-.001.131-.001.196-.008.119-.012.238-.012.357-.014.108 0 .215-.017.32-.032.122-.017.242-.044.36-.082a.38.38 0 0 1 .113-.021c.1-.001.199-.01.298-.023.137-.016.273-.04.41-.06.118-.018.235-.039.352-.056.107-.016.213-.03.32-.043.072-.01.144-.022.217-.025.115-.005.229-.03.344-.03.027 0 .054-.006.08-.01a4.8 4.8 0 0 1 .092-.008l.321-.03c.04-.01.048-.015.052-.02.005-.006.008-.014.007-.02-.003-.024-.022-.04-.036-.057a5.298 5.298 0 0 0-.596-.609c-.15-.13-.304-.259-.46-.384-.194-.156-.392-.308-.588-.462a1.696 1.696 0 0 0-.23-.152c-.115-.063-.228-.128-.341-.194a1.53 1.53 0 0 1-.252-.182 2.223 2.223 0 0 0-.152-.123.747.747 0 0 0-.335-.145.447.447 0 0 1-.13-.047c-.137-.067-.275-.135-.414-.2a1.69 1.69 0 0 0-.325-.114 58.885 58.885 0 0 0-1.787-.403.89.89 0 0 0-.183-.023c-.165 0-.33-.002-.495.016-.092.01-.184.006-.276-.004-.118-.014-.238-.018-.317-.024a4.368 4.368 0 0 0-.568.045zm0 0" fill="#FFF"/><path d="M534.772 30c0 16.569-13.451 30-30.044 30a29.934 29.934 0 0 1-16.639-5.017l34.425-49.164c7.434 5.462 12.258 14.259 12.258 24.181zm0 0" fill-opacity=".08" fill="#000"/></g><g><path d="M553.8 30c0-16.569 13.45-30 30.042-30 16.593 0 30.044 13.431 30.044 30 0 16.569-13.451 30-30.044 30C567.25 60 553.8 46.569 553.8 30zm0 0" fill="#517FA4"/><path d="M571.871 27.198v13.545c0 .65.564 1.208 1.214 1.208h21.51c.656 0 1.216-.557 1.216-1.212V27.117h-2.916a9.525 9.525 0 0 1 .377 4.014 9.321 9.321 0 0 1-1.319 3.803 9.51 9.51 0 0 1-12.744 3.345c-1.582-.885-2.824-2.12-3.69-3.712-1.291-2.374-1.498-4.866-.74-7.452h-2.908zm24.67 17.974c-.157.034-.317.056-.475.083h-24.447c-.065-.01-.13-.023-.195-.03a3.303 3.303 0 0 1-2.773-2.52c-.035-.154-.057-.31-.085-.465V17.762l.03-.171a3.292 3.292 0 0 1 2.547-2.766c.146-.033.295-.053.443-.08h24.513c.057.01.113.023.17.03a3.3 3.3 0 0 1 2.784 2.618c.027.133.045.268.066.401v24.412c-.022.136-.041.273-.067.409-.244 1.253-1.264 2.292-2.511 2.557zm-18.89-15.266c-.048 3.46 2.725 6.202 6.05 6.273 3.459.074 6.257-2.686 6.33-6.043a6.192 6.192 0 0 0-6.188-6.319c-3.389-.002-6.144 2.72-6.191 6.09zm16.986-7.336a1.224 1.224 0 0 0 1.174-1.217v-2.89c0-.69-.548-1.24-1.239-1.24-.962-.001-1.923-.002-2.886 0-.689 0-1.238.551-1.239 1.242 0 .955-.003 1.91.004 2.865 0 .143.028.29.073.426.173.508.64.82 1.21.823h1.393c.503-.007 1.007.003 1.51-.01zm0 0" fill="#FFF"/><path d="M613.886 30c0 16.569-13.451 30-30.044 30a29.934 29.934 0 0 1-16.638-5.017l34.424-49.164c7.434 5.462 12.258 14.259 12.258 24.181zm0 0" fill-opacity=".08" fill="#000"/></g><g><path d="M632.913 30c0-16.569 13.451-30 30.044-30C679.549 0 693 13.431 693 30c0 16.569-13.45 30-30.043 30s-30.044-13.431-30.044-30zm0 0" fill="#CB2027"/><path d="M650.173 25.656c0 3.303 1.252 6.241 3.938 7.336.44.18.835.006.963-.48.088-.338.299-1.188.392-1.542.129-.481.08-.65-.276-1.07-.775-.912-1.27-2.093-1.27-3.765 0-4.853 3.636-9.197 9.468-9.197 5.164 0 8.001 3.15 8.001 7.359 0 5.536-2.454 10.209-6.096 10.209-2.012 0-3.518-1.662-3.035-3.699.578-2.432 1.697-5.058 1.697-6.814 0-1.571-.845-2.882-2.593-2.882-2.057 0-3.709 2.124-3.709 4.97 0 1.812.614 3.038.614 3.038l-2.474 10.463c-.734 3.106-.11 6.913-.057 7.297.03.228.324.282.457.11.19-.247 2.639-3.266 3.471-6.283.236-.855 1.353-5.278 1.353-5.278.668 1.272 2.62 2.393 4.697 2.393 6.182 0 10.376-5.627 10.376-13.16 0-5.695-4.832-11-12.174-11-9.136 0-13.743 6.541-13.743 11.995zm0 0" fill="#FFF"/><path d="M693 30c0 16.569-13.45 30-30.043 30a29.934 29.934 0 0 1-16.64-5.017l34.425-49.164C688.176 11.281 693 20.078 693 30zm0 0" fill-opacity=".08" fill="#000"/></g></g></g></g></svg>