<svg width="693" height="516" viewBox="0 0 693 516" xmlns="http://www.w3.org/2000/svg"><title>free-flat-social-icons</title><g fill="none" fill-rule="evenodd"><path fill="#4E4C59" d="M229 394h235v122H229z"/><g fill="#FFF"><path d="M418 470h2.178v4.563l3.788-4.563h2.96l-4.005 4.817L427 482h-2.57l-3.033-5.324-1.22 1.436V482H418v-12zm0 0M401 470h.615l7.077 7.014V470H411v12h-.63l-7.062-7.014V482H401v-12zm0 0M392.393 480.08h-5.8L385.57 482H383l6.493-12L396 482h-2.57l-1.037-1.92zM391 478l-1.5-3-1.5 3h3zm0 0M371 470h10v2.366h-3.846V482h-2.308v-9.634H371V470zm0 0M358 475.5c0 1.92-.08 3.84-.08 5.76.08 1.44-.646 2.64-1.937 3.36-3.31 1.92-6.698 3.92-10.087 5.84-1.21.72-2.582.72-3.873 0-3.308-1.92-6.697-3.92-10.086-5.84-1.21-.72-1.937-1.84-1.937-3.28v-11.68c0-1.44.646-2.56 1.937-3.28 3.39-2 6.697-3.92 10.086-5.84 1.29-.72 2.582-.72 3.793 0 3.47 1.92 6.858 3.84 10.167 5.84 1.29.72 1.936 1.84 1.936 3.28.08 2 0 3.92 0 5.84h.08zm-18.548-5.224c-.395.4-.79.797-1.186 1.116.158.16.158.32.395.48-.553.557-1.106 1.035-1.66 1.514.316.4.554.638.87.957.316.24.554.56.87.798l1.503-1.514c1.028.957 1.978 1.914 2.927 2.87-1.187 1.517-2.77 2.633-4.193 3.91.633.558 1.108 1.116 1.582 1.594 1.265-1.435 2.372-2.95 3.796-4.227 1.582 1.276 2.69 2.87 3.876 4.227l1.582-1.595c-.632-.558-1.424-1.196-2.135-1.834a25.256 25.256 0 0 1-2.058-2.073c1.028-.957 1.977-1.914 2.926-2.792.238.24.554.48.79.798.318.24.555.558.792.797.317.24.554.56.87.798 0-1.515-.158-2.95-.79-4.307l.316-.318-1.187-1.196-.317.32c-.554-.56-1.107-1.118-1.503-1.596l-1.74 1.755c.475.478.95 1.037 1.503 1.595-1.028.957-1.978 1.914-3.006 2.87-.87-.956-1.82-1.913-2.768-2.87.552-.558 1.027-1.117 1.58-1.595-.632-.638-1.186-1.197-1.82-1.755-.394.478-.948 1.037-1.422 1.595-.16-.16-.317-.24-.396-.32zm0 0M308 470h2.178v4.563l3.788-4.563h2.96l-4.004 4.817L317 482h-2.57l-3.033-5.324-1.22 1.436V482H308v-12zm0 0M292 470h.615l7.077 7.014V470H302v12h-.63l-7.062-7.014V482H292v-12zm0 0M285 482h-2v-12h2v12zm0 0M267 470h10v2.366h-3.846V482h-2.308v-9.634H267V470zm0 0"/></g><path d="M314.8 433.485v-.904c.134-.734.302-1.102.505-1.102.95.07 1.426.236 1.426.5v.207c-.202.258-.303.626-.303 1.102 0 .304.54.57 1.617.8h.21c.776 0 1.315-.734 1.616-2.204.07-.42.105-.89.105-1.412-.087-.67-.763-1.607-2.026-2.807-1.398-.626-2.245-1.398-2.54-2.317-.087 0-.224-.803-.41-2.41v-.802c.47-2.268 1.047-3.574 1.73-3.92.193-.142.552-.214 1.08-.214h.226c1.716.344 2.733 1.02 3.052 2.024.342.838.513 1.777.513 2.816.065.12.097.244.097.37a.91.91 0 0 1-.06.32l-.106.283-.338.052-.504-.026c-.545 0-.818-.47-.818-1.405 0-1.642-.54-2.58-1.617-2.816h-.21c-.81.286-1.245 1.033-1.303 2.238-.006.586-.043.88-.113.88l-.035.274.035.13c0 .964.304 1.734.913 2.308 2.1 1.148 3.18 1.986 3.243 2.515.65.55.99 1.556 1.018 3.014v.498c-.15 1.533-.556 2.705-1.217 3.514-.684.672-1.46 1.008-2.33 1.008-1.183 0-2.232-.502-3.148-1.507zm-26-12.713c0-.515.19-.772.564-.772h1.504c.123.11.217.56.28 1.352h-.095c0 .067.032.1.096.1.058 1.29.088 2.257.088 2.904v1.062c0 .15-.03.28-.09.39a.85.85 0 0 1 .09.39c0 .066-.03.163-.09.29 0 .066.03.163.09.29-.06.443-.09.797-.09 1.062v.39c0 .194.03.29.09.29l-.09.482v.1c0 .967.03 1.772.09 2.413v1.842c.375 0 .563.097.563.29v1.162c0 .126-.06.19-.184.19h-.282c-.064 0-.096-.03-.096-.09l-.185.09h-1.03c-.1 0-.228-.127-.378-.382 0-.066.033-.1.097-.1a.727.727 0 0 1-.097-.29l-.096-1.55a4.88 4.88 0 0 0 .095-.773c0-.066-.032-.1-.096-.1l.095-.48v-1.933c0-.377.033-.894.097-1.552 0-.066-.032-.1-.097-.1l.097-.48c0-.305-.032-.628-.097-.97.065-.34.097-.66.097-.964l-.097-.2c0-.06.033-.09.097-.09a21.968 21.968 0 0 1-.097-1.65v-.872a.745.745 0 0 0-.096-.382.79.79 0 0 0 .095-.39v-.1c-.445-.06-.694-.09-.748-.09v-.39a.79.79 0 0 0-.096-.39zm34 9.628l.043-.116v-.38l-.034-.444a.53.53 0 0 0 .033-.23c0-1.292.326-2.51.98-3.653.512-.385.933-.577 1.262-.577h.1l.076.008.118-.008c1.54 0 2.583.607 3.13 1.822.195 1.698.293 2.63.293 2.795-.406 3.204-.797 4.806-1.17 4.806-.352.214-.907.407-1.666.577h-.619c-1.255 0-2.017-.627-2.285-1.88-.078-.16-.15-.557-.217-1.195v-.198a.736.736 0 0 0-.01-.132l.01-.156v-.867a.378.378 0 0 0-.042-.173zm-28 1.297c0 .646.466 1.08 1.395 1.303.65 0 1.184-.166 1.606-.497V430.3c-.482-.2-.874-.3-1.173-.3h-.22c-.87 0-1.404.566-1.606 1.697zm29-1.217c.178 1.62.437 2.432.78 2.432.248.06.505.088.77.088.802 0 1.252-.995 1.35-2.984v-.096l.06-.328.04-.416a.57.57 0 0 1-.04-.272c-.017-.208-.003-.365.04-.472-.17-1.62-.654-2.432-1.45-2.432-.828 0-1.34 1.072-1.533 3.216v.328c0 .624-.005.936-.016.936zm-44.588-8.992l-.41-.87c.174-.533 1.024-.94 2.55-1.217.262.006.495.01.7.01l.218-.01c.116.063.25.066.402.01.227.056.4.053.515-.01.193.035.367.052.525.052.145 0 .276-.015.393-.043h.096c.158.056.295.053.412-.01a43.062 43.062 0 0 1 1.267-.093c.668-.006 1.003-.108 1.003-.307h.306c.407.233.61.398.61.494v.4c0 .682-.1 1.145-.305 1.39l-.716-.094h-.744a1.55 1.55 0 0 0-.48-.017l-.333.017h-.306c-.576 0-1.427.03-2.55.094a17.062 17.062 0 0 0-.097 1.49v.205c.058.12.052.178-.018.178l.018.12v2.48c.017.136.084.204.2.204h.202c.093.057.198.05.314-.017a.388.388 0 0 1 .2.017c.828 0 1.574-.2 2.238-.597.303 0 .475.628.516 1.884-.402.31-1.26.516-2.578.612-.064.012-.134.017-.21.017-.11 0-.236-.012-.375-.035h-.507v2.488c.046.086.043.148-.01.188l.01.112c-.07.727-.105 1.357-.105 1.89.035.08.03.132-.018.155l.018.145c-.28 2.12-.722 3.178-1.328 3.178-.95 0-1.424-.258-1.424-.775l.104-.017c.338 0 .676-1.625 1.014-4.875 0-.068.007-.16.018-.272l-.017-.323v-2.19c0-.063-.005-.094-.017-.094.082-.068.088-.102.018-.102.07-.777.106-1.34.106-1.686v-2.787c0-.148.003-.28.01-.4a7.752 7.752 0 0 1-.01-.392v-.597l-.507-.102a5.194 5.194 0 0 1-.918.102zm50.59 9.454l.016-.365-.017-.526c.07-.514.105-1.043.105-1.587l-.07-.042c.11-.033.134-.05.07-.05.32-1.556.858-2.544 1.618-2.963.37-.27 1.05-.407 2.034-.407h.4c1.218 0 2.064.693 2.54 2.08v.195c0 .532-.372.798-1.114.798-.185 0-.423-.365-.713-1.095l-.808-.492a3.263 3.263 0 0 0-.713-.102c-1.085.31-1.627 1.137-1.627 2.478 0 .068.005.16.017.272l-.017.323v.89c0 .148.005.28.017.4l-.017.195c.602 1.585 1.313 2.377 2.13 2.377 0 .067.133.033.4-.103a.427.427 0 0 0 .148.026c.308 0 .633-.37.975-1.112.162-.237.345-.356.548-.356.087 0 .176.02.27.06l.112-.043.087.044h.105c.33.175.498.308.504.4v.092c-.74 1.415-1.417 2.207-2.025 2.377-.21.198-.65.297-1.322.297h-.504c-.917 0-1.798-.66-2.645-1.978a16.658 16.658 0 0 1-.504-2.08zm-28-6.38v-.493c.074-.143.176-.31.303-.503.592.284 1.403.55 2.435.8.133-.817.235-1.78.304-2.888 0-.728-.168-1.324-.504-1.79.383-.46.89-.69 1.522-.69.336 0 .54.398.608 1.193 0 .47-.07 1.894-.208 4.268h.713c.968-.396 1.475-.595 1.522-.595h.2v.502c0 .148.034.28.104.392-.23.505-.68.87-1.347 1.098-.232.13-.63.196-1.19.196h-.2c-.204 1.284-.306 2.74-.306 4.37.18 1.358.52 2.32 1.018 2.89.608.55.913.88.913.987 0 .342-.305.54-.913.598-.116.068-.31.102-.583.102-.423-.01-.94-.474-1.548-1.39-.272-.817-.443-1.81-.513-2.98.024-.12.036-.253.036-.4l-.035-.495.306-3.783-.574-.085c-1.374-.386-2.06-.82-2.06-1.304zm36 .816l.106-.378c1.07 0 1.714.29 1.934.87.06 0 .09.096.09.288v1.043l.026.296c-.077.356-.086.482-.025.378l-.09.476v1.25c0 .228-.034.516-.1.86.01.083.017.277.017.584l-.017.082c0 .898.193 1.374.58 1.43.268 0 .428.26.478.78 0 .442-.385.664-1.156.664h-.38c-.71-.285-1.066-.922-1.066-1.913v-.477h.1c0-.065-.034-.098-.1-.098l.016-.476a.578.578 0 0 0-.016-.288l.016-.566.083-.583a.732.732 0 0 0-.1-.387c0-.066-.01-.236-.033-.51l.034-.45c.066-.79.1-1.203.1-1.24-.266-.505-.398-.888-.398-1.15 0-.214-.033-.376-.1-.485zm-45 6.65c.168-1.465.53-2.356 1.08-2.673.44-.328 1.032-.493 1.776-.493.468 0 .93.066 1.387.196.062-.595.1-.943.118-1.044l-.025-.442v-.467c-.12-.328-.38-.535-.786-.62-.102-.067-.3-.1-.592-.1-.626 0-1.054.43-1.285 1.29 0 .197-.164.296-.49.296h-.491c-.248-.027-.38-.16-.397-.398.248-1.715 1.268-2.572 3.06-2.572h.296c1.28.153 2.035 1.044 2.266 2.674-.13 1.97-.196 3.322-.196 4.058.214 1.188.56 1.805 1.04 1.85l.237.23v.203c-.35.657-.71.985-1.08.985-.334 0-.793-.263-1.38-.79-.467.465-1.126.697-1.978.697h-.093c-1.212 0-2-.63-2.368-1.885-.05-.3-.084-.63-.1-.993zm46-8.908c0-.747.378-1.12 1.137-1.12h.194c.44 0 .66.426.66 1.278l.007.042c-.064.027-.067.04-.007.04 0 .427-.347.64-1.04.64h-.188c-.51 0-.764-.293-.764-.88zm4 8.91c.168-1.467.53-2.358 1.08-2.675.44-.328 1.032-.493 1.776-.493.468 0 .93.066 1.387.196.062-.595.1-.943.118-1.044l-.025-.442v-.467c-.12-.328-.38-.535-.786-.62-.102-.067-.3-.1-.592-.1-.626 0-1.054.43-1.285 1.29 0 .197-.164.296-.49.296h-.491c-.248-.027-.38-.16-.397-.398.248-1.715 1.268-2.572 3.06-2.572h.296c1.28.153 2.035 1.044 2.266 2.674-.13 1.97-.196 3.322-.196 4.058.214 1.188.56 1.805 1.04 1.85l.237.23v.203c-.35.657-.71.985-1.08.985-.334 0-.793-.263-1.38-.79-.467.465-1.126.697-1.978.697h-.093c-1.212 0-2-.63-2.368-1.885-.05-.3-.084-.63-.1-.993zm1-.333c0 .646.464 1.08 1.393 1.303.65 0 1.184-.166 1.606-.497V430.3c-.482-.2-.874-.3-1.173-.3h-.22c-.87 0-1.404.566-1.606 1.697zm7-10.925c0-.515.187-.772.562-.772h1.504c.123.11.217.56.28 1.352h-.095c0 .067.032.1.096.1.058 1.29.088 2.257.088 2.904v1.062c0 .15-.03.28-.09.39a.85.85 0 0 1 .09.39c0 .066-.03.163-.09.29 0 .066.03.163.09.29-.06.443-.09.797-.09 1.062v.39c0 .194.03.29.09.29l-.09.482v.1c0 .967.03 1.772.09 2.413v1.842c.375 0 .563.097.563.29v1.162c0 .126-.06.19-.184.19h-.282c-.064 0-.096-.03-.096-.09l-.185.09h-1.03c-.1 0-.228-.127-.378-.382 0-.066.033-.1.097-.1a.727.727 0 0 1-.097-.29l-.096-1.55a4.88 4.88 0 0 0 .095-.773c0-.066-.032-.1-.096-.1l.095-.48v-1.933c0-.377.033-.894.097-1.552 0-.066-.032-.1-.097-.1l.097-.48c0-.305-.032-.628-.097-.97.065-.34.097-.66.097-.964l-.097-.2c0-.06.033-.09.097-.09a21.968 21.968 0 0 1-.097-1.65v-.872a.745.745 0 0 0-.096-.382.79.79 0 0 0 .095-.39v-.1c-.445-.06-.694-.09-.748-.09v-.39a.79.79 0 0 0-.096-.39zm10-.49c.094-.855.29-1.282.585-1.282.61.18.914.312.914.396.11.523.165 1.144.165 1.863v.985c0 .067.01.135.03.202l-.03.093v1.28c-.047.254-.043.38.014.38l-.015.405v1.576c0 1.288.057 2.5.172 3.634l-.015.1.015.102v1.475l.078.59-.078.195.164 1.475-.013.118.014.075v1.964c-.2 0-.45.03-.75.093l-.413-.11c-.11.068-.193.073-.25.017-.224-.32-.365-1.005-.422-2.056l.086-.884c-.11-3.675-.163-5.872-.163-6.59.052-.81.078-1.237.078-1.282-.052-.236-.078-.596-.078-1.08 0-.067.002-.168.007-.303a8.9 8.9 0 0 1-.007-.386l.078-.388a.873.873 0 0 1-.078-.295c-.048-.2-.046-.302.007-.302l-.007-.287v-1.379a.844.844 0 0 0-.086-.39zm3 10.66l.016-.365-.017-.526c.07-.514.105-1.043.105-1.587l-.07-.042c.11-.033.134-.05.07-.05.32-1.556.858-2.544 1.618-2.963.37-.27 1.05-.407 2.034-.407h.4c1.218 0 2.064.693 2.54 2.08v.195c0 .532-.372.798-1.114.798-.185 0-.423-.365-.713-1.095l-.808-.492a3.263 3.263 0 0 0-.713-.102c-1.085.31-1.627 1.137-1.627 2.478 0 .068.005.16.017.272l-.017.323v.89c0 .148.005.28.017.4l-.017.195c.602 1.585 1.313 2.377 2.13 2.377 0 .067.133.033.4-.103a.427.427 0 0 0 .148.026c.308 0 .633-.37.975-1.112.162-.237.345-.356.548-.356.087 0 .176.02.27.06l.112-.043.087.044h.105c.33.175.498.308.504.4v.092c-.74 1.415-1.417 2.207-2.025 2.377-.21.198-.65.297-1.322.297h-.504c-.917 0-1.798-.66-2.645-1.978a16.658 16.658 0 0 1-.504-2.08zm8-.542l.04-.116v-.38l-.033-.444a.53.53 0 0 0 .033-.23c0-1.292.326-2.51.98-3.653.512-.385.933-.577 1.262-.577h.1l.076.008.118-.008c1.54 0 2.583.607 3.13 1.822.195 1.698.293 2.63.293 2.795-.406 3.204-.797 4.806-1.17 4.806-.352.214-.907.407-1.666.577h-.619c-1.255 0-2.017-.627-2.285-1.88-.078-.16-.15-.557-.217-1.195v-.198a.736.736 0 0 0-.01-.132l.01-.156v-.867a.378.378 0 0 0-.042-.173zm1 .08c.176 1.62.435 2.432.778 2.432.248.06.505.088.77.088.802 0 1.252-.995 1.35-2.984v-.096l.06-.328.04-.416a.57.57 0 0 1-.04-.272c-.017-.208-.003-.365.04-.472-.17-1.62-.654-2.432-1.45-2.432-.828 0-1.34 1.072-1.533 3.216v.328c0 .624-.005.936-.016.936zm6 4.044v-.304c.385-.192.732-1.642 1.04-4.35-.07-.094-.106-.368-.106-.822 0-.066-.006-.156-.018-.27l.018-.387v-2.01h-.73c0-.214-.033-.373-.098-.477 0-.575.312-.862.935-.862.143-.026.273-.04.392-.04.202 0 .383.036.544.107.206.487.31.944.31 1.37.677-.83 1.473-1.247 2.388-1.247h.107c.885 0 1.473.32 1.764.96a7.922 7.922 0 0 1 .622 3.063l-.01.057.01.132v1.346c0 .263.006.613.018 1.05.012.105.006.22-.018.346 0 .985.277 1.478.83 1.478v.09c-.227.706-.4 1.06-.518 1.06h-.73c-.582 0-.998-.513-1.248-1.536l.01-.5.097-.55-.01-.116a.197.197 0 0 1 .01-.172l-.107-.96v-1.15c0-.515.01-1.122.027-1.823-.243-.827-.564-1.24-.962-1.24-.83.07-1.454.517-1.87 1.338l-.205.674v1.05c0 .066.006.13.018.19l-.018.098c0 2.846-.38 4.474-1.14 4.885h-.107c-.83-.11-1.247-.268-1.247-.476zm9-3.052l.187-.1h.382c.697.127 1.045.448 1.045.964 0 .96.35 1.44 1.053 1.44.81 0 1.445-.61 1.902-1.827l.017-.182-.018-.197c-.468-.898-1.358-1.348-2.67-1.348h-.056c-.915 0-1.372-.672-1.372-2.015a8.108 8.108 0 0 1 .572-2.302c.125-.16.285-.346.48-.56l.908-.345h.106c1.763 0 2.76.397 2.987 1.192.126.253.188.606.188 1.06v.478h-.098a1.25 1.25 0 0 1-.14.008c-.635 0-1.065-.323-1.288-.97-.04-.17-.197-.33-.475-.477h-.67c-.696.056-1.044.536-1.044 1.44v.576c.142.5.68.787 1.617.863 1.225.427 1.924.94 2.098 1.537.11.143.204.527.286 1.152-.032.876-.323 1.577-.873 2.104-.13.236-.538.518-1.224.847-.245.127-.593.19-1.045.19l-1.33-.074c-.953-.33-1.43-.968-1.43-1.916l-.032-.066.033-.13v-.38zm11.554 3.106c.514-.597.77-1.467.77-2.61l.034-.043c.044-.033.033-.05-.033-.05.06-.812.09-1.318.09-1.517v-.04c-.01-.112-.016-.242-.016-.39v-1.352c0-.144.007-.25.018-.315.055-.11.05-.165-.017-.165.012-.774.048-1.16.11-1.16l-.01-.2v-2.703c0-.31.03-.632.092-.97a3.565 3.565 0 0 1-.09-.87v-.97a.59.59 0 0 0-.068-.398l-.09-.514c-.106-.166-.313-.28-.623-.34a.827.827 0 0 1-.09-.39v-.1c0-.193.29-.353.87-.48h.87c.427.166.684 1.1.772 2.802v1.26c0 .144.006.274.017.39.015.183.024.33.024.44 0 .165-.02.248-.058.248l.016.274-.1.68c0 .066.028.163.084.29V426.073c.033 0 .425-.133 1.177-.398h1.06c.886 0 1.596.614 2.132 1.84l.1 1.16v2.033c-.04 2.11-.493 3.335-1.36 3.672-.006.15-.52.245-1.542.29-.244 0-.857-.194-1.84-.58-.288.9-.708 1.35-1.26 1.35-.67-.397-1.015-.685-1.037-.862zm2.38-2.545c.165.404.33.62.496.647l.19.15c.454.325.97.488 1.55.488.582 0 .872-.613.872-1.84.066 0 .1-.42.1-1.26v-.29a.35.35 0 0 0-.034-.158l.034-.133v-.19c0-1.548-.29-2.322-.87-2.322-.388 0-.642-.006-.764-.017l-.19.034c-.133.038-.233.058-.3.058 0 .06-.292.196-.878.406-.127.67-.19 1.862-.19 3.58v.582c.055.177.05.265-.017.265zm5.82 7.67c.26-.454.42-.68.48-.68h.29c.464.32.82.48 1.07.48h.19c.85 0 1.465-1.385 1.84-4.154-1.293 0-2.1-.744-2.42-2.23-.514-1.676-.837-3.093-.97-4.254-.05 0-.21-.774-.48-2.32v-.68c.02-.128.085-.192.19-.192h.49c.58 0 .87.58.87 1.74.193.698.417 1.728.67 3.094.543 2.067 1.026 3.1 1.452 3.1l.49.09v-.09c.192-1.757.33-2.993.414-3.706.044-.237.066-.39.066-.456.492-2.448.88-3.672 1.16-3.672l.58-.29c.84.15 1.26.372 1.26.67v.1c-.762 0-1.472 2.805-2.13 8.415-.746 3.47-1.332 5.4-1.757 5.786-.265.37-1 .603-2.205.697l-.87-.49-.68-.48zm0 0" fill="#FBED91"/><g><path d="M0 269c0-16.57 13.45-30 30.043-30s30.044 13.43 30.044 30-13.45 30-30.044 30C13.45 299 0 285.57 0 269zm0 0" fill="#0DADEA"/><path d="M13.404 258.128l12.29-1.69v11.87h-12.29v-10.18zm12.29 11.7v11.737l-12.288-1.688v-10.05h12.287zm1.36-13.578l16.35-2.25v14.31h-16.35v-12.06zm16.35 13.578V284l-16.35-2.248v-11.924h16.35zm0 0" fill="#FFF"/><path d="M60.087 269c0 16.57-13.45 30-30.044 30a29.934 29.934 0 0 1-16.64-5.017L47.83 244.82c7.433 5.46 12.257 14.258 12.257 24.18zm0 0" fill-opacity=".08" fill="#000"/><path d="M79.114 269c0-16.57 13.45-30 30.044-30 16.592 0 30.043 13.43 30.043 30s-13.45 30-30.042 30c-16.593 0-30.044-13.43-30.044-30zm0 0" fill="#333"/><path d="M117.202 268.476c.04 4.538 3.91 6.048 3.956 6.07-.035.104-.62 2.15-2.042 4.265-1.23 1.83-2.502 3.648-4.51 3.686-1.975.038-2.61-1.19-4.866-1.19s-2.962 1.152-4.83 1.228c-1.937.073-3.413-1.974-4.65-3.796-2.534-3.723-4.468-10.524-1.868-15.115 1.288-2.28 3.594-3.723 6.096-3.76 1.904-.037 3.7 1.304 4.863 1.304 1.166 0 3.35-1.612 5.645-1.376.96.042 3.658.396 5.39 2.974-.14.09-3.22 1.913-3.183 5.712zm-3.71-11.15c-1.03 1.268-2.72 2.255-4.373 2.124-.225-1.723.61-3.518 1.564-4.642 1.063-1.267 2.86-2.21 4.34-2.272.19 1.758-.504 3.52-1.533 4.79zm0 0" fill="#FFF"/><path d="M139.2 269c0 16.57-13.45 30-30.042 30a29.934 29.934 0 0 1-16.64-5.017l34.425-49.164c7.434 5.46 12.258 14.258 12.258 24.18zm0 0" fill-opacity=".08" fill="#000"/><path d="M158.228 269c0-16.57 13.45-30 30.044-30 16.592 0 30.043 13.43 30.043 30s-13.45 30-30.043 30-30.044-13.43-30.044-30zm0 0" fill="#FFF"/><path d="M193.622 270.638L206 259v20.576zM172 259l12.377 11.637-12.377 8.94zm17 15.984l2.955-2.777L206 281h-34l14.045-8.793zM204.98 259L189 271.455 173.02 259zm0 0" fill="#333"/><path d="M218.315 269c0 16.57-13.45 30-30.043 30a29.934 29.934 0 0 1-16.64-5.017l34.425-49.164c7.434 5.46 12.258 14.258 12.258 24.18zm0 0" fill-opacity=".08" fill="#000"/><g><path d="M237.342 269c0-16.57 13.45-30 30.044-30 16.592 0 30.043 13.43 30.043 30s-13.452 30-30.044 30c-16.593 0-30.044-13.43-30.044-30zm0 0" fill="#80A34C"/><path d="M278.852 258.52c-1.08-.62-2.804.375-3.85 2.22l-1.897 3.34c-.693 1.39-.598 3.045.28 4.32l.054.08c.878 1.28 2.056 2.456 2.446 2.88.23.246.404.55.5.902.32 1.16-.35 2.363-1.494 2.688a2.15 2.15 0 0 1-2.653-1.513 2.197 2.197 0 0 1-.063-.866c.06-.48-.09-1.26-.77-2.025-.677-.766-2.064.68-2.512 2.17l-.02.066c-.45 1.49-.732 2.788-.648 2.913.05.074.096.156.14.234a2.48 2.48 0 0 1-1.004 3.326 2.412 2.412 0 0 1-3.282-1.016 2.474 2.474 0 0 1 1.166-3.403c.09-.04.347-.666.57-1.405l.402-1.34a4.42 4.42 0 0 0 .064-.233l1.197-4.33-1.282 2.662c-.152-.507-.403-.525-.952-.126-.332.24-.88.713-1.148.908-.503.364-.923 1.072-1.146 1.505-.13.256-.315.488-.55.68a2.12 2.12 0 0 1-3.007-.316 2.185 2.185 0 0 1 .313-3.045c.27-.22.575-.365.89-.435.54-.12 2.372-1.252 3.476-2.052a5.28 5.28 0 0 0 .5-.405l2.947-2.267-2.567 1.405s-.26-.026-.58.008c-.94.106-1.908.24-2.09.476-.11.14-.238.265-.387.374a1.896 1.896 0 0 1-2.67-.44 1.953 1.953 0 0 1 .435-2.703 1.886 1.886 0 0 1 1.17-.364c.686.023 2.497.388 4.004.12l.388-.07c1.513-.27 3.324-1.605 4.046-2.98l1.578-2.807c.872-1.55.807-3.25-.144-3.793l-1.722-.986c-.868-.498-2.29-.5-3.16-.002l-11.853 6.77c-.87.495-1.58 1.728-1.58 2.74v13.232c0 1.012.712 2.247 1.58 2.74l11.86 6.772c.868.5 2.29.5 3.16-.002l11.82-6.767c.868-.498 1.58-1.732 1.58-2.743V262.38c0-1.01-.712-2.244-1.58-2.74 0 0-.876-.505-1.956-1.12h.002zm0 0" fill="#FFF"/><path d="M297.43 269c0 16.57-13.452 30-30.044 30a29.934 29.934 0 0 1-16.64-5.017l34.426-49.164c7.433 5.46 12.257 14.258 12.257 24.18zm0 0" fill-opacity=".08" fill="#000"/></g><g><path d="M316.457 269c0-16.57 13.45-30 30.043-30 16.592 0 30.043 13.43 30.043 30s-13.45 30-30.043 30c-16.592 0-30.043-13.43-30.043-30zm0 0" fill="#0868AC"/><path d="M343.22 256.77c-1.278 2.166-1.437 4.834-.7 7.21.704 2.293 2.184 4.314 4.05 5.794l.12.095c.177.133.355.266.538.392.084.058.17.115.257.17.04.028.08.056.12.082.13.083.263.164.397.243.026.016.053.03.08.045.107.063.217.125.327.185l.15.078c.085.044.17.09.26.132.17.085.34.165.516.242.037.016.076.03.114.047.14.06.28.116.423.17a11.386 11.386 0 0 0 .57.202 12.22 12.22 0 0 0 .73.218c4.266 1.112 8.263-.31 10.327-3.294 0 0-2.29 7.662-12.208 6.013-.192-.032-.375-.104-.56-.162l-.174-.056c-.13-.044-.26-.088-.387-.135l-.18-.067a13.255 13.255 0 0 1-.422-.17c-.037-.017-.076-.032-.113-.048a12.628 12.628 0 0 1-.514-.24c-.12-.06-.202-.103-.283-.146-.042-.022-.084-.042-.126-.066a14.8 14.8 0 0 1-.35-.197l-.057-.034c-.135-.08-.268-.16-.4-.245-.04-.023-.076-.05-.116-.076-.082-.054-.164-.106-.245-.163-.2-.137-.378-.27-.554-.405l-.116-.09a13.23 13.23 0 0 1-.515-.428 12.89 12.89 0 0 1-.462-.43l-.114-.113a11.685 11.685 0 0 1-.43-.448c-.382-.333-.7-.826-.988-1.24a12.28 12.28 0 0 1-.85-1.422c-1.498-2.934-1.603-6.647.318-9.42m-6.172.588c-2.338 4.537-1.287 10.06 1.64 14.065a19.625 19.625 0 0 0 .426.563 17.12 17.12 0 0 0 1.177 1.344c.042.04.083.082.124.123a13.78 13.78 0 0 0 .437.427c.144.135.29.268.437.398a23.898 23.898 0 0 0 .61.51 18.426 18.426 0 0 0 .866.653l.126.09c.127.088.258.174.39.26.05.032.097.067.148.1.18.113.363.227.55.336.046.028.094.054.14.08.14.082.28.16.423.238.078.043.157.082.235.123.117.06.234.123.352.18.045.023.088.043.132.064.15.073.3.143.454.212l.107.048c.18.078.36.153.54.225l.14.054a17.74 17.74 0 0 0 1.29.444c.196.058.39.12.59.165 5.27 1.203 10.832.123 13.966-3.974 0 0-3.73 10.095-16.577 7.745-.203-.038-.397-.11-.593-.168-.046-.013-.093-.028-.138-.04a17.59 17.59 0 0 1-1.83-.683l-.1-.044c-.157-.07-.313-.143-.467-.217l-.12-.06c-.17-.082-.266-.134-.364-.185l-.23-.118c-.138-.076-.275-.153-.41-.232-.05-.03-.102-.057-.152-.086-.186-.11-.37-.223-.55-.337l-.15-.102c-.12-.076-.236-.153-.352-.232-.08-.056-.123-.087-.167-.12a17.995 17.995 0 0 1-.534-.39 18.323 18.323 0 0 1-.322-.252l-.16-.128c-.13-.108-.26-.217-.386-.327l-.074-.064c-.15-.133-.29-.262-.43-.394l-.128-.12a17.606 17.606 0 0 1-2.014-2.307c-.018-.026-.038-.05-.055-.075-.12-.168-.23-.326-.335-.484-.033-.048-.064-.098-.096-.148a15.393 15.393 0 0 1-.225-.352l-.11-.183c-.065-.11-.13-.222-.193-.333l-.106-.19c-.018-.034-.04-.07-.058-.105-.033-.062-.063-.124-.095-.185-.05-.096-.1-.192-.148-.29-2.03-4.07-2.36-9.054.295-12.884m16.027-6.81c-1.566 2.84-.075 6.326 2.326 8.154a7.97 7.97 0 0 0 2.122 1.15c.205.072.438.148.65.2 2.682.654 4.87.202 6.17-1.677-.395.57-1.88 4.452-7.357 3.39-.12-.022-.236-.065-.353-.102-.037-.01-.072-.023-.11-.034-.082-.027-.163-.054-.245-.085-1.982-.73-3.68-2.267-4.508-4.227-.786-1.847-.675-3.924.458-5.596" fill="#FFF"/><path d="M376.543 269c0 16.57-13.45 30-30.043 30a29.934 29.934 0 0 1-16.64-5.017l34.426-49.164c7.433 5.46 12.257 14.258 12.257 24.18zm0 0" fill-opacity=".08" fill="#000"/></g><g><path d="M395.57 269c0-16.57 13.452-30 30.044-30 16.593 0 30.044 13.43 30.044 30s-13.45 30-30.044 30c-16.592 0-30.043-13.43-30.043-30zm0 0" fill="#1EBBEE"/><path d="M438.812 263.544c4.583-10.563-4.91-9.015-5.44-8.91a23.84 23.84 0 0 0-5.59 1.86 13.342 13.342 0 0 0-.763-.023c-6.407 0-11.77 4.55-13.142 10.65 3.377-3.857 5.74-5.413 7.155-6.036-.226.206-.447.413-.665.623l-.214.21c-.143.14-.286.28-.426.423-.083.084-.164.17-.246.254l-.37.387-.253.276a33.957 33.957 0 0 0-1.44 1.668 39.6 39.6 0 0 0-.51.642c-.084.108-.168.215-.25.323-.078.1-.154.203-.23.305-.086.115-.173.23-.257.345l-.176.245a42.62 42.62 0 0 0-2.913 4.645c-1.214 2.24-1.805 3.806-1.83 3.9-3.835 13.957 8.132 8.063 9.8 7.183a13.23 13.23 0 0 0 5.965 1.414c5.86 0 10.848-3.81 12.705-9.13h-7.084c-1.047 1.802-3.065 3.023-5.383 3.023-3.397 0-6.15-2.62-6.15-5.853h19.282c.072-.58.11-1.17.11-1.768a13.86 13.86 0 0 0-1.688-6.656zm-.337-.583a13.587 13.587 0 0 0-6.584-5.564c1.248-.614 4.338-1.91 6.092-.706 1.16.798 2.092 2.05.493 6.27zm-24.19 11.75a13.717 13.717 0 0 0 5.87 7.306c-1.352.757-4.937 2.46-6.845.47-.945-.988-1.113-3.393.974-7.776zm12.884-12.154c3.3 0 5.984 2.515 6.092 5.657h-12.185c.108-3.142 2.793-5.657 6.092-5.657zm0 0" fill="#FFF"/><path d="M455.658 269c0 16.57-13.45 30-30.044 30a29.934 29.934 0 0 1-16.64-5.017L443.4 244.82c7.434 5.46 12.258 14.258 12.258 24.18zm0 0" fill-opacity=".08" fill="#000"/></g><g><path d="M474.685 269c0-16.57 13.45-30 30.043-30s30.044 13.43 30.044 30-13.45 30-30.044 30c-16.592 0-30.043-13.43-30.043-30zm0 0" fill="#FFF"/><path d="M499.59 269.567c0-3.074 2.432-5.574 5.42-5.574s5.42 2.5 5.42 5.574c0 3.072-2.432 5.572-5.42 5.572s-5.42-2.5-5.42-5.573zm0 0" fill="#125F98"/><path d="M504.926 276.557a6.8 6.8 0 0 1-4.39-1.624 7.108 7.108 0 0 1-2.158-3.235l-5.975-10.645c-2.145 3.393-2.906 7.44-2.143 11.42.778 4.052 3.044 7.55 6.38 9.85a14.71 14.71 0 0 0 5.725 2.377l4.928-8.57a6.72 6.72 0 0 1-2.367.427zm0 0" fill="#44A643"/><path d="M498.216 255.572c-1.942.992-3.648 2.4-5.01 4.12l5.044 8.988c.327-2.61 2.084-4.918 4.686-5.76a6.614 6.614 0 0 1 1.938-.32h13.683c-3.73-7.717-12.836-10.864-20.34-7.028zm0 0" fill="#D11F24"/><path d="M515.137 280.832c2.803-2.66 4.505-6.28 4.793-10.195a15.97 15.97 0 0 0-.935-6.644h-9.867c1.66 1.352 2.634 3.417 2.624 5.606a7.27 7.27 0 0 1-1.484 4.367l-6.29 10.938c.324.022.65.032.972.032 3.78 0 7.4-1.458 10.187-4.105zm0 0" fill="#F4CB08"/><path d="M534.772 269c0 16.57-13.45 30-30.044 30a29.934 29.934 0 0 1-16.64-5.017l34.426-49.164c7.434 5.46 12.258 14.258 12.258 24.18zm0 0" fill-opacity=".08" fill="#000"/></g><g><path d="M553.8 269c0-16.57 13.45-30 30.042-30 16.593 0 30.044 13.43 30.044 30s-13.45 30-30.044 30c-16.592 0-30.043-13.43-30.043-30zm0 0" fill="#A4C639"/><path d="M574.297 262.437c0-3.227 1.813-6.056 4.534-7.636l-1.508-2.77a.7.7 0 0 1 .266-.943.675.675 0 0 1 .927.27l1.546 2.84a10.04 10.04 0 0 1 3.782-.73c1.344 0 2.622.26 3.782.73l1.546-2.84a.675.675 0 0 1 .927-.27.7.7 0 0 1 .265.944l-1.508 2.77a9.318 9.318 0 0 1 3.197 3.055 8.526 8.526 0 0 1 1.338 4.69v.08h-19.09v-.08a2.44 2.44 0 0 1 0-.108zm19.09 14.845c0 1.297-1.032 2.35-2.307 2.35h-1.154v4.805c0 1.415-1.127 2.563-2.517 2.563-1.392 0-2.52-1.148-2.52-2.563v-4.806h-2.097v4.807c0 1.415-1.127 2.563-2.517 2.563s-2.517-1.148-2.517-2.563v-4.806h-1.155c-1.275 0-2.308-1.05-2.308-2.348v-14.286h19.09v14.286zM573.878 265v9.078c0 1.415-1.127 2.563-2.517 2.563s-2.518-1.147-2.518-2.562V265c0-1.415 1.128-2.563 2.518-2.563s2.517 1.148 2.517 2.563zm5.98-6.94a.423.423 0 0 0-.42-.43c-.232 0-.42.193-.42.43 0 .234.188.426.42.426.232 0 .42-.192.42-.427zM598.84 265v9.078c0 1.415-1.127 2.563-2.517 2.563s-2.518-1.147-2.518-2.562V265c0-1.415 1.128-2.563 2.518-2.563s2.517 1.148 2.517 2.563zm-10.174-6.94a.423.423 0 0 0-.42-.43c-.232 0-.42.193-.42.43 0 .234.188.426.42.426.232 0 .42-.192.42-.427zm0 0" fill="#FFF"/><path d="M613.886 269c0 16.57-13.45 30-30.044 30a29.934 29.934 0 0 1-16.638-5.017l34.424-49.164c7.434 5.46 12.258 14.258 12.258 24.18zm0 0" fill-opacity=".08" fill="#000"/></g><g><path d="M632.913 269c0-16.57 13.45-30 30.044-30C679.55 239 693 252.43 693 269s-13.45 30-30.043 30-30.044-13.43-30.044-30zm0 0" fill="#1F60AA"/><path d="M661.412 251.822c.13-.258.204-.552.204-.864 0-1.036-.808-1.876-1.805-1.876-.995 0-1.804.84-1.804 1.876 0 .58.254 1.1.653 1.444-7.268 2.18-12.582 9.147-12.582 17.403 0 10.004 7.8 18.113 17.422 18.113 9.62 0 17.42-8.11 17.42-18.113s-7.8-18.113-17.42-18.113c-.707 0-1.403.045-2.088.13zm-.502-.88a1.09 1.09 0 0 1-1.1 1.082 1.09 1.09 0 0 1-1.097-1.082 1.09 1.09 0 0 1 1.098-1.082c.608 0 1.1.484 1.1 1.082zm-11.536 18.863c0-8.11 6.324-14.686 14.126-14.686 7.8 0 14.125 6.574 14.125 14.685 0 8.11-6.324 14.687-14.125 14.687-7.802 0-14.126-6.576-14.126-14.687zm0 0" fill="#FFF"/><path d="M666.826 267.96c-.04-.068-.082-.146-.128-.223l4.464-6.708-6 5.26a3.635 3.635 0 0 0-1.135-.362l-1.722-4.112-.415 4.448a3.77 3.77 0 0 0-1.004.723l-1.716-.768 1.102 1.567c-.26.446-.434.95-.504 1.49l-3.913 1.77 4.237.427c.062.138.132.27.21.4l-4.464 6.708 5.99-5.267c.406.21.854.345 1.327.39l1.696 4.05.42-4.492c.318-.177.61-.4.865-.66l1.748.78-1.13-1.605a4 4 0 0 0 .496-1.596l3.934-1.782-4.358-.44zm-3.326-1.58c.447 0 .873.092 1.262.26l-2.347 2.057-1.818 2.732a3.52 3.52 0 0 1-.393-1.625c0-1.892 1.475-3.426 3.296-3.426zm-1.275 6.586l2.396-2.107 1.782-2.678a3.52 3.52 0 0 1 .394 1.623c0 1.893-1.476 3.427-3.296 3.427-.452 0-.883-.095-1.275-.266zm0 0" fill="#FFF"/><path d="M693 269c0 16.57-13.45 30-30.043 30a29.934 29.934 0 0 1-16.64-5.017l34.425-49.164C688.176 250.28 693 259.077 693 269zm0 0" fill-opacity=".08" fill="#000"/></g><g><path d="M0 190c0-16.57 13.45-30 30.043-30s30.044 13.43 30.044 30-13.45 30-30.044 30C13.45 220 0 206.57 0 190zm0 0" fill="#FD6007"/><path d="M17 185.72v9.565C17 200.1 20.933 204 25.78 204h9.45c4.85 0 8.77-3.9 8.77-8.715v-6.18c0-.963-.776-1.744-1.746-1.744h-1.482c-.958 0-1.713-.717-1.777-1.62-.01-4.838-3.94-8.74-8.79-8.74H25.78c-4.847 0-8.777 3.902-8.78 8.72zm14.217-1.356c.957 0 1.738.823 1.738 1.84 0 1.015-.78 1.84-1.738 1.84H26.1c-.956 0-1.736-.825-1.736-1.84 0-1.017.78-1.84 1.737-1.84h5.117zm5.005 8.59c.904 0 1.642.818 1.642 1.833 0 1.016-.738 1.85-1.642 1.85H25.995c-.904 0-1.63-.834-1.63-1.85 0-1.015.726-1.832 1.63-1.832h10.227zm0 0" fill="#FFF"/><path d="M60.087 190c0 16.57-13.45 30-30.044 30a29.934 29.934 0 0 1-16.64-5.017L47.83 165.82c7.433 5.46 12.257 14.258 12.257 24.18zm0 0" fill-opacity=".08" fill="#000"/><path d="M79.114 190c0-16.57 13.45-30 30.044-30 16.592 0 30.043 13.43 30.043 30s-13.45 30-30.042 30c-16.593 0-30.044-13.43-30.044-30zm0 0" fill="#0B6DBB"/><path d="M100.027 181.013l-.873 4.447h17.767l-.554 2.872h-17.78l-.86 4.446h17.766l-.99 5.07-7.16 2.416-6.206-2.416.424-2.2h-4.364l-1.038 5.338 10.263 4 11.833-4 1.57-8.028.318-1.61 2.018-10.335h-22.13zm0 0" fill="#FFF"/><path d="M139.2 190c0 16.57-13.45 30-30.042 30a29.934 29.934 0 0 1-16.64-5.017l34.425-49.164c7.434 5.46 12.258 14.258 12.258 24.18zm0 0" fill-opacity=".08" fill="#000"/><path d="M158.228 190c0-16.57 13.45-30 30.044-30 16.592 0 30.043 13.43 30.043 30s-13.45 30-30.043 30-30.044-13.43-30.044-30zm0 0" fill="#E24628"/><path d="M177.865 204l10.62 3 10.645-3.004L201.5 177h-26l2.365 27zm6.03-18.17l.297 3.392h11.863l-.894 10.166-6.66 1.88-6.683-1.88-.456-5.2h3.27l.23 2.643 3.625.995 3.634-.998.376-4.294h-11.28l-.88-10.013h16.306l-.292 3.31h-12.455zm0 0" fill="#FFF"/><path d="M218.315 190c0 16.57-13.45 30-30.043 30a29.934 29.934 0 0 1-16.64-5.017l34.425-49.164c7.434 5.46 12.258 14.258 12.258 24.18zm0 0" fill-opacity=".08" fill="#000"/><g><path d="M237.342 190c0-16.57 13.45-30 30.044-30 16.592 0 30.043 13.43 30.043 30s-13.452 30-30.044 30c-16.593 0-30.044-13.43-30.044-30zm0 0" fill="#FFF"/><path d="M267 177h-8.666a4.347 4.347 0 0 0-4.334 4.334v17.332a4.346 4.346 0 0 0 4.334 4.334h17.334a4.344 4.344 0 0 0 4.332-4.334v-17.332a4.345 4.345 0 0 0-4.332-4.334H267zm8.668 24.7H267V190h-11.7v-8.666a3.037 3.037 0 0 1 3.034-3.034H267V190h11.7v8.666a3.036 3.036 0 0 1-3.032 3.034zm0 0" fill="#333"/><path d="M297.43 190c0 16.57-13.452 30-30.044 30a29.934 29.934 0 0 1-16.64-5.017l34.426-49.164c7.433 5.46 12.257 14.258 12.257 24.18zm0 0" fill-opacity=".08" fill="#000"/></g><g><path d="M316.457 190c0-16.57 13.45-30 30.043-30 16.592 0 30.043 13.43 30.043 30s-13.45 30-30.043 30c-16.592 0-30.043-13.43-30.043-30zm0 0" fill="#993E9F"/><path d="M332.582 195.734l6.197-5.82v13.324a15.43 15.43 0 0 1-6.198-7.504zm20.1-9.51l-11.42-10.708c1.69-.66 3.447-1.016 5.236-1.016 2.15 0 4.224.474 6.184 1.39v10.333zm-7.342-4.68l-13.295 12.482c-.35-1.34-.545-2.692-.545-4.026 0-5.846 3.127-11.106 8.163-13.78l5.677 5.323zm-4.986 15.193h19.614c-2.497 5.323-7.75 8.763-13.47 8.763-2.13 0-4.194-.46-6.144-1.37v-7.393zM361.5 190c0 1.74-.296 3.453-.856 5.104h-6.382V176.78c4.464 2.806 7.238 7.835 7.238 13.22zm0 0" fill="#FFF"/><path d="M376.543 190c0 16.57-13.45 30-30.043 30a29.934 29.934 0 0 1-16.64-5.017l34.426-49.164c7.433 5.46 12.257 14.258 12.257 24.18zm0 0" fill-opacity=".08" fill="#000"/></g><g><path d="M395.57 190c0-16.57 13.452-30 30.044-30 16.593 0 30.044 13.43 30.044 30s-13.45 30-30.044 30c-16.592 0-30.043-13.43-30.043-30zm0 0" fill="#E00024"/><path d="M436.988 200.38c-3.645-.015-5.588-1.81-6.938-4.973l-.386-.863-3.328-7.64c-1.104-2.704-3.843-4.53-6.933-4.53-4.18 0-7.574 3.415-7.574 7.628 0 4.212 3.392 7.628 7.573 7.628 2.917 0 5.453-1.66 6.72-4.095l1.345 3.125a10.377 10.377 0 0 1-8.065 3.84c-5.76 0-10.428-4.697-10.428-10.498 0-5.8 4.67-10.502 10.428-10.502 4.346 0 7.856 2.337 9.64 6.478.134.32 1.884 4.442 3.41 7.95.946 2.17 1.753 3.61 4.367 3.7 2.57.088 4.333-1.487 4.333-3.477 0-1.944-1.345-2.41-3.615-3.17-4.08-1.354-6.186-2.714-6.186-5.97 0-3.18 2.147-5.298 5.636-5.298 2.273 0 3.914 1.018 5.05 3.05l-2.23 1.146c-.84-1.185-1.767-1.652-2.945-1.652-1.638 0-2.807 1.147-2.807 2.672 0 2.166 1.924 2.493 4.614 3.38 3.622 1.19 5.305 2.545 5.305 5.932 0 3.556-3.03 6.145-6.987 6.14zm0 0" fill="#FFF"/><path d="M455.658 190c0 16.57-13.45 30-30.044 30a29.934 29.934 0 0 1-16.64-5.017L443.4 165.82c7.434 5.46 12.258 14.258 12.258 24.18zm0 0" fill-opacity=".08" fill="#000"/></g><g><path d="M474.685 190c0-16.57 13.45-30 30.043-30s30.044 13.43 30.044 30-13.45 30-30.044 30c-16.592 0-30.043-13.43-30.043-30zm0 0" fill="#FFF"/><path d="M524.728 189.59c0-2.615-2.047-4.743-4.563-4.743a4.442 4.442 0 0 0-2.978 1.154c-3.098-2.09-7.108-3.31-11.4-3.483l2.267-7.687 6.597 1.535-.002.055c0 2.162 1.692 3.92 3.77 3.92 2.08 0 3.772-1.758 3.772-3.92 0-2.16-1.692-3.92-3.77-3.92-1.564 0-2.907.993-3.478 2.404l-7.222-1.68a.715.715 0 0 0-.843.51l-2.586 8.767c-4.524.076-8.773 1.31-12.02 3.502a4.442 4.442 0 0 0-2.98-1.155c-2.515 0-4.562 2.128-4.562 4.744 0 1.717.88 3.222 2.197 4.056a9.05 9.05 0 0 0-.103 1.35c0 3.4 1.903 6.575 5.358 8.937 3.362 2.3 7.818 3.567 12.548 3.567s9.186-1.267 12.55-3.567c3.454-2.363 5.356-5.537 5.356-8.936a9.03 9.03 0 0 0-.102-1.35c1.316-.835 2.196-2.34 2.196-4.056zm-6.31-15.598c1.29 0 2.336 1.09 2.336 2.428 0 1.34-1.047 2.43-2.335 2.43-1.29 0-2.337-1.09-2.337-2.43s1.048-2.428 2.336-2.428zm-32.255 15.6c0-1.794 1.403-3.253 3.128-3.253.654 0 1.26.21 1.762.566-1.836 1.51-3.112 3.28-3.753 5.19a3.298 3.298 0 0 1-1.137-2.505zm18.565 16.416c-9.082 0-16.47-4.94-16.47-11.012a7.614 7.614 0 0 1 .342-2.237c.55-1.78 1.747-3.403 3.417-4.757.37-.3.765-.588 1.18-.86 2.974-1.95 7.045-3.156 11.53-3.156 4.487 0 8.56 1.205 11.532 3.156.414.272.81.56 1.18.86 1.67 1.353 2.866 2.978 3.417 4.758a7.602 7.602 0 0 1 .342 2.236c0 6.072-7.39 11.012-16.472 11.012zm17.43-13.912c-.642-1.91-1.917-3.68-3.754-5.19a3.028 3.028 0 0 1 1.76-.567c1.726 0 3.13 1.458 3.13 3.25 0 1.008-.443 1.91-1.137 2.506zm-11.963 7.672c-1.36 1.16-3.046 1.676-5.467 1.676-2.42 0-4.107-.517-5.467-1.676a.734.734 0 0 0-1.06.11.805.805 0 0 0 .106 1.102c1.626 1.385 3.666 2.03 6.422 2.03s4.797-.645 6.422-2.03a.805.805 0 0 0 .105-1.103.734.734 0 0 0-1.06-.11zm0 0" fill="#333"/><path d="M501.456 192.763c0-1.56-1.215-2.822-2.713-2.822-1.5 0-2.715 1.264-2.715 2.823 0 1.558 1.216 2.82 2.715 2.82 1.498 0 2.713-1.262 2.713-2.82zm0 0M510.842 189.94c-1.5 0-2.714 1.264-2.714 2.823 0 1.558 1.215 2.82 2.714 2.82 1.5 0 2.714-1.262 2.714-2.82 0-1.56-1.215-2.822-2.714-2.822zm0 0" fill="#FC3A06"/><path d="M534.772 190c0 16.57-13.45 30-30.044 30a29.934 29.934 0 0 1-16.64-5.017l34.426-49.164c7.434 5.46 12.258 14.258 12.258 24.18zm0 0" fill-opacity=".08" fill="#000"/></g><g><path d="M553.8 190c0-16.57 13.45-30 30.042-30 16.593 0 30.044 13.43 30.044 30s-13.45 30-30.044 30c-16.592 0-30.043-13.43-30.043-30zm0 0" fill="#FD6312"/><path d="M566.04 191.667c-.075 0-.136.064-.145.154l-.267 2.175.267 2.137c.01.09.07.153.146.153.074 0 .134-.063.146-.152l.316-2.138-.316-2.175c-.01-.09-.072-.153-.145-.153zm2.147-1.346c-.077 0-.14.068-.152.16l-.358 3.515.358 3.437c.01.093.074.16.152.16.076 0 .14-.066.15-.16l.41-3.437-.408-3.516c-.014-.094-.076-.16-.153-.16zm2.075-.836c-.113 0-.205.097-.214.227l-.322 4.286.322 4.146c.008.13.1.226.214.226.11 0 .203-.098.213-.226l.365-4.146-.365-4.286c-.01-.13-.102-.226-.213-.226zm2.06.278c-.13 0-.235.11-.244.26l-.302 3.974.302 4.18c.01.148.114.26.245.26.13 0 .235-.112.245-.26l.344-4.18-.344-3.977c-.01-.148-.115-.258-.245-.258zm2.064-2.526c-.147 0-.27.13-.276.294l-.285 6.468.285 4.18a.307.307 0 0 0 .294.292c.147 0 .295-.13.295-.293l.303-4.18-.332-6.467c-.008-.164-.138-.294-.284-.294zm2.062-1.51c-.166 0-.3.143-.308.326l-.266 7.947.267 4.153c.008.18.142.325.308.325.163 0 .3-.144.306-.327l.3-4.15-.3-7.948c-.008-.184-.143-.327-.306-.327zm2.074-1.02c-.202 0-.364.172-.37.393l-.23 8.9.23 4.085c.007.22.204.392.405.392.2 0 .404-.173.404-.393l.224-4.084-.276-8.9a.402.402 0 0 0-.386-.395zm2.075.477c-.237 0-.427.202-.432.462l-.192 8.357.192 4.02c.005.257.2.46.437.46a.45.45 0 0 0 .436-.462v.003l.21-4.02-.218-8.36c-.005-.258-.196-.46-.433-.46zm2.12-2.555c-.268 0-.49.238-.493.53l-.202 10.846.202 3.936c.004.288.25.525.518.525a.535.535 0 0 0 .518-.53v.005l.195-3.936-.232-10.848c-.004-.29-.237-.528-.505-.528zm14.86 6.24c-.615 0-1.2.135-1.734.375-.357-4.34-3.743-7.743-7.874-7.743-1.012 0-1.992.214-2.863.575-.338.14-.426.286-.426.566v15.283c0 .295.212.54.48.57l12.417.007c2.475 0 4.48-2.156 4.48-4.815 0-2.66-2.007-4.816-4.48-4.816zm0 0" fill="#FFF"/><path d="M613.886 190c0 16.57-13.45 30-30.044 30a29.934 29.934 0 0 1-16.638-5.017l34.424-49.164c7.434 5.46 12.258 14.258 12.258 24.18zm0 0" fill-opacity=".08" fill="#000"/></g><g><path d="M632.913 190c0-16.57 13.45-30 30.044-30C679.55 160 693 173.43 693 190s-13.45 30-30.043 30-30.044-13.43-30.044-30zm0 0" fill="#6A026E"/><path d="M678.98 182.027l-1.455 2.23H675c-.326.074-.614.156-.807.197-.858.24-8.693 6.58-9.21 8.134-.113.536.012 5.735.126 6.515.515.12 4.243.014 4.927.133l-.083 1.607c-.67-.053-5.406-.042-8.11-.042-1.372 0-5.787.158-7.142.117l.256-1.53c.743-.058 3.822.14 4.497-.608.337-.373.23-5.32.117-6.155-.285-.893-7.152-9.866-8.946-11.33H646v-2.23h15.575v2.23h-4.68c2.096 3.183 5.1 7.042 6.383 8.893l6.283-5.93h-3.733l-.527-2.23zm-2.88 16.31l1.348.173 1.208.063-.336 2.354-1.145-.09-1.063-.095zm.363-1.58l-.057-10.157c.48.098 4.187.464 4.594.48l-2.44 9.853zm0 0" fill="#FFF"/><path d="M693 190c0 16.57-13.45 30-30.043 30a29.934 29.934 0 0 1-16.64-5.017l34.425-49.164C688.176 171.28 693 180.077 693 190zm0 0" fill-opacity=".08" fill="#000"/></g></g><g><path d="M0 110c0-16.57 13.45-30 30.043-30s30.044 13.43 30.044 30-13.45 30-30.044 30C13.45 140 0 126.57 0 110zm0 0" fill="#444"/><path d="M39.145 126.615l5.915-16.727c.916-2.59 1.766-6.088 1.662-8.905A18.824 18.824 0 0 1 49.007 110c0 7.163-3.986 13.398-9.862 16.615zm-9.102-35.55c4.947 0 9.452 1.892 12.828 4.99-1.653-.043-3.305.94-3.373 3.188-.14 4.548 5.446 5.516 2.436 14.663l-2.49 7.566-6.78-19.94c-.104-.31.02-.485.398-.485h1.918c.1 0 .18-.085.18-.19v-1.133c0-.104-.08-.193-.18-.19-3.63.16-7.238.16-10.824 0-.1-.003-.18.086-.18.19v1.134c0 .104.08.19.18.19h1.927c.43 0 .55.142.65.417l2.787 7.608-4.19 12.634-6.888-20.26c-.087-.252.017-.4.262-.4h2.196c.1 0 .18-.085.18-.19v-1.133c0-.104-.08-.194-.18-.188-2.304.122-4.617.146-6.77.168 3.38-5.2 9.246-8.64 15.915-8.64zm-5.515 37.056l5.843-16.717 6.023 16.444a18.942 18.942 0 0 1-6.35 1.09c-1.918 0-3.77-.286-5.515-.816zm5.515 3.902c-12.178 0-22.054-9.86-22.054-22.022 0-12.16 9.875-22.022 22.053-22.022S52.098 97.838 52.098 110c0 12.16-9.877 22.022-22.055 22.022zm-17.26-29.875l9.146 24.97c-6.414-3.036-10.85-9.56-10.85-17.117 0-2.8.61-5.46 1.704-7.853zm17.26 28.566c11.454 0 20.743-9.276 20.743-20.713 0-11.438-9.29-20.713-20.743-20.713C18.59 89.287 9.3 98.562 9.3 110c0 11.437 9.29 20.713 20.743 20.713zm0 0" fill="#FFF"/><path d="M60.087 110c0 16.57-13.45 30-30.044 30a29.934 29.934 0 0 1-16.64-5.017L47.83 85.82c7.433 5.46 12.257 14.258 12.257 24.18zm0 0" fill-opacity=".08" fill="#000"/><path d="M79.114 110c0-16.57 13.45-30 30.044-30 16.592 0 30.043 13.43 30.043 30s-13.45 30-30.042 30c-16.593 0-30.044-13.43-30.044-30zm0 0" fill="#E18F00"/><path d="M116.42 122.27h-5.117c0-3.325-1.295-6.454-3.64-8.796a12.354 12.354 0 0 0-8.788-3.642v-5.088c9.672 0 17.546 7.862 17.546 17.526zm-10.463-3.513a3.528 3.528 0 0 1-3.543 3.52 3.528 3.528 0 0 1-3.54-3.52 3.54 3.54 0 0 1 7.083 0zm19.492 3.51h-5.112c0-11.828-9.63-21.455-21.463-21.455v-5.09c14.65 0 26.574 11.913 26.574 26.546zm0 0" fill="#FFF"/><path d="M139.2 110c0 16.57-13.45 30-30.042 30a29.934 29.934 0 0 1-16.64-5.017l34.425-49.164c7.434 5.46 12.258 14.258 12.258 24.18zm0 0" fill-opacity=".08" fill="#000"/><path d="M157.114 109.5c0-16.57 13.45-30 30.044-30 16.592 0 30.043 13.43 30.043 30s-13.45 30-30.042 30c-16.593 0-30.044-13.43-30.044-30zm0 0" fill="#D34836"/><path d="M216.267 102.594h-7.104v7.883h-3.35v-7.883H198v-3.28h7.814V91.5h3.35v7.813h5.964a29.77 29.77 0 0 1 1.14 3.28zm0 0" fill="#FFF"/><path d="M165.368 128.915c.84-1.41 2.142-2.797 4.072-3.937 4.354-2.664 10.218-3.016 13.39-3.217-.982-1.256-2.115-2.588-2.115-4.774 0-1.18.352-1.885.705-2.714-.78.075-1.535.15-2.24.15-7.425 0-11.628-5.528-11.628-10.982 0-3.217 1.485-6.79 4.48-9.377 4.002-3.284 8.76-3.845 12.534-3.845h14.42l-4.48 2.516h-4.328c1.61 1.33 4.958 4.127 4.958 9.45 0 5.177-2.944 7.614-5.864 9.926-.93.905-1.963 1.885-1.963 3.418 0 1.533 1.03 2.388 1.81 3.016l2.518 1.96c3.096 2.564 5.89 4.95 5.89 9.777 0 3.183-1.488 6.377-4.385 8.828-1.56.254-3.16.387-4.79.392 2.944-1.29 4.468-3.647 4.468-6.48 0-3.57-2.29-5.454-7.625-9.248-.554-.05-.906-.05-1.61-.05-.63 0-4.405.125-7.35 1.105-1.535.553-6.015 2.237-6.015 7.213 0 .54.058 1.065.17 1.57-7.38-5.466-4.182-4.695-5.022-4.695zM188.97 105.4c0-5.05-2.995-12.875-8.81-12.875-1.81 0-3.774.91-4.906 2.31-1.183 1.468-1.536 3.353-1.536 5.162 0 4.7 2.72 12.465 8.76 12.465 1.736 0 3.623-.854 4.756-1.96 1.61-1.608 1.736-3.845 1.736-5.102zm0 0" fill="#FFF"/><path d="M217.267 109.68c0 16.57-13.45 30-30.043 30a29.934 29.934 0 0 1-16.64-5.017L205.01 85.5c7.433 5.46 12.257 14.258 12.257 24.18zm0 0" fill-opacity=".08" fill="#000"/><g><path d="M237.342 109.5c0-16.57 13.45-30 30.044-30 16.592 0 30.043 13.43 30.043 30s-13.452 30-30.044 30c-16.593 0-30.044-13.43-30.044-30zm0 0" fill="#FF0084"/><path d="M259.875 103.5a6.504 6.504 0 0 0-6.51 6.5c0 3.59 2.915 6.5 6.51 6.5 3.595 0 6.51-2.91 6.51-6.5s-2.915-6.5-6.51-6.5zm0 0M269.39 110c0-3.59 2.913-6.5 6.508-6.5s6.51 2.91 6.51 6.5-2.915 6.5-6.51 6.5a6.505 6.505 0 0 1-6.51-6.5zm2 0a4.5 4.5 0 1 0 9 0 4.5 4.5 0 0 0-9 0zm0 0" fill="#FFF"/><path d="M297.2 109.68c0 16.57-13.45 30-30.042 30a29.934 29.934 0 0 1-16.64-5.017L284.944 85.5c7.434 5.46 12.258 14.258 12.258 24.18zm0 0" fill-opacity=".08" fill="#000"/></g><g><path d="M316.457 109.5c0-16.57 13.45-30 30.043-30 16.592 0 30.043 13.43 30.043 30s-13.45 30-30.043 30c-16.592 0-30.043-13.43-30.043-30zm0 0" fill="#007BB6"/><path d="M338.843 103.21h-6.8v20.427h6.8V103.21zm0 0M339.29 96.89c-.044-2.002-1.476-3.527-3.802-3.527s-3.846 1.525-3.846 3.528c0 1.962 1.475 3.532 3.758 3.532h.043c2.37 0 3.847-1.57 3.847-3.53zm0 0M363.36 111.925c0-6.275-3.353-9.195-7.827-9.195-3.61 0-5.225 1.983-6.128 3.374v-2.894h-6.8c.09 1.917 0 20.427 0 20.427h6.8V112.23c0-.61.044-1.22.224-1.657.49-1.22 1.61-2.483 3.487-2.483 2.462 0 3.445 1.873 3.445 4.618v10.93h6.8v-11.713zm0 0" fill="#FFF"/><path d="M376.543 109.5c0 16.57-13.45 30-30.043 30a29.934 29.934 0 0 1-16.64-5.017l34.426-49.164c7.433 5.46 12.257 14.258 12.257 24.18zm0 0" fill-opacity=".08" fill="#000"/></g><g><path d="M395.57 110c0-16.57 13.452-30 30.044-30 16.593 0 30.044 13.43 30.044 30s-13.45 30-30.044 30c-16.592 0-30.043-13.43-30.043-30zm0 0" fill="#12A5F4"/><path d="M441.21 110.58c0 .704-.052 1.396-.143 2.076a9.216 9.216 0 0 1 1.572 5.17c0 5.066-4.054 9.174-9.057 9.174a8.962 8.962 0 0 1-4.785-1.383c-.896.164-1.817.257-2.763.257-8.382 0-15.174-6.847-15.174-15.294 0-.82.065-1.624.19-2.41a9.218 9.218 0 0 1-1.46-4.995c0-5.068 4.052-9.175 9.056-9.175 1.825 0 3.52.548 4.945 1.49.796-.133 1.612-.203 2.445-.203 8.38 0 15.175 6.848 15.175 15.294zm-22.908 8.99c2.07 1.978 4.328 3.066 9.154 2.81 4.83-.257 9.16-4.598 7.464-8.686-1.693-4.088-6.396-4.534-10.787-5.62-4.39-1.087-1.986-4.91 1.57-4.854 3.448.056 5.205 3.767 6.77 3.576 1.57-.193 2.904-2.585.44-4.725-2.133-1.852-4.828-2.873-8.968-2.49-3.248.3-6.334 2.428-6.71 6.577-.376 4.153 4.454 6.26 8.28 6.836 2.678.4 6.333 1.723 4.138 4.277-2.016 2.347-5.833.895-6.836.257-1.004-.64-2.134-2.94-4.015-2.81-1.883.127-2.81 2.645-.5 4.854zm0 0" fill="#FFF"/><path d="M455.658 110c0 16.57-13.45 30-30.044 30a29.934 29.934 0 0 1-16.64-5.017L443.4 85.82c7.434 5.46 12.258 14.258 12.258 24.18zm0 0" fill-opacity=".08" fill="#000"/></g><g><path d="M474.685 110c0-16.57 13.45-30 30.043-30s30.044 13.43 30.044 30-13.45 30-30.044 30c-16.592 0-30.043-13.43-30.043-30zm0 0" fill="#3D9AE8"/><path d="M515.14 118.51v1.687l-10.436 6.76-10.203-6.806v-1.588l3.053 1.806.34.2.313-.24 6.592-5.05 6.59 5.05.316.24.34-.203 3.095-1.854zm0 0" fill="#FFF"/><path d="M511.906 95.044l10.34 6.597-6.787 5.647 6.785 5.808-7.106 4.257-3.396 2.035-6.946-5.324-6.948 5.324-3.35-1.98-7.288-4.312 7.326-5.566-7.326-5.566 10.638-6.92 6.948 5.952zm2.948 12.018l-10.035-5.757-10.155 6.126 10.063 6.332zm0 0" fill="#FFF"/><path d="M534.772 110c0 16.57-13.45 30-30.044 30a29.934 29.934 0 0 1-16.64-5.017l34.426-49.164c7.434 5.46 12.258 14.258 12.258 24.18zm0 0" fill-opacity=".08" fill="#000"/></g><g><path d="M553.8 110c0-16.57 13.45-30 30.042-30 16.593 0 30.044 13.43 30.044 30s-13.45 30-30.044 30c-16.592 0-30.043-13.43-30.043-30zm0 0" fill="#4E83B7"/><path d="M574.623 107.86h2.794v8.37c.22 6.844 3.988 8.27 8.38 8.742 2.555-.127 5.684-1.072 7.265-2.325v-4.743c-2.035 1.974-7.495 3.91-8.475-1.674l-.093-8.462 8.568.093v-5.67h-8.568l.187-7.162-3.445.093c.237 6.11-3.014 6.927-6.612 7.162v5.58zm0 0" fill="#FFF"/><path d="M613.886 110c0 16.57-13.45 30-30.044 30a29.934 29.934 0 0 1-16.638-5.017l34.424-49.164c7.434 5.46 12.258 14.258 12.258 24.18zm0 0" fill-opacity=".08" fill="#000"/></g><g><path d="M632.913 110c0-16.57 13.45-30 30.044-30C679.55 80 693 93.43 693 110s-13.45 30-30.043 30-30.044-13.43-30.044-30zm0 0" fill="#31723E"/><path d="M661.55 117.463l-3.658-2.503.573-.85 3.084 2.106v-5.982h3.278v3.827l3.01-1.586.514.94-3.524 1.862v2.753l5.644-2.824.45.91-6.094 3.048v5.883h13.235l-14.936-35.754-14.937 35.754h13.36v-7.584zm0 0" fill="#FFF"/><path d="M693 110c0 16.57-13.45 30-30.043 30a29.934 29.934 0 0 1-16.64-5.017l34.425-49.164C688.176 91.28 693 100.077 693 110zm0 0" fill-opacity=".08" fill="#000"/></g></g><g><path d="M0 30C0 13.43 13.45 0 30.043 0s30.044 13.43 30.044 30-13.45 30-30.044 30C13.45 60 0 46.57 0 30zm0 0" fill="#4099FF"/><path d="M29.3 23.888l.063 1.038-1.05-.127c-3.82-.488-7.155-2.14-9.988-4.916l-1.385-1.377-.357 1.017c-.755 2.267-.273 4.66 1.3 6.27.84.89.652 1.018-.796.488-.504-.17-.944-.297-.986-.233-.146.147.357 2.075.756 2.838.546 1.06 1.658 2.097 2.875 2.71l1.03.49-1.218.02c-1.175 0-1.217.02-1.09.466.42 1.377 2.076 2.84 3.923 3.474l1.3.445-1.132.678a11.815 11.815 0 0 1-5.624 1.57c-.945.02-1.722.105-1.722.168 0 .212 2.56 1.398 4.05 1.864 4.47 1.377 9.78.784 13.766-1.567 2.833-1.674 5.666-5 6.988-8.22.713-1.716 1.427-4.85 1.427-6.356 0-.975.062-1.102 1.237-2.267.692-.678 1.343-1.42 1.47-1.632.21-.4.188-.4-.883-.04-1.783.635-2.035.55-1.154-.403.65-.678 1.427-1.907 1.427-2.267 0-.064-.315.042-.67.233-.38.212-1.218.53-1.848.72l-1.134.36-1.028-.7c-.567-.38-1.364-.804-1.784-.93-1.07-.298-2.707-.255-3.672.084-2.623.953-4.28 3.41-4.092 6.1zm0 0" fill="#FFF"/><path d="M60.087 30c0 16.57-13.45 30-30.044 30a29.934 29.934 0 0 1-16.64-5.017L47.83 5.82C55.262 11.28 60.086 20.077 60.086 30zm0 0" fill-opacity=".08" fill="#000"/><path d="M79.114 30c0-16.57 13.45-30 30.044-30C125.75 0 139.2 13.43 139.2 30s-13.45 30-30.042 30c-16.593 0-30.044-13.43-30.044-30zm0 0" fill="#3B5998"/><path d="M111.67 46.32V29.998h4.505l.597-5.624h-5.102l.007-2.816c0-1.466.14-2.253 2.247-2.253h2.816V13.68h-4.506c-5.412 0-7.317 2.73-7.317 7.317v3.377h-3.374V30h3.374v16.32h6.753zm0 0" fill="#FFF"/><path d="M139.2 30c0 16.57-13.45 30-30.042 30a29.934 29.934 0 0 1-16.64-5.017L126.944 5.82C134.377 11.28 139.2 20.077 139.2 30zm0 0" fill-opacity=".08" fill="#000"/><path d="M158.228 30c0-16.57 13.45-30 30.044-30 16.592 0 30.043 13.43 30.043 30s-13.45 30-30.043 30-30.044-13.43-30.044-30zm0 0" fill="#EA4C89"/><path d="M198.118 18.848a14.595 14.595 0 0 0-9.677-3.65c-1.19 0-2.346.145-3.452.41.22.295 2.972 3.94 5.478 8.536 5.53-2.07 7.616-5.242 7.652-5.296zM205.6 29.83a17.164 17.164 0 0 1-1.35 6.67 17.277 17.277 0 0 1-3.676 5.446 17.628 17.628 0 0 1-2.54 2.092 17.335 17.335 0 0 1-2.914 1.58 17.233 17.233 0 0 1-13.36 0c-1.016-.432-1.998-.963-2.915-1.58a17.293 17.293 0 0 1-4.632-4.628 17.12 17.12 0 0 1-2.584-6.13 17.344 17.344 0 0 1 0-6.9 17.037 17.037 0 0 1 2.583-6.13 17.3 17.3 0 0 1 2.095-2.537 17.234 17.234 0 0 1 5.453-3.672 16.992 16.992 0 0 1 3.224-.998 17.29 17.29 0 0 1 10.135.998 17.22 17.22 0 0 1 2.915 1.584 17.54 17.54 0 0 1 2.54 2.09c.774.776 1.48 1.626 2.092 2.535a16.98 16.98 0 0 1 2.583 6.132c.232 1.126.35 2.287.35 3.45zm-14.57 2.362c-.03.01-.064.02-.096.032-8.646 3.01-11.47 9.075-11.5 9.14a14.636 14.636 0 0 0 9.007 3.1c2.03 0 3.963-.414 5.722-1.16-.217-1.28-1.07-5.76-3.13-11.112zm-2.186-4.912c-7.546 2.256-14.786 2.094-15.046 2.084-.004.157-.01.31-.01.467 0 3.76 1.42 7.187 3.753 9.778-.004-.007 4.006-7.112 11.914-9.665.19-.064.386-.12.58-.176a49.46 49.46 0 0 0-1.19-2.487zm7.785 14.686a14.636 14.636 0 0 0 6.278-9.816c-.3-.097-4.4-1.393-9.13-.636 1.92 5.274 2.702 9.57 2.85 10.452zm-14.442-25.37c-4.086 1.926-7.136 5.686-8.087 10.218.387.003 6.494.08 13.53-1.787-2.537-4.5-5.247-8.172-5.442-8.432zm9.406 9.73a46.144 46.144 0 0 1 1.29 2.88c5.034-.634 9.993.43 10.205.474a14.546 14.546 0 0 0-3.333-9.145c-.027.04-2.378 3.43-8.163 5.79zm0 0" fill="#FFF"/><path d="M218.315 30c0 16.57-13.45 30-30.043 30a29.934 29.934 0 0 1-16.64-5.017L206.058 5.82c7.434 5.46 12.258 14.258 12.258 24.18zm0 0" fill-opacity=".08" fill="#000"/><g><path d="M237.342 30c0-16.57 13.45-30 30.044-30 16.592 0 30.043 13.43 30.043 30s-13.452 30-30.044 30c-16.593 0-30.044-13.43-30.044-30zm0 0" fill="#333"/><path d="M255.522 31.936c1.412 2.515 4.134 4.08 8.725 4.513-.655.487-1.442 1.413-1.55 2.484-.825.523-2.482.696-3.77.297-1.805-.558-2.497-4.066-5.2-3.566-.585.108-.47.487.037.808.824.524 1.6 1.178 2.198 2.572.46 1.07 1.425 2.982 4.48 2.982 1.21 0 2.06-.143 2.06-.143s.024 2.73.024 3.793c0 1.224-1.684 1.57-1.684 2.16 0 .232.557.254 1.005.254.885 0 2.727-.725 2.727-1.998 0-1.01.017-4.41.017-5.006 0-1.3.71-1.712.71-1.712s.09 6.94-.168 7.872c-.303 1.094-.85.94-.85 1.427 0 .726 2.218.178 2.953-1.416.568-1.24.32-8.05.32-8.05l.606-.012s.035 3.117.015 4.542c-.022 1.476-.123 3.342.77 4.222.586.578 2.488 1.593 2.488.665 0-.54-1.042-.983-1.042-2.442V39.47c.833 0 .708 2.207.708 2.207l.06 4.102s-.182 1.493 1.648 2.12c.646.22 2.028.28 2.093-.09.064-.374-1.665-.93-1.68-2.086-.01-.706.03-1.118.03-4.186 0-3.068-.42-4.202-1.882-5.106 4.515-.455 7.31-1.55 8.67-4.487.108.003.556-1.37.498-1.37.305-1.11.47-2.42.503-3.972-.01-4.21-2.062-5.7-2.457-6.398.582-3.187-.097-4.637-.412-5.135-1.162-.406-4.046 1.045-5.622 2.067-2.57-.737-7.998-.666-10.034.19-3.757-2.64-5.744-2.235-5.744-2.235s-1.285 2.26-.34 5.565c-1.236 1.546-2.157 2.64-2.157 5.54 0 1.633.196 3.095.638 4.372-.053-.002.594 1.366.612 1.366zm0 0" fill="#FFF"/><path d="M297.43 30c0 16.57-13.452 30-30.044 30a29.934 29.934 0 0 1-16.64-5.017L285.173 5.82c7.433 5.46 12.257 14.258 12.257 24.18zm0 0" fill-opacity=".08" fill="#000"/></g><g><path d="M316.457 30c0-16.57 13.45-30 30.043-30 16.592 0 30.043 13.43 30.043 30s-13.45 30-30.043 30c-16.592 0-30.043-13.43-30.043-30zm0 0" fill="#CD332D"/><path d="M338.404 44.884V34.6h2.037V32.85h-6.044V34.6h2.037v10.284zm21.623-14.456c1.442 1.434 1.457 8.514 1.457 8.555 0 0-.012 7.116-1.457 8.555-1.435 1.43-13.533 1.462-13.533 1.462s-12.096-.03-13.535-1.462c-1.44-1.434-1.444-8.502-1.444-8.555 0-.04.004-7.12 1.443-8.555 1.438-1.432 13.534-1.45 13.534-1.45s12.098.018 13.533 1.45zm-15.572 13.48v.976h1.747v-8.878h-1.747v6.744a2.46 2.46 0 0 1-.543.475c-.196.124-.36.187-.488.187-.163 0-.283-.046-.36-.14-.07-.095-.107-.246-.107-.457v-6.81h-1.747v7.423c0 .53.104.924.306 1.19.207.266.507.395.913.395a2.1 2.1 0 0 0 1.015-.282c.35-.186.684-.46 1.01-.822zm6.488 1.088c.518 0 .916-.165 1.188-.5.276-.337.413-.818.413-1.446v-4.926c0-.727-.145-1.28-.44-1.66-.29-.376-.71-.565-1.266-.565-.27 0-.54.068-.806.21a2.71 2.71 0 0 0-.748.616v-3.874h-1.766v12.032h1.766v-.68c.228.272.48.47.747.6.266.13.57.192.913.192zm4.318-2.666v-1.672h3.344v-2.263c0-.842-.214-1.487-.644-1.935-.43-.45-1.045-.674-1.845-.674-.784 0-1.42.242-1.913.727-.495.483-.744 1.114-.744 1.882v3.986c0 .857.228 1.528.677 2.014.45.49 1.067.732 1.85.732.87 0 1.525-.228 1.96-.686.44-.463.66-1.148.66-2.06v-.455h-1.8v.405c0 .523-.06.86-.174 1.013-.115.153-.317.23-.607.23-.278 0-.474-.09-.592-.27-.112-.18-.17-.505-.17-.973zm-4.7-4.79c.122.154.183.382.183.68v4.585c0 .286-.053.487-.153.61-.1.128-.257.19-.47.19a.98.98 0 0 1-.422-.095 1.473 1.473 0 0 1-.416-.314v-5.53c.12-.123.24-.214.36-.272a.83.83 0 0 1 .372-.086c.235 0 .417.077.545.23zm4.88.044c.123-.166.323-.244.6-.244.266 0 .464.078.58.244.123.156.186.424.186.796v.896h-1.545v-.896c0-.372.06-.64.18-.796zm0 0M335.518 12h2.23l1.44 5.298h.14L340.696 12h2.253l-2.58 7.755v5.5h-2.215v-5.252zm10.52 3.23c.815 0 1.484.236 2.005.71.518.473.78 1.083.78 1.828v5.05c0 .837-.256 1.492-.764 1.97-.515.475-1.215.713-2.11.713-.86 0-1.55-.245-2.068-.735-.513-.492-.774-1.153-.774-1.984v-5.067c0-.76.265-1.362.796-1.81.53-.45 1.243-.674 2.135-.674zm-.093 8.577c.267 0 .477-.075.635-.223.157-.152.236-.358.236-.618V17.64a.64.64 0 0 0-.24-.52c-.162-.13-.372-.196-.63-.196-.242 0-.436.065-.587.196a.66.66 0 0 0-.227.52v5.326c0 .267.073.473.212.622.14.147.34.22.6.22zm8.12 1.448v-1.08c-.36.397-.738.703-1.132.91-.392.207-.772.31-1.14.31-.46 0-.8-.145-1.03-.436-.23-.292-.345-.728-.345-1.312v-8.172h1.964v7.497c0 .23.045.4.128.502.08.104.215.156.4.156.143 0 .327-.068.55-.205.218-.137.422-.312.605-.527v-7.422h1.968v9.78zm0 0" fill="#FFF"/><path d="M376.543 30c0 16.57-13.45 30-30.043 30a29.934 29.934 0 0 1-16.64-5.017L364.287 5.82c7.433 5.46 12.257 14.258 12.257 24.18zm0 0" fill-opacity=".08" fill="#000"/></g><g><path d="M395.57 30c0-16.57 13.452-30 30.044-30 16.593 0 30.044 13.43 30.044 30s-13.45 30-30.044 30c-16.592 0-30.043-13.43-30.043-30zm0 0" fill="#4EBBFF"/><path d="M413.91 23.996c.94 1.11 4.527 14.51 5.725 16.98 1.045 2.168 3.93 5.034 7.092 2.987 3.16-2.046 13.67-11.007 15.552-21.588 1.88-10.58-12.65-8.363-14.188.854 3.846-2.307 5.9.935 3.93 4.607-1.963 3.668-3.758 6.06-4.698 6.06-.94 0-1.66-2.455-2.735-6.745-1.113-4.435-1.106-12.424-5.726-11.518-4.357.853-10.083 7.68-10.083 7.68l1.37 1.792s2.82-2.22 3.76-1.11zm0 0" fill="#FFF"/><path d="M455.658 30c0 16.57-13.45 30-30.044 30a29.934 29.934 0 0 1-16.64-5.017L443.4 5.82c7.434 5.46 12.258 14.258 12.258 24.18zm0 0" fill-opacity=".08" fill="#000"/></g><g><path d="M474.685 30c0-16.57 13.45-30 30.043-30s30.044 13.43 30.044 30-13.45 30-30.044 30c-16.592 0-30.043-13.43-30.043-30zm0 0" fill="#E18F00"/><path d="M494.84 35.094c-.137.018-.274.036-.41.047a1.022 1.022 0 0 1-.173.02c-.03.002-.06.007-.092.01-.034.004-.068.01-.103.01-.115.007-.228.03-.344.03l-.32.04-.16.023c-.08.01-.16.02-.24.032l-.363.06c-.072.01-.145.017-.217.028-.053.008-.105.02-.158.03-.014.002-.027.022-.023.034l.037.097a9.68 9.68 0 0 0 1.245 2.09c.197.255.41.498.625.738.282.314.567.626.848.94.322.362.63.735.913 1.128.144.2.316.375.51.53.154.126.32.235.494.336.472.274.943.55 1.413.826.384.225.767.453 1.15.68a4.21 4.21 0 0 0 1.27.498 24.62 24.62 0 0 0 2.183.365l.252.03c.107.012.214.024.32.034l.357.03c.206.02.414.033.62.037a6.58 6.58 0 0 0 1.002-.05c.156-.02.312-.046.468-.068.243-.036.488-.062.734-.07.087-.004.176-.01.264-.013.208-.01.413-.042.616-.087a5.56 5.56 0 0 0 .608-.177c.436-.15.88-.275 1.33-.37a7.17 7.17 0 0 0 .705-.177c.353-.11.69-.255 1.006-.45.293-.184.592-.356.896-.522.11-.06.222-.122.332-.185.41-.24.788-.522 1.127-.854l.314-.305c.307-.3.617-.598.94-.882.18-.158.335-.338.474-.532.164-.228.3-.473.41-.73.193-.436.384-.87.574-1.307.165-.38.33-.76.477-1.148.23-.602.426-1.215.583-1.84.093-.368.17-.74.236-1.114.01-.06.02-.12.028-.18.006-.053-.005-.066-.054-.065a53.86 53.86 0 0 0-.415.01c-.027 0-.053.004-.08.005-.054.004-.107.01-.16.01-.12.003-.24.01-.358.018-.126.01-.253.013-.38.028-.056.006-.114.01-.17.018-.096.013-.192.02-.287.03-.034.005-.068.013-.102.02-.04.038-.043.05-.047.06a6.94 6.94 0 0 1-.4.816 95.41 95.41 0 0 1-1.592 2.695 4.99 4.99 0 0 1-.424.588 6.97 6.97 0 0 1-.628.658c-.4.37-.82.718-1.256 1.047-.456.346-.927.67-1.406.985-.543.356-1.088.71-1.632 1.062a2.533 2.533 0 0 1-.863.372c-.14.03-.28.048-.422.054a.178.178 0 0 0-.115.043c-.11.095-.237.156-.375.2a2.43 2.43 0 0 1-.257.062c-.105.02-.21.04-.316.062-.132.028-.264.055-.394.09-.135.035-.27.05-.41.052l-.67.005a8.48 8.48 0 0 1-1.76-.19 3.67 3.67 0 0 1-.488-.14c-.248-.093-.494-.19-.74-.292a10.895 10.895 0 0 1-1.407-.71 5.46 5.46 0 0 1-.386-.252 2.626 2.626 0 0 1-.375-.323 2.937 2.937 0 0 0-.397-.35c-.108-.08-.216-.16-.327-.237a5.597 5.597 0 0 1-.715-.596c-.29-.28-.56-.58-.817-.89a24.45 24.45 0 0 1-.796-1.03c-.362-.488-.685-1-.963-1.54l-.033-.058a2.91 2.91 0 0 0-.347.022zm-.7-8.326c.12-.44.263-.873.44-1.295.253-.608.572-1.18.972-1.705.153-.2.31-.4.477-.59a9.108 9.108 0 0 1 1.365-1.302c.54-.412 1.093-.808 1.663-1.18a17.033 17.033 0 0 1 1.746-1.006c.286-.14.577-.27.877-.38a6.73 6.73 0 0 1 1.856-.39c.246-.012.492-.012.738.002.126.007.252.02.378.035.138.015.275.035.412.053l.422.06.4.055c.14.02.282.036.423.056.124.018.25.03.377.035.147.005.292.015.438.03.134.01.266.032.393.08.417.16.833.317 1.244.49.227.095.452.193.672.304.206.103.403.22.587.362l.24.18c.756.567 1.5 1.15 2.238 1.74.115.09.22.192.316.3l.083.097c.19.23.39.453.588.678.208.237.41.478.598.73l.03.035c.07.003.14.002.21-.01.056-.008.113-.013.17-.015.027 0 .055 0 .08-.006.07-.012.138-.015.208-.016.04 0 .078-.002.116-.007.1-.016.2-.014.3-.017l.252-.01c.058-.004.115-.008.173-.01.074-.005.147-.005.22-.013a2.55 2.55 0 0 1 .183-.013c.03 0 .062-.005.092-.01.02-.002.034-.026.028-.043a5.164 5.164 0 0 0-.053-.14c-.12-.3-.254-.59-.39-.883-.135-.292-.272-.583-.403-.877-.12-.27-.242-.54-.373-.804-.233-.472-.48-.936-.76-1.38-.145-.227-.284-.458-.424-.687a4.295 4.295 0 0 0-.246-.36 2.664 2.664 0 0 0-.63-.604l-.113-.08c-.377-.258-.765-.5-1.172-.708a7.086 7.086 0 0 0-1.37-.54c-.51-.14-1.024-.27-1.54-.394l-1.323-.314c-.434-.102-.87-.2-1.312-.25a5.1 5.1 0 0 0-.437-.036 13.936 13.936 0 0 0-1.498.056c-.195.018-.39.037-.585.058a16.178 16.178 0 0 0-1.016.14 3.88 3.88 0 0 0-.768.2 9.856 9.856 0 0 1-.174.064c-.13.046-.267.068-.407.07H501c-.09.003-.178.004-.266.01-.19.016-.37.072-.53.176l-.078.05a1.02 1.02 0 0 1-.385.148c-.048.007-.096.02-.145.033-.22.055-.43.143-.63.25-.133.07-.26.147-.387.227-.72.452-1.436.906-2.156 1.356-.263.165-.49.37-.682.613-.085.108-.178.21-.277.307-.16.155-.32.31-.494.45-.11.09-.212.19-.306.296-.163.184-.32.374-.467.57a9.7 9.7 0 0 0-1.095 1.875c-.182.406-.346.82-.51 1.232-.172.435-.34.872-.525 1.302a7.648 7.648 0 0 0-.484 1.592c-.005.026-.006.053-.008.08-.002.018.018.035.038.033.208-.036.38-.07.556-.095l.42-.06.24-.03.183-.027.228-.035.377-.054c.14-.02.28-.043.42-.065.03-.003.06-.01.09-.032l.012-.04zm10.783 12.087c.178.013.353-.005.527-.042a3.22 3.22 0 0 0 .505-.158l.965-.38a11.57 11.57 0 0 0 1.295-.6 8.973 8.973 0 0 0 2.442-1.92 5.9 5.9 0 0 0 .4-.492 3.38 3.38 0 0 0 .415-.767 4.54 4.54 0 0 1 .146-.337c.08-.168.163-.33.245-.496l.17-.34c.015-.03 0-.053-.036-.05a1.22 1.22 0 0 0-.103.012c-.106.016-.21.036-.32.038-.1 0-.2.013-.298.02l-.366.043c-.092.01-.183.022-.275.033-.038.005-.076.01-.114.013-.03.003-.06.003-.09.008-.058.012-.115.013-.173.017-.122.008-.245.014-.367.028-.16.02-.32.044-.478.076-.113.024-.227.04-.34.056-.11.015-.222.028-.332.04l-.264.03c-.1.01-.2.016-.298.03a8.93 8.93 0 0 1-.412.042c-.103.01-.206.018-.31.027-.068.006-.137.016-.206.02-.02 0-.038.003-.057.005l-.138.015-.114.012c-.03.003-.06.008-.09.01l-.497.007c-.034 0-.07 0-.104.002-.15.014-.3.03-.448.043l-.32.038c-.107.01-.214.017-.32.03-.13.016-.26.03-.39.043-.084.01-.168.02-.252.028l-.183.02-.252.027c-.1.01-.198.027-.297.035-.127.01-.253.018-.38.024-.134.005-.27 0-.403.023a1.2 1.2 0 0 0-.262.032c-.178.035-.36.043-.538.057-.138.01-.275.025-.412.044a3.116 3.116 0 0 1-.252.028c-.122.007-.243.03-.367.032-.015 0-.03.004-.045.006l-.103.01-.39.03c-.02 0-.04.006-.058.008l-.07.007c-.106.01-.213.02-.32.032-.122.016-.243.034-.366.042l-.044.006-.138.015-.08.008-.137.015-.08.01c-.102.01-.205.023-.308.034-.103.01-.207.017-.31.03-.126.016-.252.028-.377.044l-.24.028c-.088.01-.175.024-.263.035l-.434.05c-.053.014-.065.04-.056.054.013.02.025.038.04.057.148.2.296.402.447.6.14.187.29.367.45.54.244.26.508.5.807.7.1.066.19.14.278.223.052.05.106.1.164.145.206.16.42.31.645.442l.32.184c.297.17.6.325.89.51.097.06.204.104.315.137l.52.157c.323.096.648.188.98.25.262.05.524.086.79.086.162 0 .324-.005.467-.007a4.03 4.03 0 0 1 .456.01zm.36-26.063c.028 0 .055 0 .137-.018 0 0 .54.018.56.02.088.012.176.022.263.035.163.025.326.055.49.066.097.007.192.016.288.024l.438.035.46.03a19.497 19.497 0 0 1 .7.064c.157.015.314.03.47.053.327.048.65.114.972.19.358.087.713.186 1.068.288.44.127.876.26 1.306.415 1.085.39 2.116.89 3.087 1.513.552.353 1.076.74 1.56 1.18.07.065.142.13.21.2.224.226.415.48.583.753.093.15.185.3.28.45.15.237.31.466.484.687.147.187.286.38.42.577.512.762.913 1.58 1.22 2.442.144.4.262.81.37 1.222l.162.61c.004.02.01.037.097.08.165-.033.33-.068.497-.098.07-.014.142-.032.215-.037.032-.002.06.006.147.096.06.058.13.094.27.106.14 0 .278-.003.416-.006.065-.002.13-.007.196-.01.095 0 .19 0 .287-.003.06-.002.123-.005.184-.01.066-.002.13-.006.197-.01l.552-.032c.06-.012.12-.014.25-.02.104-.02.208-.02.31-.023.063-.002.125.002.186.007.066.005.128.025.2.133.05.05.083.11.108.176.018.045.035.092.055.137.02.05.05.094.092.13.023.022.05.036.174.04.108.002.216.003.406.036.093.09.166.19.208.372 0 0-.03.32-.03.35a.3.3 0 0 1-.046.15l-.242.472c-.035.068-.07.137-.102.206a.342.342 0 0 0-.03.2c.01.07.013.14.008.208a.458.458 0 0 1-.04.156.618.618 0 0 1-.138.196l-.1.096a.288.288 0 0 0-.09.205c0 .015 0 .03-.032.13-.014.02-.03.036-.088.107-.033.05-.036.1-.004.15.02.033.043.064.064.096a.245.245 0 0 0 .2.116.275.275 0 0 1 .186.083c.072.07.14.144.197.225.033.047.06.098.08.152a.205.205 0 0 1-.014.198c-.032.048-.06.098-.084.15-.08.184-.14.373-.197.565-.014.045-.015.09.013.215.01.062.005.122-.037.174-.027.033-.03.07 0 .163a.186.186 0 0 1-.01.123.262.262 0 0 1-.095.114.813.813 0 0 1-.275.117l-.165-.05c-.094-.03-.19-.02-.29.077.023.014.05.02.156.03.065.024.13.05.24.107a.19.19 0 0 1 .084.133c.005.046.014.09.017.137.004.067.025.127.092.23.032.04.034.086.02.132-.017.06-.036.117-.057.174a.354.354 0 0 1-.135.182c-.068.044-.093.11-.098.28a.29.29 0 0 1-.032.12c-.02.04-.053.065-.215.07a.518.518 0 0 0-.136.02.14.14 0 0 0-.094.08 1.148 1.148 0 0 0-.05.14.116.116 0 0 1-.093.077l-.342.048-.273.038c-.088.012-.176.02-.263.032l-.137.02a.34.34 0 0 0-.24.164.502.502 0 0 0-.067.182.706.706 0 0 1-.066.184c-.035.072-.096.106-.254.118h-.29c-.145 0-.29 0-.437.002-.03 0-.06.002-.148.076-.024.17-.044.342-.073.512-.052.295-.104.59-.163.882-.105.53-.214 1.06-.323 1.59-.112.54-.226 1.08-.34 1.62-.078.374-.16.75-.255 1.12a3.59 3.59 0 0 1-.906 1.63.178.178 0 0 0-.046.104c-.003.035-.008.07-.01.103a1.275 1.275 0 0 1-.066.303c-.05.146-.118.283-.2.413-.075.117-.153.232-.23.345-.117.167-.232.335-.34.508-.123.2-.258.39-.4.576a9.516 9.516 0 0 1-1 1.098c-.355.34-.732.654-1.12.958a10.065 10.065 0 0 1-2.294 1.355c-.814.346-1.646.643-2.492.898-.333.1-.67.17-1.014.21-.126.015-.252.03-.378.05-.213.03-.425.064-.638.093a.422.422 0 0 1-.215-.016.703.703 0 0 0-.26-.04c-.093 0-.183.017-.273.04-.105.023-.208.053-.313.075a8.02 8.02 0 0 1-.957.144c-.096.008-.192.015-.365.042l-1.565-.017-.437-.03c-.13-.01-.26-.018-.39-.03a36.505 36.505 0 0 1-.55-.06c-.154-.017-.306-.034-.46-.055-.23-.033-.462-.07-.694-.105a27.618 27.618 0 0 1-3.002-.66 14.06 14.06 0 0 1-1.883-.714 21.395 21.395 0 0 1-1.883-.995 17.508 17.508 0 0 1-2.28-1.595c-.384-.315-.756-.64-1.12-.98a37.01 37.01 0 0 1-1.97-1.968 16.087 16.087 0 0 1-1.398-1.724 1.347 1.347 0 0 1-.117-.2c-.106-.224-.212-.45-.32-.674-.214-.438-.43-.875-.623-1.322-.003-.006-.01-.01-.13-.01-.23.043-.46.085-.69.13-.18.033-.36.07-.542.105-.177.034-.354.068-.53.104-.117.024-.235.046-.344.094-.06.027-.12.028-.24-.043-.01-.065-.016-.13-.026-.194a1.148 1.148 0 0 0-.077-.262c-.038-.06-.088-.114-.247-.195-.11-.006-.215.015-.32.034a7.173 7.173 0 0 1-.387.06c-.08.01-.16.02-.24.032a1.93 1.93 0 0 1-.31.02c-.14 0-.274-.026-.498-.12a.13.13 0 0 1-.066-.09c-.01-.05-.017-.098-.025-.147-.005-.03-.023-.047-.05-.15.024-.003.043-.015.068-.106.028-.103.028-.103.005-.226a.462.462 0 0 1-.002-.24.904.904 0 0 0 .028-.272.31.31 0 0 1 .025-.146.3.3 0 0 0 .024-.135c-.002-.045-.002-.092-.008-.137a1.452 1.452 0 0 1-.003-.355c.013-.134.018-.268.028-.402.01-.114.006-.23.005-.345a.57.57 0 0 0-.01-.113 1.306 1.306 0 0 1-.003-.446.705.705 0 0 0 .016-.158c0-.054 0-.108-.002-.16 0-.05.014-.092.085-.198.08-.107.16-.216.25-.315a.375.375 0 0 0 .1-.275c0-.092 0-.184-.007-.276a4.28 4.28 0 0 1-.01-.31c0-.1-.004-.2-.002-.3.004-.135-.018-.267-.035-.4-.016-.114-.038-.227-.033-.343a.386.386 0 0 0-.014-.113c-.027-.107-.023-.213.04-.382.03-.083.023-.165-.028-.288a.222.222 0 0 1-.01-.18l.06-.173a.185.185 0 0 1 .085-.104.643.643 0 0 1 .223-.09c.095-.015.19-.03.285-.043.152-.02.303-.05.453-.08.23-.05.456-.105.683-.164a13.35 13.35 0 0 1 1.1-.24c.168-.027.334-.058.615-.1.016-.002.027-.013.047-.096l.117-.68a34.812 34.812 0 0 1 .72-3.195c.117-.425.242-.848.39-1.264a12.02 12.02 0 0 1 .97-2.106c.3-.507.635-.988 1.015-1.438a9.47 9.47 0 0 1 .987-1c.544-.48 1.11-.932 1.7-1.358a20.79 20.79 0 0 0 1.66-1.315c.314-.28.67-.49 1.064-.632.145-.053.287-.11.43-.17.315-.13.623-.278.93-.426a9.18 9.18 0 0 1 1.443-.546c.658-.19 1.33-.308 2.01-.39l.458-.06.41-.055.424-.053c.206-.027.41-.056.617-.082.182-.023.365-.045.548-.066.1-.012.2-.022.298-.032l.31-.03c.15-.012.3-.026.45-.034.225-.013.452-.02.678-.032zm-1.237 8.527c-.372.057-.74.143-1.098.257-.363.115-.718.25-1.066.405-.47.21-.937.425-1.405.638a.703.703 0 0 0-.09.05c-.466.302-.905.637-1.317 1.007-.49.44-.938.918-1.352 1.43a7.478 7.478 0 0 0-.76 1.135c-.017.03-.002.05.034.05.182-.03.33-.057.476-.083.155-.028.31-.054.465-.08l.34-.057c.11-.018.22-.04.33-.055.18-.027.357-.05.536-.077.06-.007.12-.016.18-.026l.388-.06.376-.054.387-.06.4-.052c.065-.01.13-.02.194-.028l.228-.035c.102-.014.205-.028.308-.04.083-.012.167-.02.25-.03l.253-.03.205-.027c.076-.01.152-.023.228-.034l.24-.03.386-.06c.06-.01.122-.018.183-.025.084-.012.168-.02.25-.03.13-.02.26-.033.39-.045.092-.01.184-.02.276-.024l.422-.06c.057-.01.114-.02.17-.026.08-.01.16-.022.24-.03.12-.013.237-.032.355-.042l.057-.008.263-.034c.065-.01.13-.017.194-.023l.3-.03c.132-.018.266-.032.4-.044.095-.008.19-.02.287-.025.08-.01.125-.014.17-.018.028-.003.056 0 .082-.007.07-.014.144-.015.217-.018.023 0 .046-.002.07-.006.067-.013.136-.015.205-.017.066 0 .13 0 .196-.008.12-.012.238-.012.357-.014.108 0 .215-.016.32-.03.122-.018.242-.045.36-.083a.38.38 0 0 1 .113-.02c.1-.002.2-.012.298-.024.137-.016.273-.04.41-.06.118-.018.235-.04.352-.056.107-.016.213-.03.32-.043.072-.01.144-.022.217-.025.115-.006.23-.03.344-.03.026 0 .053-.007.08-.01a4.8 4.8 0 0 1 .09-.01l.322-.028c.04-.01.048-.016.052-.02.005-.007.008-.015.007-.02-.002-.025-.02-.04-.035-.058a5.298 5.298 0 0 0-.596-.61c-.15-.13-.305-.258-.46-.383-.195-.155-.393-.307-.59-.46a1.696 1.696 0 0 0-.23-.153c-.114-.063-.227-.128-.34-.194a1.53 1.53 0 0 1-.252-.182c-.05-.042-.1-.083-.152-.122a.747.747 0 0 0-.335-.145.447.447 0 0 1-.128-.047c-.138-.067-.276-.135-.415-.2a1.69 1.69 0 0 0-.325-.114 58.885 58.885 0 0 0-1.787-.403.89.89 0 0 0-.183-.024c-.165 0-.33-.002-.495.016-.092.01-.184.006-.276-.004-.117-.014-.237-.018-.316-.024a4.368 4.368 0 0 0-.568.045zm0 0" fill="#FFF"/><path d="M534.772 30c0 16.57-13.45 30-30.044 30a29.934 29.934 0 0 1-16.64-5.017L522.515 5.82c7.434 5.46 12.258 14.258 12.258 24.18zm0 0" fill-opacity=".08" fill="#000"/></g><g><path d="M553.8 30c0-16.57 13.45-30 30.042-30 16.593 0 30.044 13.43 30.044 30s-13.45 30-30.044 30C567.25 60 553.8 46.57 553.8 30zm0 0" fill="#517FA4"/><path d="M571.87 27.198v13.545c0 .65.565 1.208 1.215 1.208 7.17.002 14.34.002 21.51 0 .656 0 1.216-.556 1.216-1.21.002-4.51 0-9.02 0-13.53v-.093h-2.915a9.525 9.525 0 0 1 .377 4.014 9.32 9.32 0 0 1-1.32 3.804 9.51 9.51 0 0 1-12.744 3.345c-1.58-.884-2.823-2.12-3.69-3.71-1.29-2.375-1.497-4.867-.74-7.453h-2.907zm24.67 17.974c-.156.034-.316.056-.474.083H571.62c-.066-.01-.13-.023-.196-.03a3.303 3.303 0 0 1-2.773-2.52c-.034-.154-.056-.31-.084-.465V17.762l.03-.17a3.292 3.292 0 0 1 2.547-2.767c.146-.033.295-.053.443-.08H596.1c.056.01.112.023.17.03a3.3 3.3 0 0 1 2.783 2.618c.027.133.045.268.066.4v24.413c-.023.136-.042.273-.068.41-.244 1.252-1.264 2.29-2.51 2.556zm-18.888-15.266c-.05 3.46 2.724 6.202 6.048 6.273 3.46.073 6.258-2.687 6.33-6.044a6.192 6.192 0 0 0-6.187-6.32c-3.39 0-6.144 2.722-6.19 6.09zm16.985-7.336a1.224 1.224 0 0 0 1.174-1.217v-2.89c0-.69-.547-1.24-1.238-1.24-.962 0-1.923-.002-2.886 0-.69 0-1.238.55-1.24 1.242 0 .955-.002 1.91.005 2.865.002.143.03.29.074.426.173.508.64.82 1.21.823l1.393-.002c.503-.006 1.007.004 1.51-.008zm0 0" fill="#FFF"/><path d="M613.886 30c0 16.57-13.45 30-30.044 30a29.934 29.934 0 0 1-16.638-5.017L601.628 5.82c7.434 5.46 12.258 14.258 12.258 24.18zm0 0" fill-opacity=".08" fill="#000"/></g><g><path d="M632.913 30c0-16.57 13.45-30 30.044-30C679.55 0 693 13.43 693 30s-13.45 30-30.043 30-30.044-13.43-30.044-30zm0 0" fill="#CB2027"/><path d="M650.173 25.656c0 3.303 1.252 6.24 3.938 7.336.44.18.836.006.964-.48.088-.338.3-1.188.392-1.542.13-.48.08-.65-.276-1.07-.775-.912-1.27-2.093-1.27-3.765 0-4.853 3.636-9.197 9.468-9.197 5.164 0 8 3.15 8 7.36 0 5.535-2.453 10.208-6.095 10.208-2.012 0-3.518-1.662-3.035-3.7.578-2.43 1.697-5.057 1.697-6.813 0-1.57-.845-2.882-2.593-2.882-2.057 0-3.71 2.125-3.71 4.97 0 1.813.615 3.04.615 3.04l-2.474 10.462c-.734 3.106-.11 6.913-.057 7.297.03.227.324.28.457.11.19-.248 2.64-3.267 3.47-6.284.237-.855 1.354-5.278 1.354-5.278.668 1.272 2.62 2.393 4.697 2.393 6.182 0 10.376-5.626 10.376-13.16 0-5.694-4.832-11-12.174-11-9.136 0-13.743 6.542-13.743 11.996zm0 0" fill="#FFF"/><path d="M693 30c0 16.57-13.45 30-30.043 30a29.934 29.934 0 0 1-16.64-5.017L680.743 5.82C688.176 11.28 693 20.077 693 30zm0 0" fill-opacity=".08" fill="#000"/></g></g></g></g></svg>